<svg height="75" id="Layer_1" xmlns="http://www.w3.org/2000/svg" viewBox="0 0 75 75"><style>.st0{fill:#FFFFFF;}</style><path class="st0" d="M68.8 24v49.5H27.9c1.4-.5 3-.7 4.3-1.5 3.7-2.3 6.4-5.6 7.6-9.8 1.3-4.2 1.8-8.5 1.1-12.9-.7-4-1.3-8-2.3-11.9-1.3-5-3.1-9.8-4.6-14.7-.1-.4-.1-1.1.2-1.3 1.6-1.1 3.2-2.1 5.1-3.4.3 2.1.5 3.9.8 5.6.7 3 1.5 6.1 2.3 9.1.1.4.7.9 1.2 1 .3.1.9-.6 1-1 .9-2.7 1.7-5.4 2.5-8.1.5-1.8 1.1-3.6 1.6-5.4h.5c.3 1.9.5 3.8.8 5.7.3 1.7.5 3.5.9 5.2.1.4.6.8 1 .8.3 0 .9-.3 1.1-.6.7-1.3 1.3-2.7 1.8-4 .9-2.3 1.7-4.7 2.7-7.4.2.7.3.9.3 1.2.4 2.4.7 4.7 1.1 7.1.1.6.6 1.4 1 1.4.5 0 1.2-.5 1.7-.9 1-.9 1.8-2 3.3-2.3 1.4-.4 2.6-1 3.9-1.4z"/><path class="st0" d="M25.8 1.3h43v21.9c-3.2-.7-5.8.5-8.3 3-.2-1.4-.4-2.5-.6-3.6-.3-1.8-.5-3.6-.8-5.4-.1-1-.6-1.5-1.7-1.5-1.6 4.1-3.2 8.2-4.9 12.6-.3-.6-.5-.8-.5-1-.3-2-.5-4.1-.8-6.1-.3-1.6-.6-3.3-1-4.9-.1-.4-.8-.7-1.2-1-.3.4-.6.7-.7 1.1-1.3 4.2-2.5 8.3-3.8 12.5-.2.6-.5 1.2-.9 2-.2-.5-.4-.7-.4-.9-1.4-4.2-1.9-8.5-1.9-12.9 0-.6-.5-1.5-.9-1.6-.5-.1-1.2.4-1.8.8-.3.2-.4.6-.7.8-1.5 1-2.9 1.9-4.5 2.9-2.5-6.3-4.1-12.9-7.6-18.7zM53 8.7c1-.7 1.7-1.1 2.3-1.6.2-.1.2-.7.1-.9-.1-.2-.6-.2-.8-.2-.5 0-.9.2-1.3.1-.6-.1-1.3-.1-1.2.7 0 .7.5 1.2.9 1.9zM6.6 48.9V1.3h17.9c-.1.4-.3.8-.2 1.1.1 1.5.5 3 .5 4.5-.3 4.4.6 8.7.9 13.1.1.8.5 1.1 1.3.7-.7-5.2-1.4-10.3-.7-15.5.8 1.3 1.6 2.7 2.2 4.1 1.4 3.6 2.7 7.2 3.9 10.8.1.3-.2 1.1-.6 1.3-6.6 4.5-12.7 9.6-18.1 15.5-2.3 2.5-4.5 5.1-5.7 8.3-.7 1.2-1.1 2.5-1.4 3.7z"/><path d="M6.6 48.9c.4-1.2.7-2.5 1.2-3.7 1.2-3.3 3.4-5.9 5.7-8.3 5.4-5.9 11.5-11 18.1-15.5.4-.2.7-1 .6-1.3L28.3 9.3c-.5-1.4-1.3-2.8-2.2-4.1-.6 5.2.1 10.4.7 15.5-.8.5-1.2.2-1.3-.7-.3-4.4-1.1-8.7-.9-13.1.1-1.5-.3-3-.5-4.5 0-.4.1-.8.2-1.1h1.4c3.5 5.8 5.2 12.4 7.6 18.7 1.6-1 3-1.9 4.4-2.8.3-.2.4-.6.7-.8.6-.3 1.2-.8 1.8-.8.4.1.9 1 .9 1.6 0 4.4.6 8.7 1.9 12.9.1.2.2.4.4.9.4-.8.7-1.4.9-2 1.3-4.2 2.5-8.3 3.8-12.5.1-.4.5-.7.7-1.1.4.3 1.1.6 1.2 1 .4 1.6.7 3.3 1 4.9.3 2 .5 4.1.8 6.1 0 .2.2.4.5 1 1.7-4.4 3.3-8.5 4.9-12.6 1.1 0 1.6.5 1.7 1.5.3 1.8.5 3.6.8 5.4.2 1.1.4 2.2.6 3.6 2.5-2.5 5.1-3.8 8.3-3v.8c-1.2.4-2.5 1-3.7 1.3-1.4.3-2.3 1.4-3.3 2.3-.5.4-1.2.9-1.7.9-.4 0-.9-.9-1-1.4-.4-2.3-.8-4.7-1.1-7.1 0-.2-.1-.5-.3-1.2-1 2.7-1.8 5.1-2.7 7.4-.5 1.4-1.2 2.7-1.8 4 0 .4-.6.7-1 .7s-.9-.5-1-.8c-.4-1.7-.7-3.5-.9-5.2-.3-1.9-.6-3.8-.8-5.7h-.5c-.5 1.8-1.1 3.6-1.6 5.4-.8 2.7-1.6 5.4-2.5 8.1-.1.4-.8 1-1 1-.5-.1-1.1-.6-1.2-1-.8-3-1.6-6-2.3-9.1-.4-1.7-.5-3.5-.8-5.6-1.9 1.2-3.5 2.3-5.1 3.4-.2.2-.3.9-.2 1.3 1.5 4.9 3.3 9.8 4.6 14.7 1 3.9 1.6 7.9 2.3 11.9.8 4.4.2 8.7-1.1 12.9-1.3 4.2-3.9 7.5-7.6 9.8-1.2.8-2.8 1-4.3 1.5h-4.3c0-.1-.1-.2-.1-.2-4.1-.8-7.3-3-9.9-6.2-2.8-3.5-5.1-7.3-6.3-11.7-.2-.9-.5-1.8-.7-2.7-.1-1.4-.1-2.6-.1-3.9zm26.1-26.8c-2.7 1.9-5.2 3.4-7.4 5.2-2.6 2.1-5 4.4-7.5 6.7-2.6 2.4-5 4.9-7 7.9-2.7 4-4 8-2.7 12.8 1.1 3.9 2.8 7.4 5.3 10.6 2.8 3.6 6.2 6.3 11 7 4.1.6 7.3-1 10-3.6 2.1-2.1 3.8-4.7 4.3-7.7.5-2.7 1-5.4 1.2-8.1.1-1.7-.2-3.4-.5-5-.7-3.6-1.4-7.2-2.3-10.7-.6-2.4-1.3-4.7-2-7-.7-2.7-1.5-5.3-2.4-8.1z"/><path class="st0" d="M6.6 52.7c.2.9.5 1.8.7 2.7 1.2 4.4 3.5 8.2 6.3 11.7 2.6 3.2 5.8 5.4 9.9 6.2.1 0 .1.1.1.2h-17V52.7z"/><path d="M53 8.7c-.4-.8-.9-1.3-1-1.8-.1-.8.6-.8 1.2-.7.4.1.9-.1 1.3-.1.3 0 .7 0 .8.2.1.2.1.7-.1.9-.4.5-1.1.9-2.2 1.5z"/><path class="st0" d="M32.7 22.1c.9 2.8 1.7 5.4 2.5 8 .7 2.3 1.5 4.6 2 7 .8 3.6 1.6 7.1 2.3 10.7.3 1.7.6 3.4.5 5-.2 2.7-.7 5.4-1.2 8.1-.5 3.1-2.2 5.6-4.3 7.7-2.7 2.7-5.9 4.2-10 3.6-4.8-.7-8.2-3.4-11-7-2.4-3.1-4.2-6.7-5.3-10.6-1.3-4.8 0-8.9 2.7-12.8 2-3 4.4-5.5 7-7.9 2.5-2.2 4.9-4.6 7.5-6.7 2.2-1.7 4.7-3.2 7.3-5.1z"/></svg>