<svg id="K" xmlns="http://www.w3.org/2000/svg" viewBox="0 0 291.8 289.78"><defs><style>.cls-1,.cls-2,.cls-3,.cls-4,.cls-5,.cls-6{fill:#fff;stroke:#fff;}.cls-1,.cls-2{stroke-miterlimit:10;}.cls-1{fill-rule:evenodd;}.cls-3,.cls-6{stroke-linejoin:round;}.cls-3,.cls-5,.cls-6{stroke-width:0.26px;}.cls-4,.cls-6{stroke-linecap:round;}.cls-4,.cls-5{stroke-miterlimit:2.61;}.cls-4{stroke-width:0.19px;stroke-dasharray:0.19 0.56;}</style></defs><title>LFUCG Seal K_White</title><path class="cls-1" d="M99.58 179.22v-19.38h6.24v-1.19h1.32v-3.17c-1.41-.44-.74-2 0-2.52v-1l-2.17-2.33v-1.06h-1.05l-.05.73h-.61v-.76h-2v.33h-.6v-1.38c-3.19-3-4.56-6.72-5.86-10.68l2.43-1.21c.93 3 3.12 5.28 4.7 5.71-2.79-4.38-5.94-14.94-4.87-16.5l.65-.95h9.11v-1.61l-1-.38.07-3.48h-1.78l.12-3 42.65-18.25 42.22 17.38v3.86h-2.88v3.55l-.56.02v1.72h13l.05 1.45a25.5 25.5 0 0 0-5.42 10.83c-1 2.21 1.2 9.61 2.24 7.2 1.07.16 1.57 2.3-2.87 10.67-1 1.86-3.26 5.12-2.83 6.54h4v18.74l-94.27.1zm46.28-73.6l-25.39 10.33h51.19l-25.83-10.32zm46.24 48a23.5 23.5 0 0 0 3.62-7.8c.09-.76.28-2-.07-1.62-2 1.88-3.33-5.53-3-7.68 1.09-6.69 4.48-9.5 4.74-11.18h-11.73v33.39h1.17l.09 1.59h1.77l.4-2c.92-1.44 1.6-2.46 2.23-3.46h-4.42v-12.28h5.18v11zm-4.92-26v11.7h4.92l.1-11.72h-5zm.67.88v3.93h1.33v-3.93h-1.33zm-13.6.76v3.16h.73v-3.16h-.73zm-12.44.1v3.17h.6v-3.17h-.6zm-17.34 0v3.17h1.38v-3.17h-1.39zm-28.34-.19v3.41h1v-3.41h-1zm-14.33-.22v3.17h1.38v-3.17h-1.37zm.06 14.61v3.95h1.38v-3.96h-1.38zm26.75-14.27v3.38h1.2v-3.38h-1.2zm-12.95 14.26v4.44h1.45v-4.44h-1.45zm12.68.17v4.36h1.31v-4.36h-1.31zm59.44 0v4.08h1.39v-4.08h-1.39zm-14.1-.26v4.37h1.39v-4.37h-1.41zm-12.72.13v4.36h1.39v-4.4h-1.39zm28.9 4.89v3.36l-.82-.05v-3.34h-1.25v4.49h3.52v-9.23h-1.37v4.08h.68l-.19.69h-.5zm-14.19 0v2.6h-.79v-2.6h-1.22v4.5h3.52v-9.5h-1.37v4.41l.68-.05-.14.65h-.69zm-12.55.18v4h-.67v-4h-1.58v4.5h3.52v-9.5h-1.08v4.35h.81l-.21.69h-.74zm26.79-20.13v3.93h1.5v-3.93h-1.5zm-14.2.71v3.22h.71v-3.22h-.71zm-12.7.1v3.22h.65v-3.22h-.59zm-16.55 0v3.22h1v-3.22h-1zm-28.77-.15v3.43h.79v-3.47h-.79zm-13.85-.24v3.22h1v-3.22h-1zm.13 14.61v4.15h1v-4.15h-1zm26.42-14.16v3.26h.87v-3.26h-.87zm-12.54 14.2l.07 4.45h1.16l-.07-4.45h-1.16zm12.63.19v4.29h1.18v-4.29h-1.16zm57.39-10.65v4.61h3.46v-4.61h-1.39l-.07 3.4h-.78v-3.41h-1.19zm-13.59 0v4.19h2.19v-4.19h-.81v3.44h-.51v-3.41h-.79zm-12.45.1v4.19h1.83v-4.19H163v3.44h-.43v-3.41h-.66zm-17.32 0l-.05 4.19h3v-4.19h-1v3.47h-.59v-3.41h-1.32zm-28.37.21v3.73h2.3v-3.73h-.88l.08 2.72h-.59l-.06-2.65h-.88zm-14.29-.59l-.05 4.19h3v-4.19h-1v3.47h-.59v-3.48h-1.32zm26.73.2v4.31h2.78v-4.31h-1v3.62h-.55v-3.56h-1.23zm-12.92 15.63v4.47h3.55v-4.47h-1.37v3.21h-.65v-3.21h-1.48zm12.7 0v4.49h3.22v-4.32h-1.07l.07 2.86h-.82l.05-2.92h-1.41zm55.82-12.27l.56 6.75v-6.75h-.56zm-12.9.92l.92 21.25 1.34-.05.09 1.49h2l.03-1.47h1.23l.39-3.68h-4.52v-12.4h5.15l.56-5.78-.31-1.33-.27-.08-.1 3.3-.51.9-4.55.06-.07-.74.81-.57v-1.67l-.84.79h-1.29zm-10.78 17.5l.21 3.88h1.18v1.43h1.1v-1.45h1v-3.82h-3.61zm-32.73.23l.21 3.54 1.26.06-.07 1.43h1.48v-1.37h1.66v-4.13l-.49.48h-4.08zm-13.3-.13l.15 3.56h1.41v1.45h2.12v-1.26h1.51l.21-3.69-5.39-.09zm44.78-18.68l.77 11.81.26-5.36 4.84-.06.21-6.49h-.36v1.95l-.45 1.27h-4.46l-.05-2.08-.71-1zm-20.7.82l.66 9v-4.91l14 .06v-.71h-13.78v-.57h14.22l.16-3.1h-.55l.09-2.61-.17-1.31-.12 3.78-1.08.82-.77-.14-.1-2.25-.12 2.26-1-.14-.07-2.49-.17 2.36-.66.09v1.37l-.61.91-5.7.06v-2.26h-1l-.3-.51-.68.59-.44-.5-.82.35h-1zm1.78 4.8l1.43.92 9.33.05 1.43-1h-12.14zm11.22 5.62v11.19h.94l.53-11.15-1.47-.05zm.1-4.14v3.29h1.44v-4.5l-1.43 1.22zm-11.69-.93l.1 4.25h1.32l-.17-3.27-1.24-1zm.07 5.07v11.29l.56-.05.05 1.48h.71v-12.71h-1.32zm6.19.76h-4.25v.64h4.22l.13 11.39h.61l-.12-11.39h4v-.55h-4l-.15-4.98h-.49l.08 4.9zm-3.7-3.71v2.08h.57v-2.08h-.53zm-.06 5.55v1.62h.57v-1.62h-.57zm.06 3.53v4.58h.58v-4.58h-.54zm1.76-9.12v2.08h.58v-2.08h-.58zm-.06 5.56v1.62h.57v-1.62h-.53zm.06 3.49v4.58h.58v-4.58h-.58zm3.35-9v2.08h.58v-2.08h-.55zm-.06 5.56v1.62h.57v-1.62h-.57zm.06 3.49v4.58h.58v-4.58h-.55zm2-9v2.08h.57v-2.14h-.57zm.03 5.49v1.62h.57v-1.62h-.57zm.06 3.53v4.58h.57v-4.58h-.57zm-36.43-16.77l1.22 17 .13-11.4 5.33.07-.09 9.06.63-14.86-.5.14-.08 2-.41.5-5.48-.09-.07-2.18-.66-.21zm13 0l1.18 17-.15-11.17h5l.08 8.86.56-14.86-.45.14-.07 2-.37.5h-5l.07-1h4.95l-.17-.23h-4l-.1-1.15h-.92l-.24-2.27v2.27h-.3zm-18.85 2.67l.11 7.64.26-7.64h-.37zm-.62-14.11l-8.84.06a31.14 31.14 0 0 0 2.59 11.2v-8.69l5.23-.14.09 10.69-.8 1h-3.14l1.27 2.37c-3 0-4.82-2.26-6.36-5.39l-1.17.62a32.69 32.69 0 0 0 4.93 9.62l.06-4.19 5.13-.06-.18 7 1.2 1.56v-25.61zm.46-5.9l-.79.23v1.75h1.17v-2.3l-.22-.31-.15.64zm5.54.06h-1.71v2h4.44v-1.82l-.91-.19.02-1.49-.38-.06v1.63h-.83v-1.46h-.55v1.46zm6.92.11h-.23v-1.66h-.22v1.63h-.38v1.88h4.21v-1.59h-.7v-2h-.5v1.53h-.88l-.02-1.53h-.36v1.51h-.4v-.4h-.43v.71zm8.2-.1h-1.17v1.93h6v-1.6h-.53v.39h-.46v-2.07h-.29v1.27h-.56v-1.39h-.58v1.49h-.53v-1.56h-.56v1.48h-.86v-1.39h-.43v1.54zm20.88-.44h-.89v2.37h6.87v-3.46h-.27v1.49h-.19v.94h-.43v-2.46h-.47v1.13h-1.85v-1.05h-.33v1.44h-1.05v-1.48h-.45v1.26h-.6v-1.24h-.43v1.08zm10.38.45h-.54v-.55h-.36v2.51h6.71v-3.59h-.35v1.64h-1v-1.65h-.79v1.32c-.17.44-.58.48-.78 0v-1.1h-.43v1.53h-.9v-1.5h-.35v1h-.63v-1.26h-.55v1.69zm10.81-.08h-.91v1.88h4.3v-3.43h-.26v1.65h-.65v-1h-.42l-.32.54v-1.13h-.44v1.29h-.82l-.06-1.27h-.41v1.55zm6.62-1.55v3.29h4.46v-1.84h-1.22v-1.49h-.58v1.45h-.82v-1.41h-.44v1.53h-.87v-1.53h-.5zm7.92 1.19v2.11h1.32v-1.02l-.55-.32-.05-.61-.74-.12zm-43.78.37h-.66v-1.32h-.45v1.33h-.71v-1.27h-.45v1.28h-.78v-1.25h-.41v1.14h-.61v-1.08h-.44v3.15h8.1v-1.79h-.37v-.88l-.33.11v.76l-1-.27v-1.17h-.42v1.29l-.82-.07v-1.34h-.58v1.35z"/><path class="cls-1" d="M145.9.5l7.44.17 7.43.6 7.26.94 7.18 1.29 7 1.54 6.91 2 6.74 2.23 6.58 2.68 6.48 2.83 6.22 3.26 6.14 3.52 5.88 3.77 5.71 4 5.45 4.29 5.34 4.46 5 4.8 4.87 5.07 4.49 5.23 4.32 5.4 4.06 5.66 3.8 5.83 3.54 6.09 3.29 6.18 2.85 6.43 2.68 6.52 2.25 6.78 2 6.78 1.56 7 1.3 7 1 7.29.52 7.29.17 7.46-.17 7.29-.53 7.47-1 7.21-1.3 7.12-1.55 6.97-2 6.86-2.25 6.69-2.68 6.52-2.85 6.35-3.29 6.26-3.54 6.09-3.8 5.83-4.06 5.66-4.32 5.41-4.49 5.33-4.87 5-5 4.8-5.36 4.55-5.45 4.29-5.71 4-5.88 3.77-6.14 3.43-6.2 3.16-6.48 2.92-6.57 2.66-6.74 2.23-6.91 2-7 1.63-7.18 1.2-7.26.94-7.43.52-7.44.26-7.43-.26-7.35-.52-7.26-.94-7.17-1.2-7-1.63-6.92-2-6.74-2.23-6.66-2.66-6.41-2.92-6.22-3.17-6.09-3.43-6-3.77-5.62-4-5.62-4.29-5.19-4.55-5.1-4.8-4.76-5-4.67-5.32-4.32-5.41-4.06-5.66-3.8-5.83-3.46-6.09-3.2-6.26-2.94-6.35-2.59-6.52L7 187.81l-1.83-6.86-1.64-7-1.29-7.12-1-7.21-.52-7.38-.22-7.29.26-7.46.52-7.29 1-7.29 1.29-7 1.64-7 1.9-6.78 2.33-6.78 2.59-6.52 2.94-6.43 3.2-6.18 3.46-6.09 3.8-5.83 4.06-5.66 4.32-5.4 4.64-5.29 4.76-5.06 5.1-4.8 5.19-4.46 5.62-4.29 5.62-4 6-3.77 6.05-3.52 6.22-3.26 6.36-2.84 6.66-2.66 6.74-2.23 6.92-2 7-1.54 7.17-1.29 7.26-.94 7.35-.6 7.43-.17zm138.16 144.45l-.16 7-.49 7-.9 6.87-1.23 6.79-1.48 6.62-1.89 6.54-2.13 6.38-2.55 6.22-2.71 6.05-3.12 6-3.37 5.81-3.62 5.56-3.86 5.4-4.11 5.15-4.27 5.07-4.6 4.74-4.76 4.58-5.15 4.33-5.17 4.09-5.38 3.8-5.58 3.6-5.87 3.31-5.91 3-6.09 2.81-6.24 2.54-6.41 2.13-6.57 1.88-6.65 1.55-6.86 1.18-6.9.9-7.06.49-7.06.24-7.06-.24-7-.49-6.9-.9-6.82-1.14-6.65-1.55-6.57-1.88-6.41-2.13-6.33-2.54-6.08-2.78-5.92-3-5.75-3.27-5.64-3.71-5.34-3.84-5.34-4.09-4.93-4.33-4.85-4.58-4.52-4.74-4.44-5.07-4.11-5.15-3.86-5.4-3.62-5.56-3.29-5.81-3-6-2.82-6-2.46-6.22-2.22-6.38-1.81-6.54-1.51-6.62-1.23-6.79-.94-6.88-.49-7-.25-7 .25-7.12.49-7 .9-7 1.27-6.58 1.56-6.71 1.81-6.46 2.22-6.46 2.41-6.22 2.79-6.13 3-5.89 3.29-5.81 3.62-5.56 3.86-5.4 4.11-5.15 4.44-5 4.52-4.83 4.85-4.58 4.93-4.25 5.34-4.09 5.34-3.84 5.67-3.6 5.77-3.32 5.92-3.11 6.08-2.7 6.33-2.54 6.41-2.13 6.57-1.88 6.65-1.47 6.82-1.23 6.9-.9 7-.57 7.06-.16 7.06.16 7.04.53 6.9.9 6.82 1.23 6.65 1.47 6.57 1.88 6.41 2.13 6.28 2.56 6.16 2.7 5.84 3.13 5.83 3.35 5.58 3.6 5.42 3.84 5.17 4.07 5.09 4.25 4.76 4.58 4.6 4.83 4.27 5 4.11 5.15 3.86 5.4 3.62 5.56 3.37 5.81 3.12 5.89 2.71 6.13 2.55 6.22 2.13 6.46 1.89 6.46 1.48 6.71 1.23 6.71.9 7 .49 7z"/><path class="cls-2" d="M145.56 242.34l-5-.17-4.92-.34-4.9-.64-4.81-.81-4.73-1.1-4.61-1.33-4.52-1.5-4.49-1.8-4.3-2-4.18-2.14-4.06-2.31-4-2.54-3.82-2.71-3.83-2.94-3.43-3-3.42-3.23-3.2-3.36-3.13-3.58-2.91-3.64-2.74-3.85-2.56-3.93-2.34-4.13-2.15-4.22-2-4.27-1.75-4.41-1.57-4.5-1.29-4.66-1.1-4.67-.88-4.81-.64-4.86-.35-5-.13-4.94.17-5 .35-4.9.64-4.93.87-4.75 1.1-4.74 1.27-4.57 1.57-4.59 1.74-4.4 2-4.34 2.15-4.18 2.32-4.1 2.57-4 2.73-3.82 2.91-3.65 3.14-3.54 3.17-3.39 3.44-3.26 3.48-3 3.77-2.84 3.76-2.71 4-2.56L99 59.31l4.18-2.2 4.32-1.92 4.46-1.79 4.55-1.51 4.64-1.33 4.73-1 4.81-.87 4.88-.64 4.94-.41 5-.12 5 .11 5 .4 4.88.63 4.82.87 4.7 1 4.67 1.33 4.52 1.5 4.44 1.8 4.43 1.94 4.12 2.17 4.11 2.36 4 2.55 3.83 2.72 3.67 2.9 3.66 3.06 3.3 3.17 3.25 3.41 3 3.54 2.89 3.63 2.74 3.82 2.56 3.93 2.39 4.11 2.25 4.25 1.89 4.28 1.83 4.47 1.49 4.5 1.36 4.65 1 4.67.87 4.73.68 4.93.35 4.93.12 5-.11 4.91-.35 5-.64 4.88-.87 4.8-1 4.68-1.34 4.65-1.5 4.5-1.86 4.44-1.91 4.26-2.22 4.24-2.38 4.1-2.56 3.94-2.73 3.82-2.91 3.65-3.07 3.64-3.22 3.33-3.32 3.23-3.62 3.08-3.65 2.92-3.84 2.73-3.95 2.54-4.14 2.33-4.17 2.14-4.36 2-4.4 1.79-4.55 1.47-4.64 1.33-4.71 1.1-4.84.82-4.86.63-5 .35-5 .18zm-60.23-24.61l3.68 2.82 3.69 2.65 3.88 2.46 3.94 2.24 4.06 2.08 4.17 1.91 4.34 1.74 4.38 1.45 4.52 1.29 4.56 1.06 4.66.78 4.75.62 4.78.33 4.82.17 4.87-.17 4.87-.34 4.72-.62 4.7-.79 4.54-1.06 4.51-1.29 4.41-1.46 4.26-1.73 4.22-1.92 4.05-2.08 4-2.25 3.81-2.46 3.72-2.64 3.54-2.8 3.51-3 3.25-3.13 3.13-3.23 2.94-3.49 2.84-3.56 2.64-3.7 2.48-3.82 2.31-4 2.14-4.11 1.85-4.14 1.76-4.29 1.45-4.35 1.3-4.5 1-4.53.85-4.67.62-4.72.34-4.81.11-4.78-.11-4.89-.34-4.77-.62-4.76-.85-4.6-1-4.57-1.3-4.45-1.46-4.4-1.75-4.28-1.83-4.22-2.15-4-2.32-4-2.48-3.81-2.65-3.71-2.78-3.54-3-3.44-3.15-3.3-3.23-3.11-3.51-2.93-3.57-2.82-3.72-2.63-3.82-2.48-4-2.3-4-2.11-4.27-1.82-4.31-1.75-4.42-1.49-4.52-1.29-4.55-1-4.69-.84-4.69-.63-4.85-.39-4.84-.11-4.85.11-4.78.39-4.74.62-4.68.84-4.58 1-4.49 1.29-4.41 1.46-4.33 1.79-4.18 1.86-4 2.12-3.95 2.3-3.87 2.46-3.65 2.63-3.72 2.83-3.37 2.91-3.33 3.15-3.08 3.3-3.06 3.44-2.79 3.53-2.64 3.7L64.54 96l-2.24 4-2.09 4.05-1.91 4.21-1.69 4.26-1.55 4.43-1.23 4.42-1.07 4.58-.85 4.61-.62 4.77-.33 4.76-.16 4.86.17 4.79.34 4.85.62 4.7.85 4.66 1.07 4.54 1.24 4.46 1.52 4.35 1.69 4.27 1.91 4.14 2.09 4.11 2.26 4 2.47 3.8 2.63 3.75 2.81 3.53 3 3.48 3.1 3.26 3.32 3.14 3.36 3zM150.59 32.74l3.27.08-.52-13.81-2.75 13.73zm-31.68-13.73l2 10.32c3.42-.76 3.39-2.31 2.57-5.9s-1.16-5.28-4.58-4.42zM64.75 247.55l-3-2.22 16.31-18.53-4.27-3.68 2.35-2.57 7.06 6.3-18.45 20.7zm-9.39-8l-6.77-6.82 2.34-2.19 4.22 4.13 6-6.33-3.35-3.06 2.33-2.1 3.25 3.16 7.11-6.86-4.21-4.11 2.22-2.1 6.55 6.6-19.69 19.69zm-2.57-21.69l-8.37 10.6-2.08-2.67 4.87-6.26-7.3 2.7-2.16-2.67 12.58-4.55 9.8-12.51 2.25 2.87-6.61 7.78 9.41-3.47 2.36 2.76-14.75 5.44zm6.39-17.28l-24.46 14.6-1.9-3.23 24.36-14.2 2 2.85zm-28.25 8.62l-1.45-2.77 12.58-10.48-14.4 7-1.32-3 25.57-12.3 1.18 2.67-12.31 10.43 14.35-6.59 1.53 2.86-25.73 12.2zm0-26.52l1.37 2.87-5.82 2.49c-1.5.64-1.89 1.95-1.43 2.73 1 1.7 3.06.67 3.33.56l15.64-6.38c2-.81 2.8-1.65 2.25-2.87-.91-2-2.27-1-4.23-.36l-4.38 1.83 1 2.4-3 1.12-2.27-5.58 7.31-3c5.24-2.13 7.56-.3 8.53 1.93s1.45 5.5-3.73 7.67l-15.84 6.37c-3.88 1.53-6.55-.62-7.18-1.93s-2.08-5.08 2.9-7.55l5.54-2.28zm-8.65-3.41l.9 3.81-3.15.94-3.21-11.44 3.06-.83 1.08 3.72 24.6-6.37 1.22 3.6-24.51 6.57zm1-11.33c-5 .86-7.79-.23-8.26-4.22s2.19-5.63 5.54-6l15.91-1.93c4.36-.57 7.06-.11 7.53 4.35s-2.28 5.4-5.81 5.85l-14.92 1.96zm-9-12.43l-.12-3.25 16.71-4.78-17.09.76-.21-3.25 29.09-1.04-.08 3.25-16.13 4.46 16.71-.54v3.15l-28.89 1.23zm3.7-45.08l2.83-9.06 3.16.89-1.73 5.69 9 3 1.29-4.14 2.88.78-1.29 4.23 13 4.41-1.13 3.49-28-9.34zm5.43-15.3l1.93-4.29 28.55 8.42-1.3 3.31-7.67-2.53-1.46 3.26 6.8 4.08-1.3 3.32-25.55-15.57zm20.55-5.92l-15.69-5.26 1.74-3.23 11 4.08-8-8.56 1.83-2.79 11.3 12.7 10.85 7.56-1.92 2.7-11.11-7.2zm-3.65 12.53l1.35-2.66-12.59-4 11.22 6.7zM22.5 164.61l14.77-1.91c1.29-.25 3.84-.08 3.54-2.21s-2.43-1.36-3.89-1.29l-14.9 1.86c-2.44.31-4 .22-3.9 2.16s2.31 1.66 4.38 1.38zm13.39-93l5.46-7.57 2.71 1.91-3.4 4.75 7.62 5.62 2.93-3.89 2.62 1.92-2.94 3.89 8.23 6.05 3.64-4.86 2.79 2.18-5.72 7.65-24-17.69zm12-10.71l-2.68 3-2.71-2.36 8.16-9 2.49 2.41-2.86 3 19.44 17.88-2.53 2.88-19.35-17.85zm9.78-10l-2.86 2.6-2.75-2.65 9.12-7.9 2.48 2.52-3 2.87 17.11 20.12-3 2.53-17.11-20.12zm6.29-9.95l7.64-5.66 2.19 2.79-4.77 3.56 5.72 7.62 4.06-2.77 1.86 2.77-4.15 2.77 6.15 8.49 4.76-3.3 2 2.62-8.08 5.57-17.38-24.46zm36.08-20.1l3.4-1 7.14 23.88c.31 1 1 2.26 2.33 1.72s1.41-1.39.93-3.11l-6.88-23.51 3.32-.87 6.89 23.68a5.35 5.35 0 0 1-3.11 6.87 5.44 5.44 0 0 1-7-3.57l-7.05-24.13zm14.62-4.1l5.33-1.05c5.45 0 5.89 2.07 6.75 6.86s.62 7-1.08 8.16l6.32 13.45-3.75.79-5.45-12.7-1.31.32 2.19 12.89-3.58.79-5.42-29.51zm17-3l5.14-.26c4.56.14 5 3.2 5.55 7.82-.33 2.94.77 5.53-2.5 6.95 2.71.77 3.62 1.32 3.82 7.11s-.92 7.84-4.66 8.25l-5.58.26-1.77-30.1zm19.78-.1l4.64.44 1.19 30.47-3.49-.26.18-8.19-3.87-.25-1.48 7.84-3.84-.26 6.66-29.79zm14.69 1.37l2.88.7.5 17.62 4-16.42 3.14.61-6.84 29.82-3-.78-.32-18.68-4 17.56-3.14-.7 6.7-29.7zm41.52 35l-4 6.17c-4.09 6.16-12.15.34-9.41-4.78l10.42-17.73c2.1-3.05 5-3.16 7.2-1.84 1.67 1 3.31 3.71 1.67 7.23l-3.15 5.34-2.72-1.67 2.82-5c1.73-2.79-1.05-4.83-2.83-2-3.54 5.8-6.59 11.33-10.13 17.13a1.86 1.86 0 0 0 .51 2.67 2 2 0 0 0 2.5-1l3.94-6.29 3.19 1.78zm9-8.89c2.25-2.77 5.32-3.12 7.79-1.36 3.47 2.46 2.65 4.68 1.07 7.9l-12.16 16.36c-1.94 1.15-4.45 2.34-7.39-.18-2.53-2-3-3.58-.58-7.08l11.28-15.63zm6 1.12c-1-.33-2.46.1-3.78 1.9-3.34 4.56-9.13 12.64-10.77 14.85-1 1.39-.58 2 .2 2.7s1.26.74 2.1.35l2.17-2.43c3.51-4.76 6.87-9.62 10.38-14.38a2.12 2.12 0 0 0-.29-3zm9.29 4.41l2.58 2.29-17.17 18.15c-1.82 1.86.5 4.07 2.41 2.58l17.63-18.32 2.31 2.44-17.04 17.81c-6.92 5.83-12.73-2.55-8-7l17.18-17.94zm11 9.93l2.27 2.11-9.79 13.87 12.41-10.51 2.18 2.58-22.84 19.54-2-2.15 9.83-14-12.5 10.42-2.23-2.36 22.59-19.48zm8.34 15.36l-2.21-3.1 2.69-1.9 6.72 9.56-2.54 2-2.45-3.38-21.83 15.42-2-2.82 21.62-15.78zM246.4 90.3l13.2-12 1.54 2.94-9.08 8.25 11.65-3 1.73 3.08-16.95 3.81-11.77 6.21-1.73-3 11.41-6.25zm18.26 36.65l-.47-3.46 6.48-1.33c2-.4 2.34-1.37 2.13-2.39-.38-1.48-1.13-1.87-4.09-1.14l-5.29 1.09-11.85 2.41c-3.84.78-3.24 4.42.72 3.57l5.83-1-.3-2.41 3.27-.55.78 5.83-6.73 1.33c-5.09 1.08-8.95.07-9.38-4.08a5.53 5.53 0 0 1 5-6.1l17.84-3.61c3.15-.29 6 0 7.17 3.58.45 3.21-.26 5-4.21 6.81l-6.9 1.45zm9.26 7c-.09-.9-.94-1.74-3.33-1.22l-17.2 2.24c-2.59.34-3 1.25-2.89 2.21s.63 1.56 3 1.39l17.75-2.24c1.8-.18 2.76-1.48 2.67-2.37zm-3.41-4.79c2.93-.24 6.12.8 6.46 4.16s-1.64 5.51-5.33 6.35l-17.92 2.28c-2.5.32-5.92-.62-6.38-4.37s1.7-5.52 5.67-6.05l17.47-2.36zm7.63 11.38l.13 3.56-20.23 2.85 20 2.51v3.55l-29.85-4.12.23-4 29.61-4.26zm-.92 14.42l-1.14 9.34-3.25-.35.68-5.72-9.19-.92-.8 4.68-3.5-.27.68-4.86-9.79-1-.91 5.67-3.31-.23 1.21-9.45 29.32 3.09zm-1.63 13.67l-.9 4.72c-.47 4.14-4.24 5.18-9.66 3.9s-5.72-2.89-6.13-3.58l-14.65.54.69-3.44 13.53-.48.2-1.43-12.62-2.51.61-3.4 28.88 5.74zm-3.85 3.07l-9.87-2.07-.2 1.63c.09 1.27-.05 2 4.07 2.82s5.47.33 5.75-1.12l.26-1.26zM136.27 30.2l.53 10.39c4.34 0 3.24-1.1 3.62-4.76-.61-5.64-.58-6.06-4.14-5.63zm-.79-13.37l.53 10.05c3.45-.41 3.39-1.29 3.27-5.64s-1.54-4.58-3.8-4.41zm136.18 167.94l-1.27 3.07-16.36-1.64 15.07 5.31-1.24 3.13-27.62-9.57 1-2.67 18.42 1.55-17-5.53 1.21-3.13 27.79 9.48zm-5.75 14.83l-2.16 4.13-13.7-4.5 11.63 8.48-1.94 3.71-26.36-12.92 1.78-2.89 16.62 8.42-15.27-11.08.31-.5 19 5.74-17.59-8.67 1.54-2.81 26.19 12.92zm-8.79 16.35l-5.24 7.85-2.9-2.07 3.15-4.56-7.58-5.12-3.07 4-2.5-1.68 2.83-4.08-8.15-5.41-3.54 4.8-2.67-2 5.49-7.64 24.18 15.91zm-9.1 12.32l-2.26 2.41-14.16-7.13 11.62 10.11-2.24 2.49-21.87-18.85 2-2.1 15.28 7.75-12.65-10.81 2.42-2.48 21.86 18.61zm-15.53 11.15l3-2.42 2.25 2.34-9.17 7.61-2.17-2.58 3.1-2.57-16.72-18.85 2.76-2.47 17 19zm-42.41 15.81l-10.34-13.28 3.29-1.43 6.45 8.58-1.65-10.61 3.21-1.16 2.54 16.6 4.78 11.1-3.12 1.52-5.16-11.37zm-14.51-1.6l.34-10.43 3.13-1-.1 13.29 9.72 13.34-3.88 1.26-7-10.47 3.53 11.46-3.74 1.19-8.52-27.08 3.46-1 3.14 9.44zm-3.29 7.38l1.22 6.17c.58 2.91-1.24 6.18-3.57 6.51s-5.66.19-6.68-4.46l-2.95-15.48c-.92-3.56 0-7.3 3.07-7.82 2.16-.36 4.88-.57 6.65 5.15l1 4.46-3.28.54-.87-4.13c-.7-3.17-1.21-3.34-2.46-3.12-1.89.33-.93 1.44-.82 3.51l3.29 16.83c.38 1.35 1.19 1.83 2.15 1.49s1.41-1 1.07-2.63l-1.17-6.2 3.33-.79zm-24.62-12.71l3.43-.27 1.72 21.05c.17 2.77.43 4.19 2.13 3.82s1.06-1.53 1.23-4.27l-1.81-20.78 3.43-.36 1.87 20.68c.69 4.08-.39 7.18-4.3 7.88s-6.09-3.12-6.2-6.52l-1.5-21.23zm-9.42 3.21l-3.9-.63.17-3.07 11.69.41-.08 3.35h-4.09l-1.18 24.69-3.79-.17 1.18-24.6zm-14.93-5.75l2.9.52 1.45 15.79 2.66-15.12 3.17.52-4.43 28-3.26-.62-1.32-16.24-2.76 15.34-3.17-.52 4.79-27.7zm-9.53-2.7l8.65 2.58-.68 2.95-5.76-1.56-2.1 8.75 4.56 1.32-.75 3.11-4.81-1.32-2.59 8.88 5.62 1.81-.75 3-9.15-2.82 7.76-26.74zm-13.22 11.54l-1.2 12.58 3.52 1.58 1.31-16 9.11-10-3.27-1.26-7.21 7.68 3.95-9.12-3.67-1.51-10.87 25.4 3.52 1.51 4.84-10.9z"/><path class="cls-2" d="M150.12 219.21c-3.93-.48-5.17-4.88-1.85-9.66 2.38-3.13 5.55-4.77 7.79-8-3.09 1.77-4.57 2.59-8.79 1.61-.7-.68-1-.27-2-.49l3.21-3.33c1.21 1.38 4 2.38 9.12.1-.06 3.17-4 5.9-6.19 9.3s-2 7.37 1.48 6.7l-2.75 3.75zM136.41 218.56c-3.93-.48-4.89-4.45-1.78-9.3 2.6-3 6.05-4.34 8.29-7.54-3.09 1.77-4 2.09-8.21 1.11-.84-1-1.51-.34-2.46-.78l3.21-3.33c1.21 1.38 4.25 2.95 9.4.67-.06 3.17-4.83 6.11-7 9.51s-2.12 6.94 1.33 6.27l-2.82 3.39zM160.2 202.95l-.07 5.66 2.91-1 2.55-1.78c1.81 1.62 2.18 2.7 4 .88a3.42 3.42 0 0 1-1.58 2.87v6.82l.58.75c-3-.34-4.52.08-6.74 1.86-1.93-1.69-3.37-1.7-5-.19.45-4.37 5.27-4.52 7.28-2.39l.91-.26v-7a3.23 3.23 0 0 1-1.75-1l-1.85.79-1.6.66c-.22 1.88-2.85.13-.8-.58v-9.29l10.33-.07-.89 1.93-.82 1.4-7.45-.05zM130.46 215.02c-1 .5-2.24 2.38-3.29 3.72-2.69-2.59-3.23-1.9-5.71-1.43.1-1.78.62-2.2 3.12-3v-12c-.13-1-2.06-.83-2.49-1.33a11.86 11.86 0 0 0 3.95-2.37l1.59 1.85.03 13.49c0 1 .95 1.3 2.78 1.12z"/><path class="cls-1" d="M146.89 97.75l41.66 17.14.04 2.94h-.66l-.01-2.41-41.15-16.88-41.28 17.44-.04 1.81-.9.01.06-2.08 42.28-17.97z"/><path class="cls-1" d="M184.66 116.75l-38.37-15.73-37.57 16.24h75.94v-.5zm-4.07-.1h-67.81v-.46l33.51-14.46 34.37 13.93z"/><path class="cls-2" d="M101.03 138.04v-9.68h4.36v9.71h-4.34zm.17-.17h4v-9.37h-4v9.34zM187.45 138.13v-10.18h4.36v10.2h-4.34zm.21-.18h4v-9.85h-4v9.85z"/><path class="cls-1" d="M108.35 117.94h2.23v3.57h-2.23v-3.57zM116.19 118.07h2.23v3.57h-2.23v-3.57zM123.56 118.06h2.73v3.57h-2.73v-3.57zM133.2 118.13h2.39v3.57h-2.39v-3.57zM144.92 118.09h2.39v3.57h-2.39v-3.57zM155.57 118.17h2.33v3.47h-2.33v-3.47zM165.7 118.12h2.82v3.46h-2.82v-3.46zM174.17 118.12h1.95v3.36h-1.95v-3.36zM181.67 118.13h2.22v3.37h-2.22v-3.37zM107.71 122.11l77.36-.08-.01.87-77.34.08-.01-.87zM178.23 124.73h5.94v.92h-5.94v-.92zM165.5 124.88h5.94v.91h-5.94v-.91zM153.82 124.91h5.95v.92h-5.95v-.92zM132.42 124.91h5.95v.92h-5.95v-.92zM120.72 124.94h5.94v.92h-5.94v-.92zM107.88 124.88h5.94v.91h-5.94v-.91zM106.94 158.97l8.45.04v.92l-8.45-.05v-.91zM119.39 159.09h9.39v.91h-9.39v-.91zM131.84 159.25H140v.91h-8.16v-.91zM153.48 159.17h7.7v.91h-7.7v-.91zM164.16 159.25h8.64v.91h-8.64v-.91zM176.76 159.17h9.49v.91h-9.49v-.91zM121.66 128.26c1.33-.81 1.89-1 3.28-.22l2.29 30.53h-7l1.43-30.31zM108.75 127.53h.42l.05.78c1.68-.15 1.6-1.62 2.8-.41l1.91 30.54-6.32-.18 1.13-30.76zM133.66 128.53c1.38-1.37 2.87-1.33 3.89 0l1.83 30.16h-6.17l.45-30.16zM154.93 127.88a2.63 2.63 0 0 1 3.28.29l1.82 30.44h-6.88l1.77-30.77zM166.5 126.56l.35.12v1.28a2.52 2.52 0 0 1 3.13 0l1.51 30.72h-6.59l1.63-32.12zM179.28 128.17a2.88 2.88 0 0 1 3.73.21l1.88 30.15h-7.33l.89-15.43.83-14.89z"/><path class="cls-2" d="M143.46 138.34v-10h5.06v10h-5.06zm.17-.17h4.73v-9.64h-4.7v9.64zm-28.77.06v-10h5v10h-5zm.17-.17h4.63v-9.69h-4.65v9.69zm12.94 0v-9.68h3.9v9.68h-3.9zm.17-.17h3.52v-9.34h-3.56v9.34zM160.87 138.52v-9.93h3.63v9.93h-3.63zm.11-.11h3.4v-9.7h-3.4v9.7zm12.58 0v-9.93h3.63v9.93h-3.63zm3.52-.11v-9.7h-3.42v9.7h3.4z"/><path class="cls-1" d="M100.35 160.72h22.79v17.63h-22.79v-17.63zM169.5 161.11h23.76v17.52H169.5v-17.52zM125.04 160.83h42.72v.81h-42.72v-.81zM126.29 162.66h40.22v.81h-40.22v-.81zM127.27 164.49h38.26v.81h-38.26v-.81zM128.54 166.31h35.71v.82h-35.71v-.82zM129.7 168.14h33.4v.81h-33.4v-.81zM130.83 169.97h31.14v.81h-31.14v-.81zM131.84 171.8h29.12v.81h-29.12v-.81zM133.12 173.63h26.56v.81h-26.56v-.81zM134.13 175.46h24.54v.81h-24.54v-.81zM135.46 177.29h21.88v.81h-21.88v-.81zM154.57 58c-.73-2.35 1.39-4.12 3.85-2a53.17 53.17 0 0 1 3.46 4.37 21.84 21.84 0 0 1 2.63 7.62c1 7.87-.88 10.7-2.69 14.77-2.11 5.17-9.4 9.82-16.34 9.46-8.44-.43-15.11-10.31-16.39-16.38a22.59 22.59 0 0 1 .23-10.36 21.38 21.38 0 0 1 4.22-8.06 12.51 12.51 0 0 1 2.26-2.25c2.56-1.42 3.95.67 3.43 2.68 1.41 1.06-.39 2.65-1.12 3.82a19 19 0 0 0-2.34 6.34c-.63 4.27 1.36 10.29 2.44 12.11 1.36 2.3 5.05 4.93 8.46 4.92 6 0 9.55-6.18 10.66-9.16 1.48-6.08 0-10.67-2.17-14.67-.3-.56-2.17-2.73-.58-3.26zm4.46 5.95a16.11 16.11 0 0 1 1.39 4.66l1.62-.13a9.25 9.25 0 0 0-1.58-5.18l-1.44.65zm1.63 7.68a31.83 31.83 0 0 1-1.13 5.92l1.84.47a17.9 17.9 0 0 0 1-6.2l-1.71-.19zm-2.34 8.91l-3.42 4.58c-.47.53-.2.77.18 1.07s.6.41 1 0l2.95-3.69c1-.83.58-1.56-.7-2zm-25.44.87a18.68 18.68 0 0 0 3.54 4.59l1.78-1.23a16.05 16.05 0 0 1-3.6-4.57l-1.72 1.2zm20.78 8.54c4.29-2 7.44-6 9.5-11.46a25 25 0 0 0 .92-10.21c-.63-4.6-2.23-7.64-5.89-12-1.93-1.42-3.87-.4-3.17 1.95a3.13 3.13 0 0 0 1.26 1.93 1.73 1.73 0 0 0 2.16-.19 3.4 3.4 0 0 0 .5-2.28c1 1.31.17 4.27-1.39 4 1 2.45 4.69 12.5-2.92 21-4.77 5.26-12.37 4.26-16.77-.99-4-5.33-4.55-15.44-1-20.5-2.45.3-3.26-2-2.63-2.71.07 1 2 2.18 2.89 1.28a5.11 5.11 0 0 0 1.44-1.8c.7-2.23-.17-3.08-1.86-2.61-1.09.3-2 1.48-3.35 3.14-5.8 8.07-4.69 17.5-.77 24.33 2.69 3.46 4.75 5.63 7 7 .06-1.79 1-1.62 2.25-1.46a34 34 0 0 0 9.53 0c1.36-.28 2.46-.13 2.29 1.58zm-21.42-27.3a25.74 25.74 0 0 0-.94 2.51 8.79 8.79 0 0 0-.64 2.79 3.41 3.41 0 0 0 2.39.53 35.58 35.58 0 0 0 1.7-5.08c-.1-.45-2.34-1.19-2.58-.79zm.64 8.87c.2 1.72.87 4.48.55 5.34-.25.68-1.52.53-2.09.38-.14-1.19-.59-1.73-.85-3.07 0-.24-.61-3.15.17-3.14h2a.87.87 0 0 1 .24.48z"/><path class="cls-1" d="M134.5 81.79l.46-.51c.4 1.08 1.71 2.18 2.52 3.16l-.62.4a24 24 0 0 1-2.35-3zM151.1 90.84a1.09 1.09 0 0 0 .29-.79c-.42-.74-.69-.71-1.37-.31-1.86 1.09-6.38.49-7.92-.37-.6-.34-1.21 0-1.28.88a13.09 13.09 0 0 0 5.38 1.35 10.6 10.6 0 0 0 4.9-.77zM132.48 63.62c.36 0 .7 0 .7.4-.41 1-.53 2.16-.92 2.89 0 0-.71-.25-.71-.24s1-3.06.93-3.05z"/><path class="cls-1" d="M133.8 63.95c-.33.16-1 3.21-1.14 3.63a4.5 4.5 0 0 1-.93-.15 2.87 2.87 0 0 0-.22.67 2.42 2.42 0 0 0 1.1.24 1.11 1.11 0 0 0 .39-.11l.78-1.94c.1-.25.61-1.83.66-2.09a.58.58 0 0 0-.64-.25zM130.94 72.32a8.58 8.58 0 0 0 .38 3.2.6.6 0 0 0 .64 0 19.21 19.21 0 0 0-.49-3.12c-.09-.44-.48-1-.54-.11z"/><path class="cls-1" d="M131.98 71.87a9.6 9.6 0 0 0 .17 2.28c.22 1.32.45 1.78.3 2a.9.9 0 0 0-.67.19 1.32 1.32 0 0 0 0 .68 1.59 1.59 0 0 0 1 0 .57.57 0 0 0 .36-.26 2.86 2.86 0 0 0 0-1 24 24 0 0 1-.38-3.26c0-.77-.15-.61-.8-.56zM159.78 64.64l.6-.24a6.56 6.56 0 0 1 1.11 3.68h-.75a10.48 10.48 0 0 0-1-3.46zM160.94 72.67l.63.08a21.43 21.43 0 0 1-.63 4.4l-.66-.2a39.43 39.43 0 0 0 .65-4.27zM158.22 81.69c.83.38.83.71.12 1.3l-2.49 2.96c-.28.27-.24.32-.49.05s-.33-.24 0-.62l2.84-3.66z"/><path class="cls-2" d="M176.96 178.06v-3.42h2.54v.58h-1.84v.73h1.71v.58h-1.71v.93h1.91v.58h-2.6zM180.15 178.06v-3.42h.67l1.4 2.28v-2.28h.64v3.42h-.69l-1.38-2.23v2.23h-.64zM183.6 178.06v-3.42h2.34v.58h-1.65v.81h1.43v.58h-1.43v1.45h-.69zM108.32 178.06h-.66v-2.47a2.26 2.26 0 0 1-.85.5v-.59a1.89 1.89 0 0 0 .56-.32 1.21 1.21 0 0 0 .41-.55h.53v3.43zM109.31 177.27l.63-.07a.46.46 0 0 0 .12.29.36.36 0 0 0 .26.09.42.42 0 0 0 .35-.19 1.59 1.59 0 0 0 .18-.77.78.78 0 0 1-.62.29.92.92 0 0 1-.7-.31 1.13 1.13 0 0 1-.29-.81 1.15 1.15 0 0 1 .31-.84 1.12 1.12 0 0 1 1.64.08 2.08 2.08 0 0 1 .33 1.32 2.1 2.1 0 0 1-.35 1.35 1.13 1.13 0 0 1-.9.42 1 1 0 0 1-.61-.17 1 1 0 0 1-.35-.68zm1.48-1.43a.75.75 0 0 0-.15-.49.43.43 0 0 0-.34-.17.38.38 0 0 0-.3.14.73.73 0 0 0-.12.47.74.74 0 0 0 .13.49.42.42 0 0 0 .64 0 .65.65 0 0 0 .14-.44zM114.17 175.48l-.63.07a.46.46 0 0 0-.12-.29.35.35 0 0 0-.25-.09.43.43 0 0 0-.35.19 1.57 1.57 0 0 0-.18.78.77.77 0 0 1 .61-.29.93.93 0 0 1 .7.31 1.13 1.13 0 0 1 .29.81 1.16 1.16 0 0 1-.31.84 1.12 1.12 0 0 1-1.64-.08 2.07 2.07 0 0 1-.33-1.32 2.11 2.11 0 0 1 .35-1.35 1.12 1.12 0 0 1 .9-.41 1 1 0 0 1 .64.22 1 1 0 0 1 .32.61zm-1.51 1.47a.75.75 0 0 0 .15.49.43.43 0 0 0 .34.17.38.38 0 0 0 .3-.14.72.72 0 0 0 .12-.47.75.75 0 0 0-.13-.49.42.42 0 0 0-.65 0 .64.64 0 0 0-.13.44zM115.89 178.06v-.69h-1.4v-.57l1.48-2.17h.55v2.17h.42v.58h-.42v.69h-.63zm0-1.26v-1.17l-.79 1.17h.79zM105.32 205.6h-.85a4.21 4.21 0 0 1-3.95-2.2 1 1 0 0 1 0-1.52 1.79 1.79 0 0 1 .42-.88c.61-.3.19-1.31.19-2.31a1.13 1.13 0 0 0 .57-1.27 2.32 2.32 0 0 1 .61-1.17.76.76 0 0 0 .06-.61c-.09-.25.37-1.12-.09-1.34a3.83 3.83 0 0 1-.3-2.15c.11-.85-.88-.87-.88-1.34-.28-.82-.39-1.75-.79-2 0-.14-.17-.55-.17-.78a1.51 1.51 0 0 0-.82-1.23c-1.46-.68-1-1.78-1.52-1.95-1.09-.28-.28-1.21-.66-1.25a1.3 1.3 0 0 1-.78-.87l-.13-1.15c.1-.82-1-.87-1-1.21a4 4 0 0 0-.56-1.83 1.82 1.82 0 0 0-1.49-.79l-.37-.25a2.44 2.44 0 0 1-.21-.94.92.92 0 0 0-.8-.68 1 1 0 0 1-.18-.72.91.91 0 0 0-1-.85 3.23 3.23 0 0 0-1.43-2.23 6.42 6.42 0 0 1-1.27-.79c0-.39-2-.82-2.29-1.61-.25-.12-.29-.44-.42-.44a1.31 1.31 0 0 1-.83-1 1.25 1.25 0 0 0-.91-.51c-.52-.13-1.33-.48-.75-.92a1.69 1.69 0 0 0 .92-1c.1-.22.22-.62.33-.85.43 0 .84-.72.74-1.66a1.66 1.66 0 0 1 .13-.77c.31-.14.13-1.65.56-1.8s.45-1.25.17-1.64c-.49 0-.48-.64-.48-.86 0-.76-.06-1.81-.09-2.55a1.48 1.48 0 0 0-.41-1.23 1 1 0 0 1-.7-.9 8.84 8.84 0 0 0 0-2.51c0-.07-.39-.72-.53-1 .08-.27-.3-.14-.25-.65a2.25 2.25 0 0 0-.87-1.52 1.61 1.61 0 0 1-.52-.23.93.93 0 0 0-.53-.39c0-.33-.33-.65-.33-1a2.56 2.56 0 0 0-.38-1.21 1.86 1.86 0 0 0-.54-.56c-.95.07-.71-.68-1.15-1.18a1.54 1.54 0 0 0-1.4-.5 1.59 1.59 0 0 1-1-.27c-.68-.34-.27-.76 0-.78a5.2 5.2 0 0 0 1-.17 2 2 0 0 1 1.24-.3c.56.08 1-.7 1.42-.7s.8-1.21 1.09-1.15a5.42 5.42 0 0 1 .75-.85c.4-.2.31-.75.95-.75a7 7 0 0 0 .7-.45c0-.13.08-.38.08-.51a.49.49 0 0 0 .09-.52c.52-.1.34-.82.71-1.15a3.53 3.53 0 0 0 .36-.87c-.06-.82.37-.33.57-.58.12-.08.36-.6.13-.62-.23-.39.23-1 .23-1.25l.18-.2c.34-.5-.22-1.62.28-1.69a.66.66 0 0 0 .22-.43c-.11-.52.81-.56.7-1.41a1 1 0 0 0-.54-1.12 2.51 2.51 0 0 1-.08-1.54c.15-.65-.27-1.32.28-1.86.62-.18.43-1.21.38-1.35a.63.63 0 0 0 0-.52c-.72-.62-.39.07-.39-.92.46-.46.17-1.13.76-1.36 0-1.47.73-.93-.58-2a2.16 2.16 0 0 1-.31-2c-.1-.74-1.21-.48-1.25-2.19-.47-.25-.56 0-.56-.82a7.07 7.07 0 0 1 .72-2 4.34 4.34 0 0 0 .23-1.11.72.72 0 0 0-.42-.66.81.81 0 0 1 .16-1.27 6.42 6.42 0 0 0 .73-.58.78.78 0 0 1 .64-1 .33.33 0 0 1 .49 0c0 .29.5.23.54 0 0-2 .29-1.7-1.44-2.29-.33 0-.7-.19-1-.19a1.1 1.1 0 0 0-.66-.47c-.52-.19-1.32.33-1.88.14a1.88 1.88 0 0 0-.89-.14c-.37.37-.46 1-1.08.89a.4.4 0 0 0-.61.19 1.91 1.91 0 0 1 0 .52.65.65 0 0 1-.28.42c-.76.15-.8.06-1.08.7a1.92 1.92 0 0 0-.56 1.17c-.56.42-.84.23-.85.61-1.07 0-.81 1.39-1 1.74a8.31 8.31 0 0 0-1.44.86c-.22.59-1.38.86-1.38 1.3a1.92 1.92 0 0 0-1.22 1.36c-1.74 0-2.44 1.43-2.44 3a1.49 1.49 0 0 0-1.69 1.55c-.06.15-.32 1.54-.32 1.65 0 .37-1.4 1.21-1.51 1.54s.09 1.36-.09 1.69v.19a.84.84 0 0 0-.42.75v.28a9.65 9.65 0 0 1-.37 1.17 4 4 0 0 0 0 1.83 3.21 3.21 0 0 1 0 2.2c-.26.07-.29 2.29.28 2.29a7.27 7.27 0 0 0 .75 1.29c.45 0 1.28 1.5 1.55 1.5a.55.55 0 0 1 .24.66 1.06 1.06 0 0 1-.95.39 9.59 9.59 0 0 0-2.38-.18 1.86 1.86 0 0 0-1.21 2.53c.21.64.87.25 1.31.54 0 0 .07.08.07.12a1.37 1.37 0 0 1 .1 1 3.07 3.07 0 0 0-.26 1.76 5.53 5.53 0 0 0 .49.74.38.38 0 0 1 0 .38 1.19 1.19 0 0 1-.16.23v.07a3.12 3.12 0 0 0 0 1.35 1.17 1.17 0 0 1-.18 1.07.86.86 0 0 0-.28.26 3.31 3.31 0 0 0-.39.44c-.08.18-.23.41-.29.61s-.15.72-.28 1.07a2.79 2.79 0 0 0 .15 1.89 6.89 6.89 0 0 1 .18 2.33 2.86 2.86 0 0 0-.15 1.18c.38.39.29 0 .26 1v.56a3 3 0 0 0 .12 1.82 1.41 1.41 0 0 1 .28 1.48s-.06.11-.08.16 0 .08 0 .1a11.06 11.06 0 0 0 0 1.3 2.09 2.09 0 0 0 0 .62.85.85 0 0 0 .38.43c.15.06.16.61.31.67a1.3 1.3 0 0 1 .58.55 1.34 1.34 0 0 1 .1.29 11.24 11.24 0 0 1 0 1.28l.23 2a.86.86 0 0 0 .33.77 1 1 0 0 1 .8 1.18 1 1 0 0 0 .4.51c.55 0 .86-.55 1.37.47a1.18 1.18 0 0 0 .81.8c.61.15.49 1.06.89 1.3a1.54 1.54 0 0 1 1.23.33c.51 1.33 2.55 2.29 3 2.63s-.35 1.14 0 1.59a1 1 0 0 1 .13.28 3.46 3.46 0 0 1-.25 1.35 3.65 3.65 0 0 0-.16.39 1.68 1.68 0 0 0 .43.75 1.5 1.5 0 0 1 0 .66 1 1 0 0 1-.06.2c0 .07-.08.16-.1.23a7.25 7.25 0 0 0-.08 1 3.89 3.89 0 0 0 0 .87 4.27 4.27 0 0 0 .44.63c.37.69 0 .4-.08.72v1.67a2.92 2.92 0 0 1 .37 1.09c.57.49-.74 1 .23 2 .44.46.27 1.87.4 2.48a1.49 1.49 0 0 0 .31.87c.2.1.39.24.59.33a.43.43 0 0 1 .12.16c.21.87.1 1.8.7 2.49a4.78 4.78 0 0 1 .38.49c.11.17 0 .61.06.79a1.09 1.09 0 0 0 .31.34 1.62 1.62 0 0 1 .24.44.9.9 0 0 0 .43.31.23.23 0 0 1 .12.18 2.08 2.08 0 0 0 .59 1.18c.47.24.17.89.62 1.17a1.53 1.53 0 0 0 .36.2 2.27 2.27 0 0 1 1.16.64 6.45 6.45 0 0 0 .44 1.33 3.67 3.67 0 0 0 1.67.43l.72.1c.29.31.49.37.29.51a1.15 1.15 0 0 0 .74 1l1.15.11c.51.56 2.51.56 3.34.56a1.32 1.32 0 0 1 .36 0c.08.08.23.16.31.25a.36.36 0 0 1 .1.07c1 .39 2.13-.13 3.1.16.7.21.56 1 1.15 1.33.85.43 2.55.15 2.95 1.08s1.07.63 1.83.87c.41.13.83.29 1.24.46 2.95 1.17 5.98-.44 3.39-.44zm-37.15-73.17l-.66-.61a1.27 1.27 0 0 1-.71-.66c0-1-.86-.87-.71-1.36 0-.24.28-.38.28-.61.19-.12 0-.27.07-.36a.64.64 0 0 0 .21-.53 1.26 1.26 0 0 1 0-1.17 4 4 0 0 0-.09-1.27 1 1 0 0 1 .75-1c.24-.17 1.38-.51.23-1.27v-.28l.09-.14c.28-.33 0-1 .14-1.41s-.14-1 .28-1.22a1.18 1.18 0 0 0 1.22-1.46 1.57 1.57 0 0 1 0-1.55 1.67 1.67 0 0 1 1.36-.52c.93.23.75-1 .75-2 .26-1.06.07-1 2.16-1.09 0-1.11.67-.78.67-1.15a1.13 1.13 0 0 0 1.07-1.34 3.75 3.75 0 0 0 1.71-.47 3.2 3.2 0 0 0 1.11-2.35c1.74-.35.7-1.36 1.55-2.21a16.53 16.53 0 0 1 1.5-1.13c.06 0 .13-.29.37-.55a.65.65 0 0 0 .23.36 2 2 0 0 0 .71-.05c.12 0 .52-.12 0-.63a2.19 2.19 0 0 1 .4.08c.42.06.12.43.33.52a1.2 1.2 0 0 0 .7 0c0-.52 1.69-.41 1.69-.28h.65a2.11 2.11 0 0 1 .33.09c.31.11.49.3.23.6a.29.29 0 0 1-.41.1c-1.47 0-.64.3-1 1.13a1.52 1.52 0 0 0-1 2 .67.67 0 0 1 .51.45.3.3 0 0 1 .07.11 1.39 1.39 0 0 1 0 .83l-.11.3-.08.17c-.1 0-.16.55-.32.64a.63.63 0 0 0 0 .22l-.08.16-.06.11V111.78c0 .23-.13.59-.16.9a.71.71 0 0 0 .11.57.22.22 0 0 0 .13 0c.76 0 .65.33.65 1.43 0 .83 1.15-.14.94 2.64-.05.24.71.51.88.71.69 1.17-.55 1.27-.55 2v.5a1.12 1.12 0 0 1 0 .12l-.05.17v.14a1.08 1.08 0 0 0 0 .47v.28a.16.16 0 0 0 0 .06.14.14 0 0 0 .12 0h.17l.15.08c.53 1.45-1.22 1.38-.62 2.85a3.25 3.25 0 0 1-.23 1.4 1.66 1.66 0 0 0 .53 1.38c.48.09 0 1.23-.53 1.58a2.81 2.81 0 0 0-.32.62 1.47 1.47 0 0 0 0 1.19.87.87 0 0 1-.25.65c-.47.47.26.94-.23 1.54a.86.86 0 0 0-1 1 1.5 1.5 0 0 1-.05.68 3.62 3.62 0 0 0-.93 1.51c-.37.83-.49.73-1 .68-.32 0 0 1.09-.48 1.08a1.71 1.71 0 0 0-.57.48 3 3 0 0 0-.85.93c-.12.66-1.43.79-1.76.88l-.52.14c-.57.16-1.23.36-1.77.47-.6.12-1.06.13-1.08-.13-.22-.48-.89-.47-.91-1.29s-.64-1.21-1-2a4.23 4.23 0 0 0-.79-.87c-1-.14-1.16-1.42-1.83-2-.94-.73-1.6-.92-1.58-1.67-.09 0-.28-.46-.37-.46s-.39.08-.39-.06zm6.41 38.81c-1.15-.8-1.7-1.33-1.76-1.73a.82.82 0 0 0-1-.82c-.89-.47-1.25-1.63-1.75-1.82-.61-.88-2.15-1.44-2.18-2.22-.06-1.38-1-.55-1-1.24a13.48 13.48 0 0 1 0-2.76c0-.22.06-1.13-.35-1.13 0-.31-.82-.79-.69-1.16a4.13 4.13 0 0 0-.19-1.51 7.9 7.9 0 0 1 .41-.75c0-.6-.42-1.19-.35-1.57a1 1 0 0 1-.31-1.26c.39-.46 0-.63.09-1.19-1.21-.56-.42-.86-.12-1.16 0-.31.51-2-.22-2-.05-.06-.08-.28 0-.31 1.17-1.17 0-.85.57-2-.09-.52.49-.73.32-1s-.3-1.25.21-1.25a.46.46 0 0 0 .38-.37c0-.65-.41-.7-.41-1.11a.3.3 0 0 1-.06-.47c.1-.1.66-.2.51-.45s0-.4.06-.62a1.45 1.45 0 0 0-.13-.69.37.37 0 0 1-.5-.16 3.2 3.2 0 0 1-.09-1.73 2.7 2.7 0 0 0 0-.72.77.77 0 0 0-.35-.54.68.68 0 0 1-.31-.53c-1.32-.16-1-.82-.38-1.22a3.13 3.13 0 0 1 1.51.21 2.89 2.89 0 0 0 1.54.35.9.9 0 0 0 .42-.56.32.32 0 0 1 0-.12v-.05a.39.39 0 0 1 .08-.1h.06l.16-.05h.43a.69.69 0 0 1 .18.11c.6 0 1.59 1.07 1.83 1.71a3.27 3.27 0 0 0 1.49 1.3 2.59 2.59 0 0 1 .71 1.68 4.58 4.58 0 0 0 1.19 2c.7.29.55.86 1.45 1.23.5-.15 1.56.38 2.09.38-.13 1.78 1.93.16 2.12 3.57 0 .72 1.38 1.07 1.82 1.57s.08 1.4.54 1.76a2 2 0 0 1 .5 2.42 1 1 0 0 0 .59 1.41c1 .38.88 3 .72 3.49-.52 1.79.44 1.15.44 1.7.41.66-.57 1.29-.57 1.88a1.44 1.44 0 0 0-.19.24 1.37 1.37 0 0 0-.12.24c-.33.9.39 1.87-.48 2.31 0 .27-.66 1.85-1.07 1.85-.07.26-.18.67-.6.53s-.16-1.19-.16-1.6a.53.53 0 0 0-.47-.09c-.47-.47.67-.38.85-.5v-.85c.43.1 1.61-1.45.25-1.45 0-.52-.23-.49-.69-.41a1.55 1.55 0 0 0-.88.57c-.94 0-.82.65-2.2.5-1 .46-.77 1.83-1.32 2a1.3 1.3 0 0 0-1.14.74c-.44 0-.25 2.37-.44 3a10.44 10.44 0 0 0 .07 3 1.63 1.63 0 0 0-1.11-.49zm25 31.8c.59 2.06-.49 1.18-.49 1.11a2.56 2.56 0 0 0-1.83-.72 1.59 1.59 0 0 1-.85-1 .53.53 0 0 0-.56-.33c-.89-.05-1.24-.65-2.29-.26a4.7 4.7 0 0 1-1.51.13 1.84 1.84 0 0 0-1.1-.59c-.19-.63-1.22-.66-1.54-.61a8 8 0 0 1-2-.3c-1.25-.2-.91-1-1.43-1.16-1.6 0-1.57-1-2.4-1.2-.79 0-.26-.75-.26-1s-.44.14-.39-.33a2.29 2.29 0 0 0-1.24-.52c0-.66-.35-.55-.49-1a2.58 2.58 0 0 0-1.07-1.12c.07-.34-.31-.21-.2-.51.11-.86-.22-1.45-1.24-2.39l-.3-1.66c-.2-.46-.78-.35-.84-.86-.08-.69-.59-1.84-.38-2.5a1.49 1.49 0 0 0-.57-1c-.61-.92.86-1.3.5-2.18a3.66 3.66 0 0 1-.52-1c-.33-.75.9-1.29.27-2a1.2 1.2 0 0 1-.57-1.05 2.72 2.72 0 0 1 .52-.38 1.05 1.05 0 0 0-.34-.75c-.17-.44.27-1.17-.13-1.57s-.69-.18-.69-.86c0-.42.64-1 .57-1.24a3 3 0 0 1-.55-1.44 3.63 3.63 0 0 1 .83-1.37 1.09 1.09 0 0 0 0-1l-.11-.22V169.83v-.21-.1-.14-.11-.19-.1s0-.22.05-.34a2.43 2.43 0 0 1 .48-.77c.31-.62-.18-1.31.47-1.75a3.91 3.91 0 0 0 1-.84 1.85 1.85 0 0 0 .42-.73c0-.91.62-.84 1.18-1 .26.05.68.09.73-.16a.66.66 0 0 1 .6-.44 2.27 2.27 0 0 1 .6 0c.5.56-.15.42-.15.8.16.19-1 1.07-1 1.5.08.79 1-.49.62 1.52.24.58.84.63.91 1a.9.9 0 0 0 .51.49c.95.32.79 0 1.05.76a1.06 1.06 0 0 0 1.18.78c.39.08.2.38.75.92.52.73 1 .52 1.3.8a5.17 5.17 0 0 0 1.51 1 2.57 2.57 0 0 1 1.41 1.77c.2.65 0 1.21.88 1.21 0 .2.1.56.1.82a2.22 2.22 0 0 1 .23.36c1 0 1.11.19 1.11 1.51.06.43.92.26 1.34.39.92.29.46 1.08.69 1.67s.82.59 1.11 1a1.18 1.18 0 0 1 .36.66c.36.6 0 1.23.16 1.47.13.34.59.32.88.82 0 .36-.1 1 .46 1 .26 0 0 .73.46.69.28.34.07.91.32 1 .27.3 1.43.35 1.67 1.08a12 12 0 0 0 1 3c.28.41.47 1.28.9 1.28.29.18 0 .67-.18.88l-.09.13a.38.38 0 0 0 0 .1 4.64 4.64 0 0 0 .19.71 1.27 1.27 0 0 1 .49 1c.22.68-.43.93-.66 1.38-.21.85.8 1.61-.46 1.61-1.13 0-.12 1.61-.16 1.93 0 .15-.42.48-.5.67.22 1.53-.26.63-.52 1.27a2 2 0 0 0-.23 1.1z"/><path class="cls-3" d="M99.85 203.64c-.1 0-.2-.1-.3-.1l-.1-.1c-.1-.1-.3-.4-.4-.5h-.1a13.8 13.8 0 0 0-2.08-2.08v-.1l-.6-.3-.1-.1a5.52 5.52 0 0 0-.89-1.68 5.3 5.3 0 0 1-.62-.73v-.3a6.79 6.79 0 0 1-.89-1.69h-.11a.45.45 0 0 0-.3-.3v-.1l-.39-.3c0-1-.4-2.18-.4-3-.77-.28-.35-.88-.79-1-.9-.7-.32-2-.89-2.58a1.75 1.75 0 0 1-.62-1.1c0-1.09.62-1.82.62-2.57.58 0 .52-2.22-.4-2.68"/><path class="cls-4" d="M79.73 168.15c0 1-.5 1.91-.5 3.27.1.4.1 1.19.2 1.59s1.23 1.29 1.23 1.68c.29 0 .37.87.4 1.09 0 .61 1.59 1.1 1.88 2.28a3.1 3.1 0 0 0 1.49 1.68c.69 0 1.19 1.59 1.19 2.08a3.09 3.09 0 0 1 .69.89c.3 0 .6.5.89.5a2.09 2.09 0 0 0 .6.4 12.49 12.49 0 0 0 1.09 1 2.25 2.25 0 0 0 .79 1 8.17 8.17 0 0 1 .5 2.18m-9.9-14.24a3 3 0 0 1 .24-2.13c.37 0 .3-.79.3-1"/><path class="cls-3" d="M80.2 174.49c.16.25.16.38.34.15l-.11-.29c-.06-.27-.12-.54-.16-.79"/><path class="cls-4" d="M77.84 170.43a11.12 11.12 0 0 0-.3 1.78c-.21.77.89.24 1.29 1.59.56 0 1 .69 1.37.69m5.37 6l-.14-.28c-.36-.65-.26-4.45-.93-5l-1.11-.79c0-.4.2-.79.2-1.19"/><path class="cls-3" d="M84.19 180.44c.54.17.47.63 1.29.91l.1-.31v-.59"/><path class="cls-4" d="M79.33 176.58a4.17 4.17 0 0 1 .79 1.19l.59 1.29c.42.42 1.88 1 1.88 1.19a4.09 4.09 0 0 0 1.59.2m-3.57.4c-.1 1 .6 1.15.5 2a8.33 8.33 0 0 0 1.79.69c0-.21.89-.89.89.4.46.46 1-.05 1.49.2v.1c1.18.79 1.24.13 2.18 1.39"/><path class="cls-3" d="M87.46 185.6c.6 0 .79 1 1.29 1s.48 1.19 1.83 1.85"/><path class="cls-4" d="M89.24 177.27c0 .5.32 2.28.79 2.28a.92.92 0 0 0 .69 1.19c0 .59-.2 1.09-.2 1.69"/><path class="cls-3" d="M94.51 194.64c.25.31.5.93.28 3.24"/><path class="cls-4" d="M94 186.79a1.41 1.41 0 0 0 .4 1.29c0 .81-.69 1.18-.69 2-.76.3-.14 1.74.79 2.08a1.57 1.57 0 0 1 .2.89c-.1 0-.4.2-.5.2-.2 1.1.06 1.1.31 1.41"/><path class="cls-3" d="M97.38 195.59a1.08 1.08 0 0 1-.21 1.31c0 .1.24 1.81 0 1.19.1 0-.28 2.12 0 2.91"/><path class="cls-4" d="M96.98 188.17c.29.34-.19.67.1 1.09 1.46.86 1.65 1.54.14 1.88 0 .5.16 1 .16 1.59l-.4.4c0 .27.69 1.52-.1 1.49 0 .2-.3.4-.3.59a.9.9 0 0 1 .8.38"/><path class="cls-3" d="M90.44 190.95c-.09.69 1.13.12 1.73 1.08"/><path class="cls-4" d="M81.91 187.88a2.41 2.41 0 0 1 1.6 0 5.19 5.19 0 0 1 1.15 1.38c.36-.07 1.49-.43 1.49.4.25.61 1.07-.26 1.29 0s.56.75.89.5a2.78 2.78 0 0 1 2.07.7"/><path class="cls-3" d="M92 195.8c.58 0 1.64 1.1 2.15 1.34"/><path class="cls-4" d="M85.18 191.45c0 1-.87 1.78.95 2.31.2 0 2.72-1.21 2.72.07a6.91 6.91 0 0 1 1.88.59A2.5 2.5 0 0 0 92 195.8"/><path class="cls-3" d="M92.19 197.59c1.19.3 1.95 1.51 3.33 1.51"/><path class="cls-4" d="M85.66 195.21c1 0 .7.69.3 1.09a2.66 2.66 0 0 0 .69 1.29.81.81 0 0 1 .5.5c.2 0 1.29.2 1.29-.3 1 0 .66-1 1.69 0 1.06-.4 1.22.16 2.05-.2"/><path class="cls-3" d="M73.58 165.67c1-.45 1.12 1.17 2.24 1.59"/><path class="cls-4" d="M69.22 163.1c1.07-.43 2.28-.66 2.28.79.62 0 .7.67 1.09.91l1 .88M70.45 142.04v-.09c0-.83-.07-1.69-.44-1.86a5.86 5.86 0 0 1-.89-.5c-.05-.73-.69-1.32-.69-1.79a5.68 5.68 0 0 0-.59-.79"/><path class="cls-3" d="M70.95 144.39a1 1 0 0 0-.34-.83 2.73 2.73 0 0 1-.16-1.53"/><path class="cls-4" d="M71.32 146.49a15.42 15.42 0 0 1-.23-1.67"/><path class="cls-3" d="M77.29 164.95c0-.3.1-2.09-.63-2.44a1.41 1.41 0 0 1-1.59-1.39 4.12 4.12 0 0 0-.4-1.49 2.25 2.25 0 0 1-.59-.59c0-.29.18-1.09-.3-1.09-.2-.3.16-1.1 0-1.4-.29 0-.21-1.15-.21-1.41-1-.65-.87-1.23-1.74-1.66-1-1.68.2-4.47-.39-6.39"/><path class="cls-4" d="M69.88 143.47a1.15 1.15 0 0 1-1.16-.89c-.43 0-.5-1.83-.5-2.18"/><path class="cls-3" d="M69.46 147.25c.3.5-.18 3.34 1.85 4.19"/><path class="cls-4" d="M69.32 145.35c.53.55.37.61.2.89l-.1.92"/><path class="cls-5" d="M73.38 149.32l-.29.14a11.81 11.81 0 0 0-.7 1.15 1.22 1.22 0 0 1-1 1.19"/><path class="cls-4" d="M74.48 144.46c.4.4 1.19 2.38.4 2.78a13.13 13.13 0 0 1-1.49 2.08"/><path class="cls-5" d="M76.16 154.18c-.62.23-.42 2.24-.69 3.39-.5.61.32 2 .4 2a3.29 3.29 0 0 1-.1 1.39l-.1.1-.1.1c-.1 0-.2.1-.3.1a.53.53 0 0 1-.2.3"/><path class="cls-4" d="M77.66 147.95c0 1.19-.4 2.48 0 3.57.11.55-.66 2.68-1.49 2.68"/><path class="cls-3" d="M78.34 159.73c-.76-.11-1.43.77-1.17 1.88a3.39 3.39 0 0 1-.12 1l-.2.2"/><path class="cls-4" d="M79.83 155.86c0 .5.22 1 .22 1.39a2.81 2.81 0 0 0-.71.69 5.74 5.74 0 0 0-.79.4c0 .2-.2 1-.2 1.39"/><path class="cls-3" d="M81.41 160.95c-.2 0-.49.2-.69.2a5.89 5.89 0 0 0-.25 1.4"/><path class="cls-4" d="M83.03 157.21c0 .4-.12 1.13-.12 1.52-.26 0-1.36.89-1.59.89 0 .59.4.69.1 1.29"/><path class="cls-5" d="M71.42 156.55a.84.84 0 0 1 .78 1c.62 0 1.11.81 1.78.81"/><path class="cls-4" d="M68.66 152.29a4 4 0 0 1 .3 1.88c.24.77 2.5 1.44 2.5 2.38"/><path class="cls-3" d="M74.53 163.28c.28 0 .54.5.84.5a5.69 5.69 0 0 0 1.6 1.3"/><path class="cls-4" d="M74.53 163.28c0-.68-1.44-1.65-1.44-2a5.55 5.55 0 0 0-1.29-.79.9.9 0 0 0-.3-.69c0-.39-1.27-.13-1.6-.3l-.08-.55c-.71-.71-.89-.25-.89-1.59l-.5-.4M70.54 131.31c-.34-.27-.17-1.23-.18-1.79-.08-.08 0-.25-.2-.24-.35-.46-.91-.52-.91-1.28.05-.05.84-1 .4-1a2.46 2.46 0 0 1 .05-.61"/><path class="cls-6" d="M72.66 137.55a1.3 1.3 0 0 1 .4-.93 3 3 0 0 0 .79-1.45c.35-.35.75-1 1.32-1.59.89-.4.52-1.53 1.19-1.85.38-.65.89-2.66 2.38-3.7.84-.67.06-4 .66-4.63.77-.42 0-1.11.13-1.45.65 0 .32-4.59.13-5.29s-1-3.9-.25-4.89a12.26 12.26 0 0 1 1.44-3.17c.89-.34 1.09-1.45 1.72-1.45"/><path class="cls-4" d="M73.12 129.06c.65-.81-1.43-2.23-1.35-2.52-.68-.37-.11-1.59-.11-1.86 0-.59 1.06-1 1-1.82"/><path class="cls-6" d="M80.57 125.53c.46-.17.32-1.38.66-1.36a1.13 1.13 0 0 0 .54-.76 7.76 7.76 0 0 1 .76-.56c.23 0 .38-.57.76-.46"/><path class="cls-5" d="M79.18 126.95a3.58 3.58 0 0 1 1.4-1.41"/><path class="cls-4" d="M75.31 125.82a2.48 2.48 0 0 0-.41-1.19.88.88 0 0 1-.25-.76c-.86-.86-.56-.79-.56-2.22.42 0 .52-1.69.76-1.82s.11-.94.1-1.77m3.87 1.74a1 1 0 0 0-.43-.78 1.15 1.15 0 0 1-.51-.46 4.14 4.14 0 0 1 .35-1.11 1.81 1.81 0 0 0-.55-1.11 2.73 2.73 0 0 1-.25-2.17 1.54 1.54 0 0 0 .56-1.11"/><path class="cls-6" d="M79.55 115.68a5.51 5.51 0 0 1 .2-1"/><path class="cls-4" d="M79.66 110.95l-.05-1c.5-.5-.05-1.57.71-1.92a3.08 3.08 0 0 0 .86-1.3m-1.31 3.73a4 4 0 0 1 .51-.46 6.46 6.46 0 0 1 1.28-1.19c.17-.34 1.41-1.08 1.41-1.26"/><path class="cls-6" d="M80.66 120.46c-.23.68-.06 1.49-1 1.49a1 1 0 0 1-.59-.58 9 9 0 0 0-.17-1.16"/><path class="cls-4" d="M77.03 136.75c.45 0 .16-.33.4-.46.4.1.62-1 1-.42a1.38 1.38 0 0 1 .16.26c.88.56 2-1.11 2.46-2.48a1 1 0 0 1 .46-.4c.51-.56 1.23.47 1.52.76m-2.76-2.72c0 .13.27-.06.39-.06 0-.35.66-.81.66-1.16.15 0 .4-.2.61-.2 0-.61 1.16-.91 1.41-1.26.06-.55.59-.65.76-1.06m-.66-12.38a.17.17 0 0 0-.1.15c-.1 0 0 .05-.1.05l-.05.1a3.48 3.48 0 0 0-1.21 2.12c-.15.66-.86 1.47-.86 2.17a.48.48 0 0 0-.3.36"/><path class="cls-6" d="M72.87 136.85c.12-1.3-.88-.8-.49-3 0-.37-1.23-.78-1.21-1.06a1.63 1.63 0 0 0-.38-1.2m3.41 3.17a1 1 0 0 0-.25-.56c0-.76-.2-1.57-.2-2.22.06-.49-.46-.53-.45-1a.68.68 0 0 0-.25-.5 1 1 0 0 1-.08-1.22m-.18 7.73a.81.81 0 0 1 .87.46.82.82 0 0 0 1-.46c.35-.24.5-.2.71 0 0 .56 1.29.15 1.45-.1M75 133.83c.53-.06 2 .1 2-.83 2 .45 1.19-2.77 3.05-1.84m-3.83.73a1.39 1.39 0 0 1-.25-.56c0-.43-.52-4 .15-4a.86.86 0 0 0-.63-1.16"/><path class="cls-1" d="M213.36 118.16a6.54 6.54 0 0 1-.49-3.17c.09-2.05-1.06-.62-.62.06v3.32c.33 2.74-.72 2.63-1.62 1.41a9.4 9.4 0 0 1-1.17-2.92 5.27 5.27 0 0 0-.16 2.21 9.5 9.5 0 0 0 2.29 3.72c.71.71 1.18 2.85 1.5 3.8a2.3 2.3 0 0 1 0 1.27c-.87-.87-2.42-2.56-3.76-2.56a31 31 0 0 1 3.48 3.85c0 .08 1.32 1.24 1.43 1.47l1.06 1c.95 1.19 1.58 2.69 2.84 3.72a1.88 1.88 0 0 1 .69.86c1.18 1.11.72-.15.1-1.49a6.53 6.53 0 0 0-1.34-1.74c-1.26-.87-1.35-2.11-2.21-3.14a11.13 11.13 0 0 1-.78-1.37 9.27 9.27 0 0 0-.79-1.9 20.62 20.62 0 0 1-.33-3.79 12.44 12.44 0 0 0-.13-4.65z"/><path class="cls-4" d="M212.22 114.95a3.23 3.23 0 0 1-.21-2.21c0-2-.87-2.58-2.13-3.84"/><path class="cls-6" d="M212.45 119.48a12.51 12.51 0 0 0-.09-3.87m8 22.67a4.4 4.4 0 0 0-1-1.11 8.25 8.25 0 0 1-.21-2.06 19.62 19.62 0 0 0-1.58-2.24c-.51 0-1.39-1.75-1.4-1.75-.19-.19-.83-1.66-1.4-1.66l-.59-1.12a21.92 21.92 0 0 1-.77-2.87c-.07-.14-.4-2.26-.44-2.39a11.85 11.85 0 0 1-.49-3.6"/><path class="cls-4" d="M215.49 137.19c-1.5-.32-2.61.46-4.25-1.79 0-.4-.68-1-.78-1.5"/><path class="cls-6" d="M216.28 137.46a3.41 3.41 0 0 0-.79-.27m4 2.17a4.21 4.21 0 0 0-1.49-1.13 3.86 3.86 0 0 1-1.72-.76"/><path class="cls-4" d="M215.22 133.67c-.41-.67-.58-1.42-.68-1.21-.14 0-1-.34-1.25-.41s-2.05-.89-2.05-1.38c-.77-.69-1.84-.68-2.14-1-.58-.87.09 1.27-1.49-2.63 0-.07.07-.36-.07-.36"/><path class="cls-6" d="M219.28 137.17c-1.24-1-.81-1.06-1.29-1.07-.28-.33-2.17-.45-2.36-.91a6.7 6.7 0 0 0-.43-1.51"/><path class="cls-4" d="M220.15 133.95a3.2 3.2 0 0 1 .79-.86c.28 0 .7-2.52 1.73-3.45a3.75 3.75 0 0 0 1.14-2.92"/><path class="cls-6" d="M219.45 137.19a6.32 6.32 0 0 1 .7-3.25"/><path class="cls-4" d="M218.57 131.14c0-.5-.06-1.46.42-1.71.29-.15 1.91-1 1.62-1.73 0-.65-.5-3.93 1-3.2"/><path class="cls-6" d="M218.2 133.83c.07-.43-.41-1.86.35-2.71"/><path class="cls-4" d="M216.38 127.37c.44-1.35.11-2.3.89-3.51h.07a8.34 8.34 0 0 0 .32-1.91 14.43 14.43 0 0 0 .29-3.56"/><path class="cls-6" d="M216.32 131.47c.21-1.14-.29-3 .06-4"/><path class="cls-4" d="M212.39 127.85a9.1 9.1 0 0 0-1.44-1.35c0-.39-1.14-.72-1.14-.93-1.72-1.06-1.28-.57-1.28-2.42"/><path class="cls-6" d="M214.66 129.52c-1.68-1.84-1.64-.88-2.29-1.67"/><path class="cls-4" d="M214.18 120.19c.63-1.39-.48-.57.65-2.54 0-.06.37-2.95.16-2.95m-1.17 6.7l.36-1.21"/><path class="cls-6" d="M213.44 125.64c.21-1.07-.36-2.35.14-3.42l.15-.61"/><path class="cls-4" d="M210.97 121.14c-2.08-1.48-1.54-2.79-1.54-4.05a1.09 1.09 0 0 0-.5-1.08"/><path class="cls-6" d="M213.08 123.8a3.48 3.48 0 0 0-1-2 6.36 6.36 0 0 1-.92-.53"/><path class="cls-4" d="M212.37 116.6c-.43-1.42-1-1-1.56-2.41a14.43 14.43 0 0 1-.91-2 12.28 12.28 0 0 1-1-.81"/><path class="cls-2" d="M227.05 149.45c.06-.06-.28-1.61 0-1.84.41 0-.08-1.21-.48-1.45 0-1.11-.16-1.3-.16-2.41l-.15-1c.74-1.24.55-1.33.55-2.69v-1.11a9.72 9.72 0 0 1 1.33-1 1.23 1.23 0 0 0-.94-1.17c-1.05.13-.72-.22-1.7.26a1.82 1.82 0 0 1-.83-.27c0-.42-1.32-.21-1.59.07-.5.15-.54.13-.48-.55.28 0 .59-1.14 1-1.21.41-.41 1.3-1 1.2-1.7l-.06-.43c0-.49 1.46-1.14 1.36-1.5l.31-1.27a2.4 2.4 0 0 1-.7-.78 6.91 6.91 0 0 1 .68-.85c0-.15.16-.79-.06-.79a2.57 2.57 0 0 1 .07-1.65 1.86 1.86 0 0 0-.11-1 1.84 1.84 0 0 0-.86-1.21c-.22-.43.17-.46-.26-1.31a2 2 0 0 0-1-1.63c-.72-.91 0-1.48-.77-2.27l-.43-.49c0-1.27-.26-1.33-.5-1.5a1.2 1.2 0 0 1-.84-1.4c-.87-2.88-1.56-.91-2.23-2.12v-.81c-.31-.31-1.17.19-1.22-.43s-.28-.45-.77-.39-1.57-.43-1.36-1.82a2.68 2.68 0 0 0-1.64-1.75c-.68-.07-.81-1.65-2.28-2a2.08 2.08 0 0 0-1.2-1.48c0-.5-1-.88-2.23-.9a2.46 2.46 0 0 1-1.57.18c-.87-.42-2.74.73-3.22.89-1.74.68-.8 2-.09 1.95h.65c1.31.08.25 1.08.67 1.84s.85 1.2.25 1.92a2.26 2.26 0 0 0 0 2.1 4.65 4.65 0 0 1-.7 1.94l-.15 1.08c-.52.52 0 1.93-.29 2.43a5 5 0 0 0-.09 3.69c.23.71-.25 1.73-.16 2a1.53 1.53 0 0 0 0 2.24c.25.25-.2 1.1.06 2.65.19 1.91.39 1.81 1.07 2 0 .58-.13 1.73.53 1.66.35 1.05-.43 2 .93 2.27.07.87-.07 1.36 1.28 1.8 0 1.69.77 1.54 1.07 1.87.15.56 2.09 2.64 2.53 2.6a8.08 8.08 0 0 0 1 .84c.8.32 2.19 0 3.11.29a1.74 1.74 0 0 1 .69.49c-.11 1.13-1 1.8-1.08 1.58l-1.46.57c-.78.3-2 .34-1.87 1.19.31 1.66-1.72 1.2-1.8 1.94-.13 1.21.16 1.75-.69 2.38-.85.26-.22.55-.71.94l-.76.78c-.47-.1-1.28 2.32-.52 2.66.06 1.85-1.07.76-.81 2.25a.59.59 0 0 1 .2.8c-.67.28-.59 0-.56 1.17a.68.68 0 0 1 .08 1.14c.23 1.86-.73 2.54.06 3.17a1.31 1.31 0 0 0 .77 1.12c0 1.8.07 1.39 1.08 2.17 0 1.59 1.11 3.07-.44 2.84-.64 0-2.44 2.36-2.46 2.36s-1.43 1.43-1.43 1.5c-1.69 0-1.29.34-1.71.76a4.05 4.05 0 0 1-2.49 3.43 2 2 0 0 0-.37 1.36 2.48 2.48 0 0 0-2.34 2.35c-1.77 0-1.14 1.89-1.62 2.87l-.5.41c-.09.57 0 1.76-.45 2.07-.69.8-2.35 1.47-2.47 2.32-.32 0 0 .77-.14 1.36-.78.34-.83 1.62-.92 2.22-1 .74-.9.68-.87 2.16.15 0 0 2.57.5 3 0 1.69.39 1.21 1 2.05a1.09 1.09 0 0 1 .35.76c.91.28 0 .91.47 1.68l.17.52c.48 2.28-.73 2.65-.86 2.8-.89.89-3 .58-3.4.52 0 .12-.08.46-.08.64a6.9 6.9 0 0 0 3.58-.31 3.74 3.74 0 0 1 .74-.31v-.06c.39-.26 4.58-2 4.58-2.48.19 0 2.25-.39 2.25-.33a3.28 3.28 0 0 0 2.35-.13c.31-1 1.66-.85 2.12-.62.74.29 3.4-1.1 3.95-2a2.8 2.8 0 0 1 1.27-.42 3.68 3.68 0 0 1 .73-1c.07-1.22 2.05-.3 2.85-2.55a2.72 2.72 0 0 0 1.26-1.23 3.74 3.74 0 0 1 .19-1.2c.06 0 .42-1.62.8-1.62a1.14 1.14 0 0 0 .29-.55c0-.43-.12-.87-.12-1.3a6.81 6.81 0 0 1 .87-.5c0-.49 0-1.56.71-1.81.93-2.36-.92-4.32.06-4.29a6.25 6.25 0 0 0 .04-1.51.84.84 0 0 0-.06-1.23.93.93 0 0 1-.17-.82 7.18 7.18 0 0 1 .68-.87c0-.31.11-1.3-.37-1.3-.25-.25-.31-1.42.31-1.42a.53.53 0 0 0 .12-.74 6.09 6.09 0 0 1 .21-1.74 3 3 0 0 1 .82-1.25c.92-.56.7-1.1 2.15-1.1l.53-.11.49-.82c1.32 0 1.32-.39 1.49-1.1a1.48 1.48 0 0 0 .28-.53 1.28 1.28 0 0 0 .85-1.52c0-.68.61-.56.91-1.17l.51-.56c.55-.68.12-1.33.12-2.07-.46-.46-.28-.39-.28-1.06.72-.72.49-.6 1.15-.6 0-.86-.47-1.66.27-1.63.11-.33.39-1.83 0-2.21a.72.72 0 0 1-.29-.65 4.38 4.38 0 0 0 .35-2 4 4 0 0 1-.22-1.51 3 3 0 0 1 .78-1.26 1.51 1.51 0 0 0 0-1.31 1.46 1.46 0 0 1-.24-1.92zm-13.62-8.55c-.45-.83-.28-1.49-2-1.76l-.43-.42c0-1.46-1-.56-1-1.29s-1.51-1.8-1.76-2.55c-.42-.83 1-.62-1.14-1.34-.29 0 .12-1.62-.63-1.62 0-.13-.16-2.23-.79-2.23a4.27 4.27 0 0 0 0-1.81 1.08 1.08 0 0 1 .06-1.11c0-.52-.47-2-.21-2.48.39.2.19-1.26.19-2 .67-1.55.26-.8.26-1.68-.61-.39-.09-1.38-.16-1.66a6.2 6.2 0 0 1 0-1.8c.13-.87 1.5.37.88-3.51 1-1-.42-2.9.9-3.75 0-.21.37-2-.58-2-.19-.47.2-.85-.1-1.28a1.63 1.63 0 0 1-1.22-1.22.71.71 0 0 1 .06-.23v-.1l.05-.08.05-.06.12-.09h.32a.6.6 0 0 1 .17.06c0 .35 1.33.13 1.54 0 0-.25 1 0 1.22 0a1.34 1.34 0 0 0 1.27.66c1-.07-.38 1.95 1.56 1.6.34.35-.14.86.76 1.06a2.15 2.15 0 0 1 .63 0c1.2.46 1.29 1.48 1.19 1.36.11.32.95.79.58 1.16a1 1 0 0 0 .66 1.22c.64.06 1 1.22 1.95 1.42.27-.3.6-.49.67.52.21.73 1.25.3 1.48.71a8.82 8.82 0 0 0 .45 1.87c.61.07.41.75 1.29 1a1.88 1.88 0 0 0 .73 1.48 2.81 2.81 0 0 1 .76 2c.13.31 0 .39.26.48h.12l.13.06c.35.24 0 .81.26 1.14a.59.59 0 0 0 .19.13c0 .75-.11 2.12 1.17 2.55l.24 2.1a.91.91 0 0 1-.56 1.37 1.23 1.23 0 0 0 0 1.21c.4.18.6.94-.06 1 .12.81-1.37.86-1.08 2.32a2.1 2.1 0 0 1-.14.29l-.09.15-.09.14-.16.22v.06l-.21.26a8.81 8.81 0 0 1-1.16 1.16c-.55.42-.42 1.15-.69 1.49s-.8.58-1 .9a.71.71 0 0 0-.07.17.74.74 0 0 0 0 .2l-.28.21-.08.06-.14.13-.07.07-.1.11-.17.21c-.11.15-.19.27-.28.38l-.13.11a2 2 0 0 1-1.07.21h.13a.34.34 0 0 1-.13.19l.06 1.1c-.16.43-1.29 1.38-1.54.13-1.03-.73-1.87-.36-3.03-.36zm3.23 34.74c-.25.15-1.57 1.15-.37 2l.07 1.22-.07.32c-.64 0-.63 1.34-.47 1.47.45.33.28.48.18.84-.18.94.24 2-.32 2-.58.26-.25.88-.25 1.53.93 0 .43 2.16.43 2.52-1.05.17.45 1.86-1.51 1.84-.32.26.53 2.65-.58 2.37-.22.33-.55 2.41-.89 2.84a1.08 1.08 0 0 1-.45.71 1.43 1.43 0 0 0-1.15.55 2.41 2.41 0 0 1-1.09 1.49c-1.69.62-.52 1.33-1.56 1.5-1.55 0-1.89.79-2.6 1.72l-1 .16c-.54.18-.48.71-1.24.5-.36-.71-2.67.46-3.12.81a5.06 5.06 0 0 1-1.91 0 2.73 2.73 0 0 0-2.15.49 8.39 8.39 0 0 0-2.18 1.46 14.25 14.25 0 0 1-1.62.72 1.65 1.65 0 0 1-.07-.29c.14 0 .28-.36.42-.36.33-1.66.06-1.92-.26-3.86-1-.55-.3-1.65-.46-1.54a.76.76 0 0 1-.52-.23 2 2 0 0 1-.28-1.23v-.1a.32.32 0 0 0 0-.1.08.08 0 0 0-.07 0c-.5 0-.22-2.11-.22-2.25-.47-.05 0-1.83.09-2 .09-1.53.52-.17.71-1.23l.34-1.4a5.08 5.08 0 0 0 .3-1.46c.59-.19 2.22-1.13 2.44-2.09v-.6c.77-.77.69-.46.6-1.73.92 0 .8-1.95.8-2.21a2.09 2.09 0 0 0 1.55-1.62c.17-.16.33-1.46 1.63-.68a.62.62 0 0 0 .39-.94 1.29 1.29 0 0 1 .43-1.29c.57 0 2.5-1.6 2.5-2.13 0 0-.33-1.88.73-1a1.11 1.11 0 0 0 .68 0 1.5 1.5 0 0 1 .39-1.26 5.93 5.93 0 0 0 1.76-1.29.86.86 0 0 1 1.11-.92 1.76 1.76 0 0 1 1.29-1c1.52 0 .85-1.14 1.73-1.41 1.84 0 1.06-.51 1.09-2 .95-.25.28-1.53-.39-1.38-.34-.15-.33-.36 0-.64.87-.37 1.85.88 2.33 1 .88-.16 2.19-.28 2.8.29 0 1 0 .67-.5 1.15s0 .19 0 .35c0 .59-.1 1.62.1 1.62 0 1.69.51.69.57 1.74a7.19 7.19 0 0 1 .3 2.68c-1.03-.17-.46 2.26-.46 2.35zm9.31-22.17a11.58 11.58 0 0 0 .23 2.52 15.21 15.21 0 0 0-.31 2 4.38 4.38 0 0 1 .05 2.33 8 8 0 0 1-.23 1.17c0 .12-1.06-1-1.06 1.73a.71.71 0 0 0 .42.79.77.77 0 0 1 0 .43 3.12 3.12 0 0 1-.22.74l-.11.22-.12.19-.12.14-.12.1a.29.29 0 0 1-.12 0v.06l-.23.18a2 2 0 0 0-.7 1.55 1.49 1.49 0 0 0-.83 1c0 .15 0 .29-.08.43V169.2l-.1.09c-.24.25-.79.25-1.1.57a2.1 2.1 0 0 1-1.19.57 1.53 1.53 0 0 0-1.29.74 2.37 2.37 0 0 1-.8.57 2.17 2.17 0 0 1 0-1.25 3.53 3.53 0 0 0-.1-1.08c-1.15-.52-.37-1.94-.71-1.94a1 1 0 0 1 0-.71 1.65 1.65 0 0 0 .89-.93 1.06 1.06 0 0 0 .12-.53.33.33 0 0 0 0-.1l-.05-.08-.08-.06h-.24a3.43 3.43 0 0 1-1.15-.63h-.1l-.15.08v-.09c-.47-.09-1.43-.37-1.69-.11a.86.86 0 0 1-.85 0c-.3-1.4-2.47-.81-2.65-.62.13-.16-1.87.69-.53 1.35a15.49 15.49 0 0 1-.09 1.74c-.1.35-.1 1.06-1 .39 0-.5-.23-1.13-.23-1.57a1.94 1.94 0 0 1-1-.87v-.09a10.88 10.88 0 0 0-.72-1.94 1.46 1.46 0 0 1 0-.28c0-.62-.69-.06-.37-1.64l.09-.84a11.17 11.17 0 0 1-.07-1.72c.61-.41.11-.72.37-1.24.31.06.36-.75.25-.88s0-.6 0-.66c.39 0 .52-1 .52-1.16s-.19-.93-.19-1.09c0-.66 1-2.1 1.7-2.1a.87.87 0 0 0 .18-.85 1.71 1.71 0 0 0 1.27-1 1.23 1.23 0 0 0 0-.94c-.43-1.54 2.09-.54 1.59-2.13 0-1.63 2.36-1 2.36-1.52.48 0 .9-.87 1.42-.87s.91-1.34 1-1.48c1.08-.57 2.48-.54 1.66-2.08a4.35 4.35 0 0 1 .23-.37l.24.1h.42a1.41 1.41 0 0 0 .29 0 .82.82 0 0 0 .22-.1.69.69 0 0 0 .14-.16v-.08a.85.85 0 0 0 .07-.2v-.17a1.92 1.92 0 0 0 0-.22 2.89 2.89 0 0 0-.08-.49 3.21 3.21 0 0 0 .47-.42 3.3 3.3 0 0 0 2.46-.79h.61a.73.73 0 0 1 .36.18 1.07 1.07 0 0 0 1.11 0c.31-.31.85 0 1.22 0a.32.32 0 0 1-.23.49c-.33.25-1.32.77-.87 1.42a7.11 7.11 0 0 1-.46 3.58c0 1.25.25 1.54.25 2.9-.12.62.63.91.36 1.73a1.36 1.36 0 0 0-.21.76 1.74 1.74 0 0 1 .12 1.36c-.25 0-.12 1.16 0 1.45a1.64 1.64 0 0 1-.14 2.28z"/><path class="cls-4" d="M211.52 163.8v-.51a5.86 5.86 0 0 0-.53-.91c-.25 0-.77-1.35-1.07-1.35-.05-.16-.9-1.57-.21-1.57M214 162.26a10.89 10.89 0 0 0-.77-1.52c0-2.4.38-1.06-1-2.42-.23-1 .6-1.21.48-2.35"/><path class="cls-6" d="M214.36 164.66a5.92 5.92 0 0 0-.36-2.39"/><path class="cls-4" d="M215.89 159.29a5.61 5.61 0 0 0-.87-3.18c0-1.29-1.63-1.27-1.09-2.85a7.3 7.3 0 0 0 .43-3.49"/><path class="cls-6" d="M216.21 164.51a11.51 11.51 0 0 0 0-3.56 9.29 9.29 0 0 1-.31-1.67"/><path class="cls-4" d="M218.88 164.95a3.49 3.49 0 0 1 1.44 0 .44.44 0 0 1 .78 0 1.49 1.49 0 0 0 .71-.29 1.14 1.14 0 0 1 .85-.71"/><path class="cls-6" d="M217.38 165.73a3.34 3.34 0 0 0 .24-.36 2.07 2.07 0 0 1 1.24-.4"/><path class="cls-4" d="M221.03 146.95c-.08-.85-.43-1.88-.13-2.37h.07c.28-.5 0-1.5.28-2h.07a6.28 6.28 0 0 0 .78-1.28l.07-.07c.57 0 1.35-1 2.13-1 0-.14.28-.14.28-.28a574.85 574.85 0 0 1 .29-.29"/><path class="cls-6" d="M216.14 164.72a24.13 24.13 0 0 0 1.84-4.76c.47-1.43 1.39-3 1.39-4.47a5.49 5.49 0 0 0 .66-1.73c.46-1.44.07-3.49.57-5a3.8 3.8 0 0 1 .21-.85h.07a1.57 1.57 0 0 0 .13-1"/><path class="cls-4" d="M220.96 147a.6.6 0 0 1 .36-.21 1.69 1.69 0 0 1 .35-.36 3.39 3.39 0 0 0 .78-.64h.07a3.16 3.16 0 0 1 .71-.92c0-.71.43-1.71.43-2.56m-4.9 8.33a5.16 5.16 0 0 1 0-5.55h.07a3.81 3.81 0 0 0 .07-.93"/><path class="cls-6" d="M221.46 152.84a.69.69 0 0 0-.43.36c-.14 0-.31.5-.45.5a6.13 6.13 0 0 1-1.18 1.92c0-1.64.57-3.77-.64-5"/><path class="cls-4" d="M223.24 147.36a9.65 9.65 0 0 1-.36 3.2 1.37 1.37 0 0 0-.21.57 1.81 1.81 0 0 0-1.21.28v1.42m-.36 3.35c1.14-1 .94-.57 2.49-.57l.28-.85c.27 0 .29-1.21.57-1.5"/><path class="cls-6" d="M218.17 159.72a4.7 4.7 0 0 1 .95-.69 12.46 12.46 0 0 1 1.42-.85c0-1.39.18-1.6.57-2"/><path class="cls-4" d="M218.55 162.38c.88-.5 2.22 0 2.22-1.35.67.21.82-.16 1.47-.43a1.14 1.14 0 0 1 1.07-1.14l.07-.07a3.57 3.57 0 0 1 .36-1l.07-.07"/><path class="cls-6" d="M216.99 162.95c.67 0 1.26.06 1.55-.54"/><path class="cls-4" d="M195.66 199.87c-.11-.45-.24-.86-.31-1.19a16.27 16.27 0 0 1-.28-2.7c.68-.68-.43-1.52-.43-2.35.35-.35 1.45-2 .29-2-.81-1 .87-2.19 1.71-2.56"/><path class="cls-6" d="M195.47 203.45a11.17 11.17 0 0 1 .36-1.5 5 5 0 0 0-.19-2.09"/><path class="cls-4" d="M207.12 178.88a12 12 0 0 1 2.27-4.33"/><path class="cls-6" d="M206.55 181.88a10.61 10.61 0 0 1 .57-3"/><path class="cls-4" d="M212.06 175.27c.92-1.49.67-3.92.67-5.78m-14.2 21.14a11.18 11.18 0 0 0 .07-2.63"/><path class="cls-6" d="M198.38 192.63c.29-.36 0-2 .14-2m.2 8.41a1.48 1.48 0 0 0-.49-1.08c-.44-.53.23-2-.5-2.71 0-1.68-.64-1.53.64-2.63"/><path class="cls-4" d="M207.54 181.26c.5 0 2.41-1.3 2.41-1.87a7.44 7.44 0 0 1 2.49-.93"/><path class="cls-6" d="M198.6 200.04a16.49 16.49 0 0 0 2.56-2.42h.57"/><path class="cls-4" d="M201.58 195.12a4.74 4.74 0 0 1 2.77-.5c0 .83 1.39.46 1.69.15l.86-.67c0-.68 1.46-.34 2.13.16"/><path class="cls-6" d="M199.19 197.63a19.29 19.29 0 0 0 2.38-2.5"/><path class="cls-4" d="M201.72 197.62a1 1 0 0 1 .43.5c1.56 0 3.55.71 5.18-.28.07 0 .21-.14.28-.14m-.14-16.44c0-.93 2.27-2.35 2.84-2.35a41.74 41.74 0 0 1 2-4.13 34 34 0 0 1 2.84-4.34"/><path class="cls-6" d="M197.25 202.46c1.9-2.36 1.81-6.37 2.84-9.11.19-.61.67-4.48 1.56-4.48 0-1 1.78-2.06 1.78-3a3.78 3.78 0 0 0 .78-1.49l.07-.07c.85 0 2.24-3.06 3.2-3.06"/><path class="cls-4" d="M202.78 191.35c.35-.1 1.7 0 1.92-.29.75-1 2.16-1.68 3.12-.71.43 0 .85-.21 1.21-.21 0-1.47 1.85-1.52 1.85-1.92h.78"/><path class="cls-6" d="M200.16 193.31c1-.36 1.69-1.7 2.62-2"/><path class="cls-4" d="M202.1 185.37a28.07 28.07 0 0 1 0-3.78 7 7 0 0 0 1.13-1.28"/><path class="cls-6" d="M205.13 185.66c-1.21.41-1.68 1.25-2.75 1.89a3.41 3.41 0 0 0-.09-1.32 5.48 5.48 0 0 1-.18-.85"/><path class="cls-4" d="M212.51 183.73a3.13 3.13 0 0 1-.64.71 20.57 20.57 0 0 0-6.75 1.21"/></svg>