<?xml version="1.0" encoding="utf-8"?>
<!-- Generator: Adobe Illustrator 21.0.2, SVG Export Plug-In . SVG Version: 6.00 Build 0)  -->
<svg version="1.1" id="Layer_1" xmlns="http://www.w3.org/2000/svg" xmlns:xlink="http://www.w3.org/1999/xlink" x="0px" y="0px"
	 viewBox="0 0 1202 400" style="enable-background:new 0 0 1202 400;" xml:space="preserve">
<style type="text/css">
	.st0{fill:#0959A7;}
	.st1{fill:#75B649;}
	.st2{fill:#525252;}
</style>
<g>
	<path class="st0" d="M94.5,328.5H18.3V216.2h22.2v91.2h53.9V328.5z"/>
	<path class="st0" d="M174.5,328.5h-74.3V216.2h74.3v18h-52.9V261h52.2v17.6h-52.2v30.9h52.9V328.5z"/>
	<path class="st0" d="M284.3,328.5h-26.9l-28-42.7l-28,42.7h-26.9l41.1-58.3l-37.7-54.1h26.5l25.1,38.1l24.9-38.1h26.9l-38,54
		L284.3,328.5z"/>
	<path class="st0" d="M310.4,328.5h-21.8V216.2h21.8V328.5z"/>
	<path class="st0" d="M418.1,328.5h-21.4l-50.8-78.9v78.9h-21.4V216.1h24.5l47.7,73.4v-73.4h21.4V328.5z"/>
	<path class="st0" d="M535.8,307.8c-3.2,3.9-6.7,7.3-10.4,10.2c-3.8,2.9-7.7,5.2-11.8,7.1c-4.1,1.9-8.3,3.3-12.5,4.1
		c-4.3,0.9-8.5,1.3-12.7,1.3c-8.4,0-16.2-1.5-23.5-4.5c-7.3-3-13.7-7.1-19.2-12.4c-5.4-5.2-9.8-11.4-13-18.6
		c-3.2-7.1-4.8-14.8-4.8-23.1c0-8.1,1.6-15.6,4.7-22.7c3.1-7.1,7.5-13.2,13-18.5c5.5-5.2,11.9-9.4,19.2-12.4
		c7.3-3,15.2-4.6,23.5-4.6c9.7,0,18.5,2,26.4,5.9c7.9,3.9,14.7,9.2,20.2,15.7l-14.8,15c-4.2-5.7-9-9.8-14.2-12.3
		c-5.2-2.5-11.1-3.7-17.6-3.7c-5.3,0-10.4,1-15,3c-4.7,2-8.8,4.7-12.3,8.1c-3.5,3.4-6.3,7.4-8.3,11.9c-2,4.5-3,9.4-3,14.5
		c0,5.2,1,10.1,3,14.7c2,4.5,4.8,8.6,8.3,12c3.5,3.5,7.6,6.2,12.3,8.2c4.7,2,9.7,3,15,3c5.1,0,9.8-0.9,14.3-2.8
		c4.5-1.9,8.5-4.4,12.1-7.4v-10.8h-23.1v-18.6h44.1V307.8z"/>
	<path class="st0" d="M623,235.6h-31.1v92.9h-22.1v-92.9h-31.1v-19.4H623V235.6z"/>
	<path class="st0" d="M739,272.3c0,8.1-1.6,15.7-4.7,22.8c-3.1,7.1-7.4,13.3-12.9,18.6c-5.4,5.2-11.8,9.4-19,12.4
		c-7.2,3-14.9,4.6-23.1,4.6c-8.2,0-15.9-1.5-23.1-4.6c-7.3-3-13.6-7.2-19.1-12.4c-5.4-5.2-9.7-11.4-12.9-18.5
		c-3.1-7.1-4.7-14.7-4.7-22.8s1.6-15.8,4.7-22.9c3.1-7.1,7.4-13.3,12.9-18.6c5.4-5.2,11.8-9.4,19.1-12.4c7.3-3,15-4.5,23.1-4.5
		c8.2,0,15.8,1.5,23.1,4.5c7.2,3,13.5,7.1,19,12.4c5.4,5.3,9.7,11.5,12.9,18.6C737.4,256.5,739,264.1,739,272.3z M717.2,272.3
		c0-5.2-1-10-3-14.5c-2-4.5-4.7-8.5-8.1-11.9c-3.4-3.4-7.5-6.1-12.1-8.2c-4.6-2-9.5-3-14.7-3c-5.3,0-10.2,1-14.8,3
		c-4.6,2-8.6,4.7-12.1,8.2c-3.4,3.4-6.1,7.4-8.1,11.9c-2,4.5-3,9.4-3,14.5c0,5.1,1,9.9,3,14.5c2,4.6,4.7,8.6,8.1,12
		c3.4,3.4,7.5,6.1,12.1,8.2c4.6,2,9.5,3,14.8,3c5.2,0,10.1-1,14.7-3c4.6-2,8.6-4.7,12.1-8.2c3.4-3.4,6.1-7.4,8.1-12
		C716.2,282.2,717.2,277.3,717.2,272.3z"/>
	<path class="st0" d="M842.6,328.5h-21.4l-50.8-78.9v78.9H749V216.1h24.5l47.7,73.4v-73.4h21.4V328.5z"/>
</g>
<g>
	<path class="st1" d="M39.2,78.5H18.1V57.4h21.1V78.5z M38.9,173.9H18.3V92.6h20.6V173.9z"/>
	<path class="st1" d="M222.9,173.9h-20.3v-48.5c0-5.7-1.4-10-4.2-13c-2.8-3-6.2-4.4-10.2-4.4c-3.1,0-6,0.5-8.8,1.5
		c-2.8,1-5.5,2.6-8.1,4.8c0.8,3.3,1.3,7,1.3,11.1v48.5h-20.3v-48.5c0-5.7-1.4-10-4.2-13c-2.8-3-6.1-4.4-10.1-4.4
		c-3.1,0-5.8,0.5-8.2,1.6c-2.3,1.1-4.8,2.8-7.3,5.1v59.2h-20.3V92.7h20.3l0,6c2.5-2.4,5.5-4.4,8.9-5.9c3.4-1.5,6.9-2.2,10.5-2.2
		c3.9,0,7.9,0.9,11.9,2.7c4,1.8,7.5,4.4,10.5,7.7c4.2-3.7,8.5-6.4,12.8-8c4.3-1.6,9.1-2.4,14.2-2.4c4.2,0,8.2,0.6,12.1,1.9
		c3.8,1.3,7.1,3.3,9.9,6c2.8,2.8,5.1,6.3,6.8,10.5c1.7,4.3,2.5,9.4,2.5,15.4V173.9z"/>
	<path class="st1" d="M349.2,173.9h-20.3v-4.4c-3.6,2.4-7.3,4.1-11.3,5.1c-4,0.9-8.1,1.4-12.3,1.4c-3.9,0-7.5-0.6-10.7-1.8
		c-3.2-1.2-6-2.9-8.3-5.1c-2.3-2.2-4.2-4.8-5.4-7.8c-1.3-3-1.9-6.3-1.9-10c0-4.6,1-8.6,3-12c2-3.4,4.8-6.3,8.2-8.6
		c3.5-2.3,7.5-4,12.2-5.1c4.6-1.1,9.6-1.7,15-1.7h11.7c0-4.8-1.5-8.6-4.6-11.4c-3.1-2.8-7.6-4.2-13.4-4.2c-2.8,0-5.7,0.5-8.7,1.5
		c-3,1-6,2.9-9,5.6l-12-12.1c4.3-4.1,9.3-7.3,15-9.6c5.7-2.2,11.5-3.4,17.5-3.4c5.6,0,10.6,0.9,15,2.7c4.4,1.8,7.9,4.1,10.6,6.9
		c3.5,3.6,6,7.5,7.5,11.9c1.4,4.4,2.2,10,2.2,16.9V173.9z M328.9,153.7v-15h-9.3c-2.8,0-5.5,0.2-8,0.6c-2.5,0.4-4.6,1-6.5,1.9
		c-1.8,0.9-3.3,2-4.4,3.4c-1.1,1.4-1.6,3.1-1.6,5.1c0,2.8,1.1,5.1,3.3,6.9c2.2,1.8,5,2.7,8.5,2.7c3,0,6-0.5,8.9-1.4
		C322.9,156.8,325.9,155.5,328.9,153.7z"/>
	<path class="st1" d="M484.5,108.7h-8.6c2.2,4.2,3.2,8.7,3.2,13.5c0,3.7-0.7,7.2-2,10.6c-1.4,3.4-3.3,6.5-5.8,9.3
		c-2.5,2.8-5.6,5.2-9.2,7.2c-3.6,2-7.7,3.3-12.2,3.9c-3.1,0.5-5.4,1.2-7,2.2c-1.5,1-2.3,2-2.3,3c0,1,0.8,1.9,2.3,2.7
		c1.5,0.8,3.9,1.4,7,1.7c10.5,0.9,18.7,3.6,24.4,7.9c5.8,4.3,8.7,10,8.7,17.1c0,3.7-0.9,7-2.7,10.1c-1.8,3.1-4.3,5.8-7.6,8
		c-3.3,2.2-7.3,4-12,5.2c-4.7,1.2-9.9,1.8-15.7,1.8c-5.9,0-11.2-0.6-15.9-1.8c-4.7-1.2-8.8-2.9-12.1-5.1c-3.4-2.2-5.9-4.8-7.7-7.9
		c-1.8-3.1-2.7-6.5-2.7-10.3c0-5.6,1.6-10.3,4.8-14.1c3.2-3.8,8.5-6.6,15.7-8.5c-2.3-0.8-3.9-2-4.9-3.4c-1-1.5-1.4-2.9-1.3-4.4
		c0.1-1.5,0.7-2.9,1.9-4.3c1.2-1.4,2.8-2.4,5-3.2c-2.5-1.1-4.8-2.6-7-4.4c-2.2-1.8-4.2-3.8-6-6.2c-1.8-2.3-3.2-5-4.3-7.9
		c-1-2.9-1.6-6-1.6-9.3c0-4.4,0.9-8.5,2.8-12.4c1.9-3.8,4.4-7.2,7.6-10c3.2-2.9,6.9-5.1,11.1-6.7c4.2-1.6,8.7-2.5,13.4-2.5
		c4.6,0,8.9,0.7,12.8,2.1h27.9V108.7z M462.7,187.9c0-3.3-1.7-5.7-5-7.2c-3.3-1.5-7.6-2.2-12.8-2.2c-5.6,0-10,0.8-13.3,2.4
		c-3.2,1.6-4.8,3.9-4.8,7c0,3.2,1.7,5.6,5,7.2c3.4,1.6,7.7,2.4,13,2.4c5.4,0,9.7-0.8,13-2.3C461.1,193.5,462.7,191.1,462.7,187.9z
		 M458.9,122.2c0-2.1-0.4-4-1.2-5.8c-0.8-1.8-1.9-3.3-3.2-4.7c-1.3-1.4-2.9-2.4-4.7-3.2c-1.8-0.8-3.7-1.2-5.8-1.2
		c-2,0-4,0.4-5.7,1.2c-1.8,0.8-3.3,1.9-4.7,3.2c-1.3,1.4-2.4,2.9-3.2,4.7c-0.8,1.8-1.2,3.7-1.2,5.8c0,2.1,0.4,4,1.2,5.8
		c0.8,1.8,1.9,3.4,3.2,4.8c1.3,1.4,2.9,2.4,4.7,3.2c1.8,0.8,3.7,1.2,5.7,1.2c2,0,4-0.4,5.8-1.2c1.8-0.8,3.4-1.9,4.7-3.2
		c1.3-1.4,2.4-3,3.2-4.8C458.5,126.2,458.9,124.3,458.9,122.2z"/>
	<path class="st1" d="M560.4,78.5h-21.1V57.4h21.1V78.5z M560.1,173.9h-20.6V92.6h20.6V173.9z"/>
	<path class="st1" d="M697.7,173.9h-20.3v-48.5c0-2.9-0.4-5.5-1.3-7.7c-0.9-2.2-2.1-4-3.6-5.5c-1.5-1.5-3.2-2.5-5.2-3.2
		c-1.9-0.7-3.9-1.1-6-1.1c-3.1,0-6.2,0.5-9.2,1.6c-3,1.1-5.7,2.8-8.2,5.1v59.2h-20.3V92.7h20.3l0.1,6c1.2-1.2,2.7-2.3,4.5-3.4
		c1.8-1,3.6-1.9,5.6-2.6c1.9-0.7,3.9-1.2,5.9-1.6c2-0.4,4-0.6,5.8-0.6c4.1,0,8.1,0.7,11.9,2c3.8,1.3,7.2,3.3,10.1,6
		c3,2.7,5.3,6.2,7.1,10.5c1.8,4.3,2.7,9.4,2.7,15.3V173.9z"/>
	<path class="st1" d="M842.1,133.2c0,1.3-0.1,2.7-0.2,4.1c-0.1,1.4-0.3,2.9-0.5,4.4h-65c0.8,2.3,1.8,4.6,3.2,6.7
		c1.4,2.1,3,3.9,5,5.5c2,1.5,4.2,2.8,6.7,3.7c2.5,0.9,5.2,1.3,8.2,1.3c3.7,0,7.3-0.6,11-1.9c3.7-1.3,6.7-3,9.2-5.1l12.8,12.8
		c-5.6,4.2-11.1,7.2-16.5,8.9c-5.4,1.7-11.1,2.6-17.1,2.6c-6.1,0-11.8-1.1-17.1-3.4c-5.3-2.2-9.9-5.3-13.8-9.1
		c-3.9-3.8-7-8.4-9.2-13.6c-2.3-5.2-3.4-10.8-3.4-16.7c0-5.9,1.1-11.5,3.4-16.7c2.3-5.2,5.3-9.7,9.3-13.6c3.9-3.8,8.5-6.9,13.8-9.1
		c5.3-2.2,10.9-3.4,16.9-3.4c5.7,0,11.2,1.1,16.5,3.2c5.3,2.1,9.9,5,13.9,8.8c4,3.7,7.2,8.2,9.6,13.4
		C840.9,121.2,842.1,126.9,842.1,133.2z M820.9,125.3c-1.6-5.2-4.4-9.3-8.5-12.4c-4.1-3.1-8.7-4.7-13.9-4.7c-5.1,0-9.6,1.6-13.7,4.7
		c-4,3.1-6.9,7.3-8.4,12.4H820.9z"/>
</g>
<polygon class="st0" points="892.3,28.4 891.3,200 1040.7,115 "/>
<polygon class="st2" points="891.3,200 890.3,371.6 1039.7,286.7 "/>
<polygon class="st1" points="1040.7,115.1 1039.7,286.7 1189.1,201.7 "/>
</svg>
