<?xml version="1.0" encoding="utf-8"?>
<!-- Generator: Adobe Illustrator 19.2.0, SVG Export Plug-In . SVG Version: 6.00 Build 0)  -->
<svg version="1.1" id="Layer_1" xmlns="http://www.w3.org/2000/svg" xmlns:xlink="http://www.w3.org/1999/xlink" x="0px" y="0px"
	 viewBox="0 0 216 146" style="enable-background:new 0 0 216 146;" xml:space="preserve">
<style type="text/css">
	.st0{fill:#585858;}
</style>
<path class="st0" d="M162.2,41.6c-5.6-9.6-13.2-17.2-22.8-22.8c-9.6-5.6-20.1-8.4-31.4-8.4c-11.3,0-21.8,2.8-31.4,8.4
	C67,24.4,59.4,32,53.8,41.6c-5.6,9.6-8.4,20.1-8.4,31.4s2.8,21.8,8.4,31.4c5.6,9.6,13.2,17.2,22.8,22.8c9.6,5.6,20.1,8.4,31.4,8.4
	s21.8-2.8,31.4-8.4c9.6-5.6,17.2-13.2,22.8-22.8c5.6-9.6,8.4-20.1,8.4-31.4S167.8,51.2,162.2,41.6L162.2,41.6z M118.4,112
	c0,0.8-0.2,1.4-0.7,1.9s-1.1,0.8-1.8,0.8h-15.6c-0.7,0-1.3-0.3-1.9-0.8c-0.5-0.5-0.8-1.2-0.8-1.9V96.5c0-0.7,0.3-1.3,0.8-1.9
	c0.5-0.5,1.2-0.8,1.9-0.8h15.6c0.7,0,1.3,0.3,1.8,0.8c0.5,0.5,0.7,1.2,0.7,1.9L118.4,112L118.4,112z M118.3,84
	c-0.1,0.5-0.3,1-0.9,1.4c-0.5,0.4-1.2,0.6-1.9,0.6h-15.1c-0.8,0-1.4-0.2-2-0.6c-0.5-0.4-0.8-0.9-0.8-1.4l-1.4-50.6
	c0-0.7,0.3-1.1,0.8-1.5c0.5-0.4,1.2-0.7,2-0.7H117c0.8,0,1.4,0.2,2,0.7c0.5,0.3,0.8,0.8,0.8,1.5L118.3,84z"/>
</svg>
