<?xml version="1.0" encoding="utf-8"?>
<!-- Generator: Adobe Illustrator 19.2.0, SVG Export Plug-In . SVG Version: 6.00 Build 0)  -->
<svg version="1.1" id="Layer_1" xmlns="http://www.w3.org/2000/svg" xmlns:xlink="http://www.w3.org/1999/xlink" x="0px" y="0px"
	 viewBox="0 0 216 216" style="enable-background:new 0 0 216 216;" xml:space="preserve">
<style type="text/css">
	.st0{fill:#585858;}
</style>
<path class="st0" d="M162.2,41.6c-5.6-9.6-13.2-17.2-22.8-22.8c-9.6-5.6-20.1-8.4-31.4-8.4c-11.3,0-21.8,2.8-31.4,8.4
	C67,24.4,59.4,32,53.8,41.6c-5.6,9.6-8.4,20.1-8.4,31.4c0,11.4,2.8,21.8,8.4,31.4c5.6,9.6,13.2,17.2,22.8,22.8
	c9.6,5.6,20.1,8.4,31.4,8.4s21.8-2.8,31.4-8.4c9.6-5.6,17.2-13.2,22.8-22.8c5.6-9.6,8.4-20.1,8.4-31.4
	C170.6,61.6,167.8,51.2,162.2,41.6L162.2,41.6z M148.6,63.5l-44.2,44.2c-1,1-2.3,1.5-3.7,1.5c-1.4,0-2.6-0.5-3.7-1.6L67.4,78.2
	c-1-1-1.5-2.2-1.5-3.7c0-1.5,0.5-2.8,1.5-3.8l7.4-7.3c1-1,2.3-1.5,3.7-1.5s2.6,0.5,3.7,1.5l18.4,18.4l33.2-33.2c1-1,2.3-1.5,3.7-1.5
	c1.4,0,2.6,0.5,3.7,1.5l7.4,7.3c1,1,1.5,2.2,1.5,3.7C150,61.3,149.5,62.5,148.6,63.5L148.6,63.5z"/>
</svg>
