<?xml version="1.0" encoding="utf-8"?>
<!-- Generator: Adobe Illustrator 19.2.0, SVG Export Plug-In . SVG Version: 6.00 Build 0)  -->
<svg version="1.1" id="Layer_1" xmlns="http://www.w3.org/2000/svg" xmlns:xlink="http://www.w3.org/1999/xlink" x="0px" y="0px"
	 viewBox="0 0 216 146" style="enable-background:new 0 0 216 146;" xml:space="preserve">
<style type="text/css">
	.st0{fill:#585858;}
</style>
<path class="st0" d="M179.7,125.4L117.1,10.7c-0.9-1.7-2.2-3-3.8-4c-1.6-1-3.4-1.5-5.3-1.5c-1.9,0-3.7,0.5-5.3,1.5s-2.9,2.3-3.8,4
	L36.3,125.4c-1.9,3.4-1.8,6.8,0.2,10.3c0.9,1.6,2.2,2.8,3.8,3.7c1.6,0.9,3.3,1.4,5.2,1.4h125.1c1.9,0,3.6-0.5,5.2-1.4
	c1.6-0.9,2.9-2.2,3.8-3.7C181.5,132.2,181.6,128.8,179.7,125.4L179.7,125.4z M118.4,117.2c0,0.8-0.3,1.4-0.8,1.9
	c-0.5,0.5-1.1,0.8-1.8,0.8h-15.6c-0.7,0-1.3-0.3-1.8-0.8c-0.5-0.5-0.8-1.2-0.8-1.9v-15.5c0-0.8,0.3-1.4,0.8-1.9
	c0.5-0.5,1.1-0.8,1.8-0.8h15.6c0.7,0,1.3,0.3,1.8,0.8c0.5,0.5,0.8,1.2,0.8,1.9L118.4,117.2L118.4,117.2z M118.3,86.8
	c-0.1,0.5-0.3,1-0.9,1.3c-0.5,0.4-1.2,0.5-1.9,0.5h-15.1c-0.8,0-1.4-0.2-2-0.5c-0.5-0.4-0.8-0.8-0.8-1.3l-1.4-37.2
	c0-0.8,0.3-1.3,0.8-1.7c0.7-0.6,1.4-0.9,2-0.9H117c0.6,0,1.2,0.3,2,0.9c0.5,0.4,0.8,0.9,0.8,1.5L118.3,86.8L118.3,86.8z"/>
</svg>
