<svg xmlns="http://www.w3.org/2000/svg" fill="none" viewBox="0 0 24 24" id="nextdoor"><path fill="#ffffff" d="M2.5 3.75C2.08579 3.75 1.75 4.08579 1.75 4.5V7.5C1.75 9.84721 3.65279 11.75 6 11.75H6.75V19.5C6.75 19.9142 7.08579 20.25 7.5 20.25H11.5C11.9142 20.25 12.25 19.9142 12.25 19.5V11.5C12.25 10.2574 13.2574 9.25 14.5 9.25C15.7426 9.25 16.75 10.2574 16.75 11.5V19.5C16.75 19.9142 17.0858 20.25 17.5 20.25H21.5C21.9142 20.25 22.25 19.9142 22.25 19.5V11.5C22.25 7.21979 18.7802 3.75 14.5 3.75C11.7881 3.75 9.40238 5.14326 8.01833 7.25H8C7.58579 7.25 7.25 6.91421 7.25 6.5V4.5C7.25 4.08579 6.91421 3.75 6.5 3.75H2.5Z" class="color8bc94d svgShape"></path></svg>