<svg id="Capa_1" xmlns="http://www.w3.org/2000/svg" width="216" height="146" viewBox="0 0 216 146"><style>.st0{fill:#585858;}</style><path class="st0" d="M162.18 41.592c-5.595-9.586-13.185-17.176-22.77-22.77-9.59-5.596-20.056-8.393-31.41-8.393-11.35 0-21.82 2.796-31.407 8.39-9.587 5.595-17.177 13.185-22.772 22.772C48.226 51.18 45.43 61.65 45.43 73c0 11.35 2.798 21.82 8.392 31.408 5.595 9.584 13.185 17.176 22.772 22.77 9.587 5.596 20.056 8.393 31.408 8.393s21.822-2.796 31.408-8.39c9.586-5.595 17.176-13.186 22.77-22.772C167.774 94.82 170.57 84.35 170.57 73c0-11.35-2.797-21.822-8.39-31.408zm-43.75 70.433c0 .76-.246 1.398-.734 1.914s-1.086.772-1.793.772H100.26c-.706 0-1.33-.27-1.874-.814-.543-.543-.814-1.168-.814-1.873v-15.48c0-.705.27-1.33.814-1.873.543-.543 1.168-.814 1.874-.814h15.643c.707 0 1.306.258 1.793.773.488.52.734 1.155.734 1.916v15.48zM118.266 84c-.055.542-.34 1.018-.854 1.425-.517.407-1.154.61-1.914.61h-15.073c-.76 0-1.413-.203-1.956-.61-.544-.407-.816-.883-.816-1.426L96.27 33.403c0-.653.27-1.14.813-1.467.544-.434 1.196-.652 1.956-.652h17.925c.76 0 1.412.217 1.955.652.543.326.813.815.813 1.467L118.266 84z"/></svg>