<svg id="Layer_1" xmlns="http://www.w3.org/2000/svg" viewBox="0 0 260 50" preserveAspectRatio="xMinYMid"><style>.st0{fill:#010101;} .st1{fill:#0959A7;}</style><path class="st0" d="M81.5 19.4h4.2v15.3h9.6v3.8H81.5V19.4zM113.2 23.2h-10.3v3.9h9v3.8h-9v4h10.4v3.8H98.7V19.4h14.5v3.8zM129.4 38.6l-4.3-6.6-4.3 6.6H116l6.7-9.7-6.4-9.4h4.9l4 6.2 4.1-6.2h4.8l-6.4 9.4 6.7 9.8-5-.1zM142.2 19.4v19.2H138V19.4h4.2zM160.1 19.4h4.2v19.2h-3.6l-9.3-12.2v12.2h-4.2V19.4h3.9l9 11.8V19.4zM178.4 38.9c-6 0-10.1-4.2-10.1-9.9 0-5.5 4.2-9.9 10.1-9.9 3.5 0 5.5.9 7.5 2.6l-2.7 3.2c-1.5-1.2-2.8-1.9-5-1.9-3.1 0-5.5 2.7-5.5 6 0 3.5 2.4 6.1 5.8 6.1 1.5 0 2.9-.4 4-1.1v-2.7h-4.2v-3.6h8.3V36c-2 1.6-4.7 2.9-8.2 2.9zM199.4 38.6h-4.2V23.3h-5.9v-3.9h15.9v3.9h-5.8v15.3zM217.2 38.9c-5.9 0-10.2-4.4-10.2-9.9s4.3-9.9 10.2-9.9 10.2 4.4 10.2 9.9-4.3 9.9-10.2 9.9zm0-15.9c-3.4 0-5.8 2.7-5.8 6s2.4 6.1 5.8 6.1 5.8-2.7 5.8-6c0-3.4-2.4-6.1-5.8-6.1zM244.3 19.4h4.2v19.2h-3.6l-9.3-12.2v12.2h-4.2V19.4h3.9l9 11.8V19.4z"/><g><path class="st1" d="M8.2 3.7c.2 0 .9.2 1.2.3s1.1.4 1.4.4c4 1.3 4.1 1.3 7.8 3.3 1.8.9 3.3 2.4 3.3 2.4.2.1.7.5 1.4.6.7.1 2 .2 2.3.3.2 0 1.1.3 1.4.4l3.8 1.8c.8.3 1.3.6 2.2.7 1 .1 2.2.2 4.5-.4 2.3-.6 3.4-.9 3.8-1 .2-.1 2.8-.8 2.8-.8 1.8-.5 3.7-.2 3.7-.2.7.1 3.8.9 3.8.9 1.1.4 3.2.7 3.2.7 2.1.1 3.3 1.2 3.3 1.2 2.5 1.9 3.5 5.3 3.5 5.3 1.7 5.6.6 13.8.6 13.8s-.1.5-.3.7c0 0-.2.1-.3 0 0 0-.3-.8-.6-1.7-.4-1.2-.5-2.4-.5-2.4 0-.1-.1-1.1-.1-1.1.1-2.5-.9-4.1-.9-4.1-1.2-2-1.4-3.1-1.4-3.1-.5-2-.5-2-.8-4.1 0-.2-.1-.5-.2-.7 0 0-.1-.9-.9-1.6 0 0-.6-.5-1.8-.5 0 0 .5.6.6.9.7 1.1 1.1 2.3 1.1 2.3.1.5.2.9.2 2.1 0 1.3-.1 3-.2 3.5s-.3 1.4-.5 1.7c-.2.4-.7 1.5-.8 1.8-.5 1.2-.3 2.4-.3 2.4 0 .5.2.9.3 1.1.1.3.6 1.3.7 1.6.1.3.7 1.4 1 1.8.2.4.6.9.7 1.1s.2.5.2.8c-.1.4-.1.6-.1.7-.2 2.8.2 6.3.2 6.3v.6s.1.5.1.7c.1.8-.3 1.1-.3 1.1-.2.1-.3.2-.4.4 0 0-.3.4-.3 1 0 .1.1.4.1.5v.6s0 .4-.5.8h-2.3s-.3 0-.1-.2c.1-.1.3-.6.4-.7.4-.6 1.1-1.5 1.1-1.5.3-.4.4-1.2.5-1.6.2-.7.1-1.6.1-1.6-.1-.4-.3-2-.3-2.2v-.7c0-.1-.2-.6-.3-.8-.1-.2-.3-.6-.4-.7 0 0-.4-.5-.4-1.1 0-.4-.2-.7-.2-.7s-.2-.6-.6-1.1c-.1-.2-.6-.7-.8-.9-.2-.3-.6-.8-.6-1-.1-.2-.3-.6-.3-.7-.1-.2-.2-.7-.3-.8s-.2-.4-.2-.4l-.1-.1v.8c0 .2.1 1.6.2 2.2.1.6.1.9 0 1.3s-.3.6-.4.7c-.1.1-.3.5-.3.6 0 .2-.2.8-.4 1.1-.1.3-.2.5-.3.7 0 0-.9 1.8-1.3 3.1-.2-.3-.6.8-.6 1.1l-.4 1.4c-.2 1-.8 1.1-.8 1.1-.2 0-.3.1-.4.1-.1.1-.4.3-.5.4s-.3.5-.3.5c.2.5.1.9.1.9-.1.4-.3.5-.3.5H43c-.1 0-.1-.1-.1-.1.3-.9 1-1.6 1-1.6.4-.4 1.1-.9 1.2-1.1.2-.2.7-.5.8-.7.1-.2.3-.8.4-1 .3-.6.4-1.2.4-1.2 0-.3.2-.9.2-1 .4-1.4 1.2-3.1 1.2-3.1 0-.2-.1-1.3-.2-1.4-.1-.6.1-1.5.1-1.5 0-.1 0-.6-.1-.8 0-.2-.1-.7-.2-1-.1-.3-.1-.9-.3-1.4 0 0-1.1-3.2-1-5.8-2-.8-3 .4-3 .4-3.5 3.7-11.8 2.2-11.8 2.2-1.1-.3-2.1-.2-2.7-.1-.6 0-1.1.2-1.6.3-.5.1-.7.1-.7.2v1.2s.6 5 1.1 7.5c.1.4.5 2.1.5 2.4.1.3.6 2.3.8 2.8.1.5.3 1 .2 1.3-.1.3-.2.5-.4.6 0 0-.6.5-.8 1.3 0 0 .2.4.1 1 0 0 0 .2-.1.4-.1.1-.3.2-.3.2h-2.3c-.1 0-.1-.1-.1-.1 0-.2.3-.7.3-.7.2-.3.6-.7.8-.9 0 0 .9-1.3 1-2.1 0-.3 0-.8-.1-1.1 0-.3-.2-1-.3-1.4-.1-.5-.4-1.4-.6-1.6-.1-.2-.8-2-.9-2.2l-.4-.8c-.1-.2-.2-.6-.3-1 0 0-.3 1.1-.4 2.4v2.4c0 .1.2 1.2.2 1.5.1.7.2 1.9.2 1.9 0 .1 0 .6-.1.7-.1.2-.3.5-.5.5-.2.1-.4.1-.5.2s-.2.4-.3.5c0 .1-.2.3-.1.3 0 .1 0 .1.1.3 0 0 .3.4-.2 1.1l-.1.2h-2.4s-.1 0-.1-.1c-.1-.1.1-.3.1-.3.2-.4.5-.7.6-.8s.5-.5.5-.6c.3-.3.8-1 .8-1 .5-.8.5-1.9.5-1.9 0-.6-.2-2.6-.2-2.9s-.2-.7-.3-.9c-.5-1.1-.7-2.6-.7-2.6 0-.3-.1-1.2-.1-1.5-.1-2.3-1-4.2-1-4.2-.1-.3-.5-1-.5-1.2-.1-.2-.2-.8-.3-1 0-.2 0-.4-.3-.5s-.8-.4-1.1-.7c0 0-2.6-2-2.9-5.3-.1-1-.3-2.5-.4-2.7 0-.1 0-.6-.9-1.6s-1.3-1.4-1.8-2.4c-.6-.9-1.2-2.3-1.5-2.8-.2-.5-.3-1-.5-1.2-.2-.3-.5-.5-.9-.6s-.6-.1-.6 0c-1 1-1.6.9-2.5.7-.3-.1-1.1.8-2 1.4-.3.2-.5.2-.8.5 0 0-.2.2-.3.6-.2.5-.3.5-.8.9-.2.1-.5.2-1 .2-.5-.1-.9-.2-1-.4s-.1-.3-.2-.4c-.1-.1-.2-.3-.3-.4-.2-.3-.2-.6-.2-.7 0-.3.1-.3.2-.6.2-.5.1-.8.5-1.4.7-1 1.3-1.7 1.3-1.7 1-1.2.9-2.7.9-2.7 0-.2 0-.6.1-.8.2-.3.3-.4.6-.6.2-.2.4-.5.5-.6 0 0 .1-.2.1-.6 0 0 0-.3-.1-.5 0 0-1-1.1-.8-2.3 0-.2.4-.4.6 0 .6.8 1.2 1.4 1.2 1.4s.4-.2.9-.2V3c0-.2-.2-.4-.2-.7 0-.1 0-.4.1-.5.1-.3 0-.6 0-.8 0-.1.2-.3.4-.1.9.7.9 1.5.9 1.5v.8c.4.3 1 .5 1 .5zM18.1 47.9c-.1.1-.1.3-.2.4s-.2.2-.4.2c-.1.1-.3.1-.5.1s-.3 0-.4-.1-.3-.1-.4-.2c-.1-.1-.2-.2-.2-.4-.1-.1-.1-.3-.1-.4 0-.2 0-.3.1-.4.1-.1.1-.3.2-.4.1-.1.2-.2.4-.2.1-.1.3-.1.5-.1s.3 0 .4.1.3.1.4.2.2.2.2.4c.1.1.1.3.1.4s0 .3-.1.4zm-.1-.8c-.1-.1-.1-.2-.2-.3s-.2-.2-.3-.2c-.1-.1-.3-.1-.4-.1s-.3 0-.4.1-.2.1-.3.2c-.1.1-.2.2-.2.3-.1.1-.1.3-.1.4s0 .3.1.4.1.2.2.3.2.2.3.2c.1.1.3.1.4.1s.3 0 .4-.1.2-.1.3-.2c.1-.1.2-.2.2-.3.1-.1.1-.3.1-.4 0-.2 0-.3-.1-.4zm-.5.4c0 .1-.1.1-.2.1l.3.4h-.3l-.3-.4h-.2v.4h-.3v-1.2h.5c.1 0 .3 0 .3.1.1.1.1.2.1.3.2.1.2.2.1.3zm-.2-.4h-.5v.4h.5l.1-.1c-.1-.2-.1-.3-.1-.3z"/></g></svg>