<svg id="K" xmlns="http://www.w3.org/2000/svg" viewBox="0 0 291.8 289.78"><defs><style>.cls-1,.cls-2,.cls-3,.cls-4,.cls-5,.cls-6{fill:#fff;stroke:#fff;}.cls-1,.cls-2{stroke-miterlimit:10;}.cls-1{fill-rule:evenodd;}.cls-3,.cls-6{stroke-linejoin:round;}.cls-3,.cls-5,.cls-6{stroke-width:0.26px;}.cls-4,.cls-6{stroke-linecap:round;}.cls-4,.cls-5{stroke-miterlimit:2.61;}.cls-4{stroke-width:0.19px;stroke-dasharray:0.19 0.56;}</style></defs><title>LFUCG Seal K_White</title><path class="cls-1" d="M108.92,190.27V170.89l6.24,0V169.7h1.32l0-3.17c-1.41-.44-0.74-2,0-2.52l0-1-2.17-2.33v-1.06h-1.05l-0.05.73H112.6v-0.76h-2l0,0.33H110l0-1.38c-3.19-3-4.56-6.72-5.86-10.68l2.43-1.21c0.93,3,3.12,5.28,4.7,5.71-2.79-4.38-5.94-14.94-4.87-16.5l0.65-.95h9.11V133.3l-1-.38,0.07-3.48-1.78,0,0.12-3,42.65-18.25,42.22,17.38,0,3.86-2.88,0,0,3.55L195,133l0,1.72h13l0.05,1.45A25.5,25.5,0,0,0,202.63,147c-1,2.21,1.2,9.61,2.24,7.2,1.07,0.16,1.57,2.3-2.87,10.67-1,1.86-3.26,5.12-2.83,6.54h4v18.74l-94.27.1h0Zm46.28-73.6L129.81,127H181l-25.83-10.32h0Zm46.24,48a23.5,23.5,0,0,0,3.62-7.8c0.09-.76.28-2-0.07-1.62-2,1.88-3.33-5.53-3-7.68,1.09-6.69,4.48-9.5,4.74-11.18H195v33.39l1.17,0,0.09,1.59h1.77l0.4-2c0.92-1.44,1.6-2.46,2.23-3.46h-4.42V153.63h5.18v11h0Zm-4.92-26,0,11.7h4.92l0.1-11.72-5,0h0Zm0.67,0.88v3.93h1.33v-3.93h-1.33Zm-13.6.76v3.16h0.73v-3.16h-0.73Zm-12.44.1v3.17h0.6v-3.17h-0.6Zm-17.34,0v3.17h1.38v-3.17H153.8Zm-28.34-.19,0,3.41h1l0-3.41h-1ZM111.14,140v3.17h1.38V140h-1.37Zm0.06,14.61v3.95h1.38V154.6H111.2Zm26.75-14.27v3.38h1.2v-3.38h-1.2ZM125,154.6l0,4.44h1.45l0-4.44H125Zm12.68,0.17,0,4.36,1.31,0,0-4.36-1.31,0h0Zm59.44,0v4.08h1.39v-4.08h-1.39Zm-14.1-.26v4.37h1.39v-4.37H183Zm-12.72.13V159h1.39V154.6h-1.39Zm28.9,4.89,0,3.36-0.82-.05v-3.34h-1.25l0,4.49h3.52v-9.23h-1.37v4.08h0.68l-0.19.69h-0.5Zm-14.19,0,0,2.6h-0.79v-2.6H183l0,4.5h3.52v-9.5h-1.37v4.41l0.68-.05-0.14.65H185Zm-12.55.18v4h-0.67v-4h-1.58l0,4.5h3.52v-9.5l-1.08,0v4.35l0.81,0-0.21.69-0.74,0h0Zm26.79-20.13v3.93h1.5v-3.93h-1.5Zm-14.2.71v3.22h0.71v-3.22h-0.71Zm-12.7.1v3.22H173v-3.22h-0.59Zm-16.55,0v3.22h1v-3.22h-1Zm-28.77-.15v3.43h0.79V140.2h-0.79ZM113.18,140v3.22h1V140h-1Zm0.13,14.61v4.15h1v-4.15h-1Zm26.42-14.16v3.26h0.87v-3.26h-0.87Zm-12.54,14.2,0.07,4.45h1.16l-0.07-4.45h-1.16Zm12.63,0.19,0,4.29H141l0-4.29h-1.16Zm57.39-10.65v4.61h3.46v-4.61h-1.39l-0.07,3.4-0.78,0,0-3.41h-1.19Zm-13.59,0,0,4.19h2.19v-4.19H185l0,3.44h-0.51v-3.41l-0.79,0h0Zm-12.45.1,0,4.19H173v-4.19h-0.66l0,3.44h-0.43v-3.41l-0.66,0h0Zm-17.32,0-0.05,4.19h3v-4.19h-1l0,3.47-0.59,0v-3.41l-1.32,0h0Zm-28.37.21,0,3.73,2.3,0V144.5l-0.88,0,0.08,2.72-0.59,0-0.06-2.65-0.88,0h0Zm-14.29-.59-0.05,4.19h3v-4.19h-1l0,3.47-0.59,0V143.9l-1.32,0h0Zm26.73,0.2,0,4.31h2.78l0-4.31h-1l0,3.62-0.55,0,0-3.56-1.23,0h0ZM125,159.74v4.47h3.55l0-4.47-1.37,0,0,3.21h-0.65l0-3.21-1.48,0h0Zm12.7,0,0,4.49,3.22,0v-4.32l-1.07,0,0.07,2.86-0.82,0,0.05-2.92-1.41,0h0Zm55.82-12.27,0.56,6.75v-6.75h-0.56Zm-12.9.92,0.92,21.25,1.34-.05,0.09,1.49h2L185,169.61h1.23l0.39-3.68h-4.52v-12.4l5.15,0,0.56-5.78-0.31-1.33-0.27-.08-0.1,3.3-0.51.9-4.55.06-0.07-.74,0.81-.57,0-1.67-0.84.79h-1.29Zm-10.78,17.5,0.21,3.88h1.18l0,1.43h1.1l0-1.45h1l0-3.82-3.61,0h0Zm-32.73.23,0.21,3.54,1.26,0.06-0.07,1.43,1.48,0,0-1.37,1.66,0v-4.13l-0.49.48h-4.08Zm-13.3-.13,0.15,3.56,1.41,0L125.37,171l2.12,0,0-1.26H129l0.21-3.69-5.39-.09h0Zm44.78-18.68,0.77,11.81,0.26-5.36,4.84-.06,0.21-6.49h-0.36l0,1.95-0.45,1.27-4.46,0-0.05-2.08-0.71-1h0Zm-20.7.82,0.66,9,0-4.91,14,0.06,0-.71-13.78,0V151l14.22,0,0.16-3.1-0.55,0,0.09-2.61-0.17-1.31-0.12,3.78-1.08.82-0.77-.14-0.1-2.25-0.12,2.26-1-.14-0.07-2.49-0.17,2.36-0.66.09,0,1.37-0.61.91-5.7.06v-2.26h-1l-0.3-.51-0.68.59-0.44-.5-0.82.35-1,0h0Zm1.78,4.8,1.43,0.92,9.33,0.05,1.43-1H149.72Zm11.22,5.62v11.19h0.94l0.53-11.15-1.47-.05h0Zm0.1-4.14,0,3.29,1.44,0v-4.5L161,154.42h0Zm-11.69-.93,0.1,4.25h1.32l-0.17-3.27-1.24-1h0Zm0.07,5.07v11.29l0.56-.05,0.05,1.48h0.71V158.56h-1.32Zm6.19,0.76-4.25,0v0.64l4.22,0,0.13,11.39h0.61l-0.12-11.39h4v-0.55h-4L156,154.42h-0.49l0.08,4.9h0Zm-3.7-3.71v2.08h0.57V155.6H151.9Zm-0.06,5.55v1.62h0.57v-1.62h-0.57Zm0.06,3.53v4.58h0.58v-4.58H151.9Zm1.76-9.12v2.08h0.58v-2.08h-0.58Zm-0.06,5.56v1.62h0.57v-1.62H153.6Zm0.06,3.49v4.58h0.58v-4.58h-0.58Zm3.35-9v2.08h0.58v-2.08H157Zm-0.06,5.56v1.62h0.57v-1.62h-0.57Zm0.06,3.49v4.58h0.58v-4.58H157Zm2-9v2.08h0.57V155.6h-0.57ZM159,161.15v1.62h0.57v-1.62H159Zm0.06,3.53v4.58h0.57v-4.58h-0.57Zm-36.43-16.77,1.22,17,0.13-11.4,5.33,0.07-0.09,9.06,0.63-14.86-0.5.14-0.08,2-0.41.5-5.48-.09-0.07-2.18-0.66-.21h0Zm13,0,1.18,17-0.15-11.17,5,0,0.08,8.86,0.56-14.86-0.45.14-0.07,2-0.37.5-5,0,0.07-1,4.95,0-0.17-.23-4,0L137.16,148h-0.92L136,145.73,136,148h-0.3Zm-18.85,2.67,0.11,7.64,0.26-7.64h-0.37Zm-0.62-14.11-8.84.06a31.14,31.14,0,0,0,2.59,11.2l0-8.69,5.23-.14,0.09,10.69-0.8,1h-3.14l1.27,2.37c-3,0-4.82-2.26-6.36-5.39l-1.17.62a32.69,32.69,0,0,0,4.93,9.62l0.06-4.19,5.13-.06-0.18,7,1.2,1.56V136.51h0Zm0.46-5.9-0.79.23v1.75H117v-2.3l-0.22-.31-0.15.64h0Zm5.54,0.06-1.71,0v2h4.44v-1.82l-0.91-.19L124,129.13l-0.38-.06v1.63l-0.83,0v-1.46l-0.55,0v1.46h0Zm6.92,0.11h-0.23l0-1.66-0.22,0v1.63h-0.38v1.88h4.21V131h-0.7l0-2h-0.5v1.53l-0.88,0L130.36,129H130v1.51l-0.4,0v-0.4h-0.43l0,0.71h0Zm8.2-.1h-1.17l0,1.93h6l0-1.6h-0.53l0,0.39h-0.46v-2.07h-0.29v1.27h-0.56v-1.39l-0.58,0v1.49l-0.53,0v-1.56l-0.56,0v1.48l-0.86,0v-1.39l-0.43,0v1.54h0Zm20.88-.44h-0.89v2.37h6.87v-3.46h-0.27l0,1.49h-0.19v0.94l-0.43,0v-2.46h-0.47v1.13l-1.85,0v-1.05h-0.33l0,1.44-1.05,0,0-1.48-0.45,0v1.26h-0.6v-1.24h-0.43v1.08h0Zm10.38,0.45H168V130.1h-0.36l0,2.51h6.71l0-3.59H174v1.64h-1l0-1.65h-0.79l0,1.32c-0.17.44-.58,0.48-0.78,0v-1.1H171l0,1.53h-0.9v-1.5h-0.35l0,1h-0.63V129h-0.55v1.69h0Zm10.81-.08h-0.91v1.88h4.3v-3.43h-0.26v1.65h-0.65l0-1-0.42,0-0.32.54,0-1.13h-0.44v1.29l-0.82,0-0.06-1.27h-0.41v1.55h0Zm6.62-1.55v3.29h4.46l0-1.84-1.22,0v-1.49h-0.58l0,1.45-0.82,0v-1.41h-0.44v1.53H186.5v-1.53H186Zm7.92,1.19,0,2.11h1.32V131.3l-0.55-.32-0.05-.61-0.74-.12h0Zm-43.78.37-0.66,0v-1.32H149v1.33l-0.71,0,0-1.27-0.45,0,0,1.28h-0.78l0-1.25-0.41,0v1.14l-0.61,0,0-1.08H145.6v3.15h8.1v-1.79l-0.37,0v-0.88L153,130l0,0.76-1-.27v-1.17l-0.42,0v1.29l-0.82-.07,0-1.34h-0.58v1.35h0Z" transform="translate(-9.34 -11.05)"/><path class="cls-1" d="M155.24,11.55l7.44,0.17,7.43,0.6,7.26,0.94,7.18,1.29,7,1.54,6.91,2,6.74,2.23L211.78,23l6.48,2.83,6.22,3.26,6.14,3.52,5.88,3.77,5.71,4,5.45,4.29L253,49.13l5,4.8L262.87,59l4.49,5.23,4.32,5.4,4.06,5.66,3.8,5.83,3.54,6.09,3.29,6.18,2.85,6.43,2.68,6.52,2.25,6.78,2,6.78,1.56,7,1.3,7,1,7.29,0.52,7.29,0.17,7.46-0.17,7.29L300,170.7l-1,7.21-1.3,7.12L296.15,192l-2,6.86-2.25,6.69-2.68,6.52-2.85,6.35-3.29,6.26-3.54,6.09-3.8,5.83-4.06,5.66-4.32,5.41L262.87,253,258,258l-5,4.8-5.36,4.55-5.45,4.29-5.71,4-5.88,3.77-6.14,3.43L218.26,286l-6.48,2.92-6.57,2.66-6.74,2.23-6.91,2-7,1.63-7.18,1.2-7.26.94-7.43.52-7.44.26-7.43-.26-7.35-.52-7.26-.94-7.17-1.2-7-1.63-6.92-2-6.74-2.23-6.66-2.66L92.31,286l-6.22-3.17L80,279.4l-6-3.77-5.62-4-5.62-4.29-5.19-4.55-5.1-4.8-4.76-5-4.67-5.32-4.32-5.41-4.06-5.66-3.8-5.83-3.46-6.09-3.2-6.26-2.94-6.35-2.59-6.52-2.33-6.69L14.51,192,12.87,185l-1.29-7.12-1-7.21-0.52-7.38L9.84,156l0.26-7.46,0.52-7.29,1-7.29,1.29-7,1.64-7,1.9-6.78,2.33-6.78,2.59-6.52,2.94-6.43,3.2-6.18,3.46-6.09,3.8-5.83,4.06-5.66,4.32-5.4L47.79,59l4.76-5.06,5.1-4.8,5.19-4.46,5.62-4.29,5.62-4,6-3.77,6.05-3.52,6.22-3.26L98.71,23l6.66-2.66,6.74-2.23,6.92-2,7-1.54,7.17-1.29,7.26-.94,7.35-.6,7.43-.17h0ZM293.4,156l-0.16,7-0.49,7-0.9,6.87-1.23,6.79-1.48,6.62-1.89,6.54-2.13,6.38-2.55,6.22-2.71,6.05-3.12,6-3.37,5.81-3.62,5.56-3.86,5.4-4.11,5.15-4.27,5.07-4.6,4.74-4.76,4.58L243,262.11l-5.17,4.09L232.45,270l-5.58,3.6L221,276.91l-5.91,3L209,282.72l-6.24,2.54-6.41,2.13-6.57,1.88-6.65,1.55L176.27,292l-6.9.9-7.06.49-7.06.24-7.06-.24-7-.49-6.9-.9-6.82-1.14-6.65-1.55-6.57-1.88-6.41-2.13-6.33-2.54-6.08-2.78-5.92-3-5.75-3.27L78.12,270l-5.34-3.84-5.34-4.09-4.93-4.33-4.85-4.58-4.52-4.74-4.44-5.07-4.11-5.15-3.86-5.4-3.62-5.56-3.29-5.81-3-6L28,209.43l-2.46-6.22-2.22-6.38-1.81-6.54L20,183.67l-1.23-6.79L17.83,170l-0.49-7-0.25-7,0.25-7.12,0.49-7,0.9-7L20,128.3l1.56-6.71,1.81-6.46,2.22-6.46L28,102.45l2.79-6.13,3-5.89,3.29-5.81,3.62-5.56,3.86-5.4,4.11-5.15,4.44-5,4.52-4.83,4.85-4.58,4.93-4.25,5.34-4.09,5.34-3.84,5.67-3.6L89.53,35l5.92-3.11,6.08-2.7,6.33-2.54,6.41-2.13,6.57-1.88,6.65-1.47,6.82-1.23,6.9-.9,7-.57,7.06-.16,7.06,0.16L169.37,19l6.9,0.9,6.82,1.23,6.65,1.47,6.57,1.88,6.41,2.13L209,29.17l6.16,2.7L221,35l5.83,3.35,5.58,3.6,5.42,3.84L243,49.86l5.09,4.25,4.76,4.58,4.6,4.83,4.27,5,4.11,5.15,3.86,5.4,3.62,5.56,3.37,5.81,3.12,5.89,2.71,6.13,2.55,6.22,2.13,6.46,1.89,6.46,1.48,6.71,1.23,6.71,0.9,7,0.49,7Z" transform="translate(-9.34 -11.05)"/><path class="cls-2" d="M154.9,253.39l-5-.17-4.92-.34-4.9-.64-4.81-.81-4.73-1.1L125.93,249l-4.52-1.5-4.49-1.8-4.3-2-4.18-2.14-4.06-2.31-4-2.54L96.56,234l-3.83-2.94-3.43-3-3.42-3.23-3.2-3.36-3.13-3.58-2.91-3.64L73.9,210.4l-2.56-3.93L69,202.34l-2.15-4.22-2-4.27-1.75-4.41-1.57-4.5-1.29-4.66-1.1-4.67-0.88-4.81-0.64-4.86-0.35-5L57.14,156l0.17-5,0.35-4.9,0.64-4.93,0.87-4.75,1.1-4.74,1.27-4.57,1.57-4.59,1.74-4.4,2-4.34L69,109.6l2.32-4.1,2.57-4,2.73-3.82,2.91-3.65,3.14-3.54,3.17-3.39,3.44-3.26,3.48-3L96.53,78l3.76-2.71,4-2.56,4.05-2.37,4.18-2.2,4.32-1.92,4.46-1.79,4.55-1.51,4.64-1.33,4.73-1,4.81-.87,4.88-.64,4.94-.41,5-.12,5,0.11,5,0.4,4.88,0.63,4.82,0.87,4.7,1,4.67,1.33,4.52,1.5,4.44,1.8,4.43,1.94,4.12,2.17,4.11,2.36,4,2.55,3.83,2.72,3.67,2.9,3.66,3.06L224,87.08l3.25,3.41,3,3.54,2.89,3.63,2.74,3.82,2.56,3.93,2.39,4.11,2.25,4.25,1.89,4.28,1.83,4.47,1.49,4.5,1.36,4.65,1,4.67,0.87,4.73L252.2,146l0.35,4.93,0.12,5-0.11,4.91-0.35,5-0.64,4.88-0.87,4.8-1,4.68-1.34,4.65-1.5,4.5L245,193.79l-1.91,4.26-2.22,4.24-2.38,4.1-2.56,3.94-2.73,3.82-2.91,3.65-3.07,3.64L224,224.77,220.68,228l-3.62,3.08L213.41,234l-3.84,2.73-3.95,2.54-4.14,2.33-4.17,2.14-4.36,2-4.4,1.79L184,249l-4.64,1.33-4.71,1.1-4.84.82-4.86.63-5,.35-5,.18h0ZM94.67,228.78l3.68,2.82,3.69,2.65,3.88,2.46,3.94,2.24,4.06,2.08,4.17,1.91,4.34,1.74,4.38,1.45,4.52,1.29,4.56,1.06,4.66,0.78,4.75,0.62,4.78,0.33,4.82,0.17,4.87-.17,4.87-.34,4.72-.62,4.7-.79,4.54-1.06,4.51-1.29,4.41-1.46,4.26-1.73L196,241l4.05-2.08,4-2.25,3.81-2.46,3.72-2.64,3.54-2.8,3.51-3,3.25-3.13,3.13-3.23,2.94-3.49,2.84-3.56,2.64-3.7,2.48-3.82,2.31-4,2.14-4.11,1.85-4.14,1.76-4.29,1.45-4.35,1.3-4.5,1-4.53,0.85-4.67,0.62-4.72,0.34-4.81,0.11-4.78-0.11-4.89-0.34-4.77-0.62-4.76-0.85-4.6-1-4.57-1.3-4.45-1.46-4.4-1.75-4.28L240.38,115,238.23,111l-2.32-4-2.48-3.81-2.65-3.71L228,95.94,225,92.5l-3.15-3.3-3.23-3.11-3.51-2.93-3.57-2.82-3.72-2.63L204,75.23l-4-2.3-4-2.11L191.73,69l-4.31-1.75L183,65.76l-4.52-1.29-4.55-1-4.69-.84L164.55,62l-4.85-.39-4.84-.11-4.85.11-4.78.39-4.74.62-4.68.84-4.58,1-4.49,1.29-4.41,1.46L118,69l-4.18,1.86-4,2.12-3.95,2.3L102,77.74l-3.65,2.63L94.63,83.2l-3.37,2.91-3.33,3.15-3.08,3.3L81.79,96,79,99.53l-2.64,3.7-2.48,3.82-2.24,4-2.09,4.05-1.91,4.21-1.69,4.26L64.4,128l-1.23,4.42L62.1,137l-0.85,4.61-0.62,4.77-0.33,4.76L60.14,156l0.17,4.79,0.34,4.85,0.62,4.7L62.12,175l1.07,4.54L64.43,184l1.52,4.35,1.69,4.27,1.91,4.14,2.09,4.11,2.26,4,2.47,3.8L79,212.42l2.81,3.53,3,3.48,3.1,3.26,3.32,3.14,3.36,3h0Z" transform="translate(-9.34 -11.05)"/><path class="cls-2" d="M159.93,43.79l3.27,0.08-0.52-13.81-2.75,13.73h0ZM128.25,30.06l2,10.32c3.42-.76,3.39-2.31,2.57-5.9s-1.16-5.28-4.58-4.42h0ZM74.09,258.6l-3-2.22,16.31-18.53-4.27-3.68,2.35-2.57,7.06,6.3L74.09,258.6h0Zm-9.39-8-6.77-6.82,2.34-2.19,4.22,4.13,6-6.33-3.35-3.06,2.33-2.1,3.25,3.16,7.11-6.86-4.21-4.11,2.22-2.1,6.55,6.6L64.7,250.61h0Zm-2.57-21.69-8.37,10.6-2.08-2.67,4.87-6.26-7.3,2.7-2.16-2.67,12.58-4.55,9.8-12.51,2.25,2.87-6.61,7.78,9.41-3.47,2.36,2.76-14.75,5.44h0Zm6.39-17.28L44.06,226.23,42.16,223,66.52,208.8l2,2.85h0Zm-28.25,8.62-1.45-2.77L51.4,207,37,214,35.68,211l25.57-12.3,1.18,2.67L50.12,211.8l14.35-6.59L66,208.07,40.27,220.27h0Zm0-26.52,1.37,2.87-5.82,2.49c-1.5.64-1.89,1.95-1.43,2.73,1,1.7,3.06.67,3.33,0.56L53.36,196c2-.81,2.8-1.65,2.25-2.87-0.91-2-2.27-1-4.23-.36L47,194.6,48,197l-3,1.12-2.27-5.58,7.31-3c5.24-2.13,7.56-.3,8.53,1.93s1.45,5.5-3.73,7.67L39,205.51c-3.88,1.53-6.55-.62-7.18-1.93s-2.08-5.08,2.9-7.55l5.54-2.28h0Zm-8.65-3.41,0.9,3.81-3.15.94-3.21-11.44,3.06-.83,1.08,3.72,24.6-6.37,1.22,3.6-24.51,6.57h0Zm1-11.33c-5,.86-7.79-0.23-8.26-4.22s2.19-5.63,5.54-6l15.91-1.93c4.36-.57,7.06-0.11,7.53,4.35s-2.28,5.4-5.81,5.85L32.61,179h0Zm-9-12.43-0.12-3.25,16.71-4.78-17.09.76-0.21-3.25L52,155l-0.08,3.25-16.13,4.46,16.71-.54,0,3.15-28.89,1.23h0Zm3.7-45.08,2.83-9.06,3.16,0.89L31.58,119l9,3,1.29-4.14,2.88,0.78-1.29,4.23,13,4.41-1.13,3.49-28-9.34h0Zm5.43-15.3,1.93-4.29,28.55,8.42-1.3,3.31-7.67-2.53-1.46,3.26,6.8,4.08-1.3,3.32L32.75,106.18h0Zm20.55-5.92L37.61,95l1.74-3.23,11,4.08-8-8.56,1.83-2.79L55.48,97.2l10.85,7.56-1.92,2.7L53.3,100.26h0Zm-3.65,12.53L51,110.13l-12.59-4,11.22,6.7h0ZM31.84,175.66l14.77-1.91c1.29-.25,3.84-0.08,3.54-2.21s-2.43-1.36-3.89-1.29l-14.9,1.86c-2.44.31-4,.22-3.9,2.16s2.31,1.66,4.38,1.38h0Zm13.39-93,5.46-7.57L53.4,77,50,81.75l7.62,5.62,2.93-3.89,2.62,1.92-2.94,3.89,8.23,6.05,3.64-4.86,2.79,2.18-5.72,7.65-24-17.69h0Zm12-10.71-2.68,3-2.71-2.36,8.16-9L62.49,66l-2.86,3L79.07,86.88l-2.53,2.88L57.19,71.91h0Zm9.78-10-2.86,2.6L61.4,61.9,70.52,54,73,56.52l-3,2.87L87.11,79.51l-3,2.53L67,61.92h0ZM73.3,52l7.64-5.66,2.19,2.79-4.77,3.56,5.72,7.62,4.06-2.77L90,60.31l-4.15,2.77L92,71.57l4.76-3.3,2,2.62-8.08,5.57L73.3,52h0Zm36.08-20.1,3.4-1,7.14,23.88c0.31,1,1,2.26,2.33,1.72s1.41-1.39.93-3.11L116.3,29.88l3.32-.87,6.89,23.68a5.35,5.35,0,0,1-3.11,6.87,5.44,5.44,0,0,1-7-3.57l-7.05-24.13h0ZM124,27.8l5.33-1.05c5.45,0,5.89,2.07,6.75,6.86s0.62,7-1.08,8.16l6.32,13.45-3.75.79-5.45-12.7-1.31.32L133,56.52l-3.58.79L124,27.8h0Zm17-3,5.14-.26c4.56,0.14,5,3.2,5.55,7.82-0.33,2.94.77,5.53-2.5,6.95,2.71,0.77,3.62,1.32,3.82,7.11s-0.92,7.84-4.66,8.25l-5.58.26L141,24.83h0Zm19.78-.1,4.64,0.44,1.19,30.47-3.49-.26,0.18-8.19-3.87-.25-1.48,7.84-3.84-.26,6.66-29.79h0Zm14.69,1.37,2.88,0.7,0.5,17.62,4-16.42,3.14,0.61L179.15,58.4l-3-.78-0.32-18.68-4,17.56-3.14-.7,6.7-29.7h0Zm41.52,35-4,6.17c-4.09,6.16-12.15.34-9.41-4.78L214,44.73c2.1-3.05,5-3.16,7.2-1.84,1.67,1,3.31,3.71,1.67,7.23l-3.15,5.34L217,53.79l2.82-5c1.73-2.79-1.05-4.83-2.83-2-3.54,5.8-6.59,11.33-10.13,17.13a1.86,1.86,0,0,0,.51,2.67,2,2,0,0,0,2.5-1l3.94-6.29L217,61.08h0Zm9-8.89c2.25-2.77,5.32-3.12,7.79-1.36,3.47,2.46,2.65,4.68,1.07,7.9L222.69,75.08c-1.94,1.15-4.45,2.34-7.39-.18-2.53-2-3-3.58-.58-7.08L226,52.19h0Zm6,1.12c-1-.33-2.46.1-3.78,1.9-3.34,4.56-9.13,12.64-10.77,14.85-1,1.39-.58,2,0.2,2.7s1.26,0.74,2.1.35l2.17-2.43c3.51-4.76,6.87-9.62,10.38-14.38a2.12,2.12,0,0,0-.29-3h0Zm9.29,4.41L243.86,60,226.69,78.15c-1.82,1.86.5,4.07,2.41,2.58l17.63-18.32,2.31,2.44L232,82.66c-6.92,5.83-12.73-2.55-8-7l17.18-17.94h0Zm11,9.93,2.27,2.11-9.79,13.87,12.41-10.51,2.18,2.58L236.51,95.23l-2-2.15,9.83-14L231.84,89.5l-2.23-2.36L252.2,67.66h0ZM260.62,83l-2.21-3.1L261.1,78l6.72,9.56-2.54,2-2.45-3.38L241,101.6l-2-2.82L260.62,83h0Zm-4.88,18.35,13.2-12,1.54,2.94-9.08,8.25,11.65-3,1.73,3.08-16.95,3.81-11.77,6.21-1.73-3,11.41-6.25h0ZM274,138l-0.47-3.46,6.48-1.33c2-.4,2.34-1.37,2.13-2.39-0.38-1.48-1.13-1.87-4.09-1.14l-5.29,1.09-11.85,2.41c-3.84.78-3.24,4.42,0.72,3.57l5.83-1-0.3-2.41,3.27-.55,0.78,5.83-6.73,1.33c-5.09,1.08-8.95.07-9.38-4.08a5.53,5.53,0,0,1,5-6.1l17.84-3.61c3.15-.29,6,0,7.17,3.58,0.45,3.21-.26,5-4.21,6.81L274,138h0Zm9.26,7c-0.09-.9-0.94-1.74-3.33-1.22l-17.2,2.24c-2.59.34-3,1.25-2.89,2.21s0.63,1.56,3,1.39l17.75-2.24c1.8-.18,2.76-1.48,2.67-2.37h0Zm-3.41-4.79c2.93-.24,6.12.8,6.46,4.16s-1.64,5.51-5.33,6.35L263.06,153c-2.5.32-5.92-.62-6.38-4.37s1.7-5.52,5.67-6.05l17.47-2.36h0Zm7.63,11.38,0.13,3.56L267.38,158l20,2.51,0,3.55-29.85-4.12,0.23-4,29.61-4.26h0Zm-0.92,14.42-1.14,9.34-3.25-.35,0.68-5.72-9.19-.92-0.8,4.68-3.5-.27,0.68-4.86-9.79-1-0.91,5.67-3.31-.23,1.21-9.45,29.32,3.09h0Zm-1.63,13.67-0.9,4.72c-0.47,4.14-4.24,5.18-9.66,3.9s-5.72-2.89-6.13-3.58l-14.65.54,0.69-3.44,13.53-.48,0.2-1.43-12.62-2.51L256,174l28.88,5.74h0Zm-3.85,3.07-9.87-2.07-0.2,1.63c0.09,1.27-.05,2,4.07,2.82s5.47,0.33,5.75-1.12l0.26-1.26h0ZM145.61,41.25l0.53,10.39c4.34,0,3.24-1.1,3.62-4.76-0.61-5.64-.58-6.06-4.14-5.63h0Zm-0.79-13.37,0.53,10.05c3.45-.41,3.39-1.29,3.27-5.64s-1.54-4.58-3.8-4.41h0ZM281,195.82l-1.27,3.07-16.36-1.64,15.07,5.31-1.24,3.13-27.62-9.57,1-2.67L269,195l-17-5.53,1.21-3.13L281,195.82h0Zm-5.75,14.83-2.16,4.13-13.7-4.5,11.63,8.48-1.94,3.71-26.36-12.92,1.78-2.89,16.62,8.42L245.85,204l0.31-.5,19,5.74-17.59-8.67,1.54-2.81,26.19,12.92h0ZM266.46,227l-5.24,7.85-2.9-2.07,3.15-4.56-7.58-5.12-3.07,4-2.5-1.68,2.83-4.08L243,215.93l-3.54,4.8-2.67-2,5.49-7.64L266.46,227h0Zm-9.1,12.32-2.26,2.41-14.16-7.13,11.62,10.11-2.24,2.49-21.87-18.85,2-2.1L245.73,234l-12.65-10.81,2.42-2.48,21.86,18.61h0Zm-15.53,11.15,3-2.42,2.25,2.34L237.91,258l-2.17-2.58,3.1-2.57L222.12,234l2.76-2.47,17,19h0Zm-42.41,15.81L189.08,253l3.29-1.43,6.45,8.58-1.65-10.61,3.21-1.16,2.54,16.6,4.78,11.1-3.12,1.52-5.16-11.37h0Zm-14.51-1.6,0.34-10.43,3.13-1-0.1,13.29L198,279.88l-3.88,1.26-7-10.47,3.53,11.46-3.74,1.19-8.52-27.08,3.46-1,3.14,9.44h0Zm-3.29,7.38,1.22,6.17c0.58,2.91-1.24,6.18-3.57,6.51s-5.66.19-6.68-4.46l-2.95-15.48c-0.92-3.56,0-7.3,3.07-7.82,2.16-.36,4.88-0.57,6.65,5.15l1,4.46-3.28.54L176.21,263c-0.7-3.17-1.21-3.34-2.46-3.12-1.89.33-.93,1.44-0.82,3.51l3.29,16.83c0.38,1.35,1.19,1.83,2.15,1.49s1.41-1,1.07-2.63l-1.17-6.2,3.33-.79h0ZM157,259.35l3.43-.27,1.72,21.05c0.17,2.77.43,4.19,2.13,3.82s1.06-1.53,1.23-4.27l-1.81-20.78,3.43-.36L169,279.22c0.69,4.08-.39,7.18-4.3,7.88s-6.09-3.12-6.2-6.52L157,259.35h0Zm-9.42,3.21-3.9-.63,0.17-3.07,11.69,0.41-0.08,3.35-4.09,0-1.18,24.69-3.79-.17,1.18-24.6h0Zm-14.93-5.75,2.9,0.52L137,273.12,139.66,258l3.17,0.52-4.43,28-3.26-.62-1.32-16.24L131.06,285l-3.17-.52,4.79-27.7h0Zm-9.53-2.7,8.65,2.58-0.68,2.95-5.76-1.56-2.1,8.75,4.56,1.32-0.75,3.11-4.81-1.32-2.59,8.88,5.62,1.81-0.75,3-9.15-2.82,7.76-26.74h0Zm-13.22,11.54-1.2,12.58,3.52,1.58,1.31-16,9.11-10-3.27-1.26-7.21,7.68,3.95-9.12-3.67-1.51L101.57,275l3.52,1.51,4.84-10.9h0Z" transform="translate(-9.34 -11.05)"/><path class="cls-2" d="M159.46,230.26c-3.93-.48-5.17-4.88-1.85-9.66,2.38-3.13,5.55-4.77,7.79-8-3.09,1.77-4.57,2.59-8.79,1.61-0.7-.68-1-0.27-2-0.49l3.21-3.33c1.21,1.38,4,2.38,9.12.1-0.06,3.17-4,5.9-6.19,9.3s-2,7.37,1.48,6.7l-2.75,3.75h0Z" transform="translate(-9.34 -11.05)"/><path class="cls-2" d="M145.75,229.61c-3.93-.48-4.89-4.45-1.78-9.3,2.6-3,6.05-4.34,8.29-7.54-3.09,1.77-4,2.09-8.21,1.11-0.84-1-1.51-.34-2.46-0.78l3.21-3.33c1.21,1.38,4.25,2.95,9.4.67-0.06,3.17-4.83,6.11-7,9.51s-2.12,6.94,1.33,6.27l-2.82,3.39h0Z" transform="translate(-9.34 -11.05)"/><path class="cls-2" d="M169.54,214l-0.07,5.66,2.91-1,2.55-1.78c1.81,1.62,2.18,2.7,4,.88a3.42,3.42,0,0,1-1.58,2.87l0,6.82,0.58,0.75c-3-.34-4.52.08-6.74,1.86-1.93-1.69-3.37-1.7-5-.19,0.45-4.37,5.27-4.52,7.28-2.39l0.91-.26,0-7a3.23,3.23,0,0,1-1.75-1l-1.85.79-1.6.66c-0.22,1.88-2.85.13-.8-0.58l0-9.29,10.33-.07-0.89,1.93L177,214.06l-7.45-.05h0Z" transform="translate(-9.34 -11.05)"/><path class="cls-2" d="M139.8,226.07c-1,.5-2.24,2.38-3.29,3.72-2.69-2.59-3.23-1.9-5.71-1.43,0.1-1.78.62-2.2,3.12-3l0-12c-0.13-1-2.06-.83-2.49-1.33a11.86,11.86,0,0,0,3.95-2.37l1.59,1.85L137,225c0,1,.95,1.3,2.78,1.12h0Z" transform="translate(-9.34 -11.05)"/><polygon class="cls-1" points="146.89 97.75 188.55 114.89 188.59 117.83 187.93 117.83 187.92 115.42 146.77 98.54 105.49 115.98 105.45 117.79 104.55 117.8 104.61 115.72 146.89 97.75 146.89 97.75"/><path class="cls-1" d="M194,127.8l-38.37-15.73-37.57,16.24H194v-0.5Zm-4.07-.1-67.81,0v-0.46l33.51-14.46L190,126.71Z" transform="translate(-9.34 -11.05)"/><path class="cls-2" d="M110.37,149.09v-9.68h4.36l0,9.71-4.34,0h0Zm0.17-.17,4,0,0-9.37h-4v9.34h0Z" transform="translate(-9.34 -11.05)"/><path class="cls-2" d="M196.79,149.18V139h4.36l0,10.2-4.34,0h0ZM197,149l4,0,0-9.85h-4V149h0Z" transform="translate(-9.34 -11.05)"/><polygon class="cls-1" points="108.35 117.94 110.58 117.94 110.58 121.51 108.35 121.51 108.35 117.94 108.35 117.94"/><polygon class="cls-1" points="116.19 118.07 118.42 118.07 118.42 121.64 116.19 121.64 116.19 118.07 116.19 118.07"/><polygon class="cls-1" points="123.56 118.06 126.29 118.06 126.29 121.63 123.56 121.63 123.56 118.06 123.56 118.06"/><polygon class="cls-1" points="133.2 118.13 135.59 118.13 135.59 121.7 133.2 121.7 133.2 118.13 133.2 118.13"/><polygon class="cls-1" points="144.92 118.09 147.31 118.09 147.31 121.66 144.92 121.66 144.92 118.09 144.92 118.09"/><polygon class="cls-1" points="155.57 118.17 157.9 118.17 157.9 121.64 155.57 121.64 155.57 118.17 155.57 118.17"/><polygon class="cls-1" points="165.7 118.12 168.52 118.12 168.52 121.58 165.7 121.58 165.7 118.12 165.7 118.12"/><polygon class="cls-1" points="174.17 118.12 176.12 118.12 176.12 121.48 174.17 121.48 174.17 118.12 174.17 118.12"/><polygon class="cls-1" points="181.67 118.13 183.89 118.13 183.89 121.5 181.67 121.5 181.67 118.13 181.67 118.13"/><polygon class="cls-1" points="107.71 122.11 185.07 122.03 185.06 122.9 107.72 122.98 107.71 122.11 107.71 122.11"/><polygon class="cls-1" points="178.23 124.73 184.17 124.73 184.17 125.65 178.23 125.65 178.23 124.73 178.23 124.73"/><polygon class="cls-1" points="165.5 124.88 171.44 124.88 171.44 125.79 165.5 125.79 165.5 124.88 165.5 124.88"/><polygon class="cls-1" points="153.82 124.91 159.77 124.91 159.77 125.83 153.82 125.83 153.82 124.91 153.82 124.91"/><polygon class="cls-1" points="132.42 124.91 138.37 124.91 138.37 125.83 132.42 125.83 132.42 124.91 132.42 124.91"/><polygon class="cls-1" points="120.72 124.94 126.66 124.94 126.66 125.86 120.72 125.86 120.72 124.94 120.72 124.94"/><polygon class="cls-1" points="107.88 124.88 113.82 124.88 113.82 125.79 107.88 125.79 107.88 124.88 107.88 124.88"/><polygon class="cls-1" points="106.94 158.97 115.39 159.01 115.39 159.93 106.94 159.88 106.94 158.97 106.94 158.97"/><polygon class="cls-1" points="119.39 159.09 128.78 159.09 128.78 160 119.39 160 119.39 159.09 119.39 159.09"/><polygon class="cls-1" points="131.84 159.25 140 159.25 140 160.16 131.84 160.16 131.84 159.25 131.84 159.25"/><polygon class="cls-1" points="153.48 159.17 161.18 159.17 161.18 160.08 153.48 160.08 153.48 159.17 153.48 159.17"/><polygon class="cls-1" points="164.16 159.25 172.8 159.25 172.8 160.16 164.16 160.16 164.16 159.25 164.16 159.25"/><polygon class="cls-1" points="176.76 159.17 186.25 159.17 186.25 160.08 176.76 160.08 176.76 159.17 176.76 159.17"/><path class="cls-1" d="M131,139.31c1.33-.81,1.89-1,3.28-0.22l2.29,30.53-7,0L131,139.31h0Z" transform="translate(-9.34 -11.05)"/><path class="cls-1" d="M118.09,138.58l0.42,0,0.05,0.78c1.68-.15,1.6-1.62,2.8-0.41l1.91,30.54-6.32-.18,1.13-30.76h0Z" transform="translate(-9.34 -11.05)"/><path class="cls-1" d="M143,139.58c1.38-1.37,2.87-1.33,3.89,0l1.83,30.16h-6.17L143,139.58h0Z" transform="translate(-9.34 -11.05)"/><path class="cls-1" d="M164.27,138.93a2.63,2.63,0,0,1,3.28.29l1.82,30.44-6.88,0,1.77-30.77h0Z" transform="translate(-9.34 -11.05)"/><path class="cls-1" d="M175.84,137.61l0.35,0.12,0,1.28a2.52,2.52,0,0,1,3.13,0l1.51,30.72h-6.59l1.63-32.12h0Z" transform="translate(-9.34 -11.05)"/><path class="cls-1" d="M188.62,139.22a2.88,2.88,0,0,1,3.73.21l1.88,30.15-7.33,0,0.89-15.43,0.83-14.89h0Z" transform="translate(-9.34 -11.05)"/><path class="cls-2" d="M152.8,149.39v-10h5.06v10H152.8Zm0.17-.17h4.73v-9.64H153v9.64h0Zm-28.77.06v-10h5v10h-5Zm0.17-.17H129v-9.69h-4.65v9.69h0Zm12.94,0v-9.68h3.9v9.68h-3.9Zm0.17-.17H141v-9.34h-3.56v9.34h0Z" transform="translate(-9.34 -11.05)"/><path class="cls-2" d="M170.21,149.57v-9.93h3.63v9.93h-3.63Zm0.11-.11h3.4v-9.7h-3.4v9.7h0Zm12.58,0v-9.93h3.63v9.93h-3.63Zm3.52-.11v-9.7H183v9.7h3.4Z" transform="translate(-9.34 -11.05)"/><polygon class="cls-1" points="100.35 160.72 123.14 160.72 123.14 178.35 100.35 178.35 100.35 160.72 100.35 160.72"/><polygon class="cls-1" points="169.5 161.11 193.26 161.11 193.26 178.63 169.5 178.63 169.5 161.11 169.5 161.11"/><polygon class="cls-1" points="125.04 160.83 167.76 160.83 167.76 161.64 125.04 161.64 125.04 160.83 125.04 160.83"/><polygon class="cls-1" points="126.29 162.66 166.51 162.66 166.51 163.47 126.29 163.47 126.29 162.66 126.29 162.66"/><polygon class="cls-1" points="127.27 164.49 165.53 164.49 165.53 165.3 127.27 165.3 127.27 164.49 127.27 164.49"/><polygon class="cls-1" points="128.54 166.31 164.25 166.31 164.25 167.13 128.54 167.13 128.54 166.31 128.54 166.31"/><polygon class="cls-1" points="129.7 168.14 163.1 168.14 163.1 168.95 129.7 168.95 129.7 168.14 129.7 168.14"/><polygon class="cls-1" points="130.83 169.97 161.97 169.97 161.97 170.78 130.83 170.78 130.83 169.97 130.83 169.97"/><polygon class="cls-1" points="131.84 171.8 160.96 171.8 160.96 172.61 131.84 172.61 131.84 171.8 131.84 171.8"/><polygon class="cls-1" points="133.12 173.63 159.68 173.63 159.68 174.44 133.12 174.44 133.12 173.63 133.12 173.63"/><polygon class="cls-1" points="134.13 175.46 158.67 175.46 158.67 176.27 134.13 176.27 134.13 175.46 134.13 175.46"/><polygon class="cls-1" points="135.46 177.29 157.34 177.29 157.34 178.1 135.46 178.1 135.46 177.29 135.46 177.29"/><path class="cls-1" d="M163.91,69.05c-0.73-2.35,1.39-4.12,3.85-2a53.17,53.17,0,0,1,3.46,4.37,21.84,21.84,0,0,1,2.63,7.62c1,7.87-.88,10.7-2.69,14.77-2.11,5.17-9.4,9.82-16.34,9.46-8.44-.43-15.11-10.31-16.39-16.38a22.59,22.59,0,0,1,.23-10.36,21.38,21.38,0,0,1,4.22-8.06,12.51,12.51,0,0,1,2.26-2.25c2.56-1.42,3.95.67,3.43,2.68,1.41,1.06-.39,2.65-1.12,3.82a19,19,0,0,0-2.34,6.34c-0.63,4.27,1.36,10.29,2.44,12.11,1.36,2.3,5.05,4.93,8.46,4.92,6,0,9.55-6.18,10.66-9.16,1.48-6.08,0-10.67-2.17-14.67-0.3-.56-2.17-2.73-0.58-3.26h0ZM168.37,75a16.11,16.11,0,0,1,1.39,4.66l1.62-.13a9.25,9.25,0,0,0-1.58-5.18l-1.44.65h0ZM170,82.68a31.83,31.83,0,0,1-1.13,5.92l1.84,0.47a17.9,17.9,0,0,0,1-6.2L170,82.68h0Zm-2.34,8.91-3.42,4.58c-0.47.53-.2,0.77,0.18,1.07s0.6,0.41,1,0l2.95-3.69c1-.83.58-1.56-0.7-2h0Zm-25.44.87a18.68,18.68,0,0,0,3.54,4.59l1.78-1.23a16.05,16.05,0,0,1-3.6-4.57l-1.72,1.2h0ZM163,101c4.29-2,7.44-6,9.5-11.46a25,25,0,0,0,.92-10.21c-0.63-4.6-2.23-7.64-5.89-12-1.93-1.42-3.87-.4-3.17,1.95a3.13,3.13,0,0,0,1.26,1.93,1.73,1.73,0,0,0,2.16-.19,3.4,3.4,0,0,0,.5-2.28c1,1.31.17,4.27-1.39,4,1,2.45,4.69,12.5-2.92,21C159.2,99,151.6,98,147.2,92.75c-4-5.33-4.55-15.44-1-20.5-2.45.3-3.26-2-2.63-2.71,0.07,1,2,2.18,2.89,1.28a5.11,5.11,0,0,0,1.44-1.8c0.7-2.23-.17-3.08-1.86-2.61-1.09.3-2,1.48-3.35,3.14-5.8,8.07-4.69,17.5-.77,24.33,2.69,3.46,4.75,5.63,7,7,0.06-1.79,1-1.62,2.25-1.46a34,34,0,0,0,9.53,0c1.36-.28,2.46-0.13,2.29,1.58h0Zm-21.42-27.3a25.74,25.74,0,0,0-.94,2.51A8.79,8.79,0,0,0,140,79a3.41,3.41,0,0,0,2.39.53,35.58,35.58,0,0,0,1.7-5.08c-0.1-.45-2.34-1.19-2.58-0.79h0Zm0.64,8.87c0.2,1.72.87,4.48,0.55,5.34-0.25.68-1.52,0.53-2.09,0.38-0.14-1.19-.59-1.73-0.85-3.07,0-.24-0.61-3.15.17-3.14h2a0.87,0.87,0,0,1,.24.48h0Z" transform="translate(-9.34 -11.05)"/><path class="cls-1" d="M143.84,92.84l0.46-.51c0.4,1.08,1.71,2.18,2.52,3.16l-0.62.4a24,24,0,0,1-2.35-3h0Z" transform="translate(-9.34 -11.05)"/><path class="cls-1" d="M160.44,101.89a1.09,1.09,0,0,0,.29-0.79c-0.42-.74-0.69-0.71-1.37-0.31-1.86,1.09-6.38.49-7.92-.37-0.6-.34-1.21,0-1.28.88a13.09,13.09,0,0,0,5.38,1.35,10.6,10.6,0,0,0,4.9-.77h0Z" transform="translate(-9.34 -11.05)"/><path class="cls-1" d="M141.82,74.67c0.36,0,.7,0,0.7.4-0.41,1-.53,2.16-0.92,2.89,0,0-.71-0.25-0.71-0.24s1-3.06.93-3.05h0Z" transform="translate(-9.34 -11.05)"/><path class="cls-1" d="M143.14,75c-0.33.16-1,3.21-1.14,3.63a4.5,4.5,0,0,1-.93-0.15,2.87,2.87,0,0,0-.22.67,2.42,2.42,0,0,0,1.1.24,1.11,1.11,0,0,0,.39-0.11l0.78-1.94c0.1-.25.61-1.83,0.66-2.09a0.58,0.58,0,0,0-.64-0.25h0Z" transform="translate(-9.34 -11.05)"/><path class="cls-1" d="M140.28,83.37a8.58,8.58,0,0,0,.38,3.2,0.6,0.6,0,0,0,.64,0,19.21,19.21,0,0,0-.49-3.12c-0.09-.44-0.48-1-0.54-0.11h0Z" transform="translate(-9.34 -11.05)"/><path class="cls-1" d="M141.32,82.92a9.6,9.6,0,0,0,.17,2.28c0.22,1.32.45,1.78,0.3,2a0.9,0.9,0,0,0-.67.19,1.32,1.32,0,0,0,0,.68,1.59,1.59,0,0,0,1,0,0.57,0.57,0,0,0,.36-0.26,2.86,2.86,0,0,0,0-1,24,24,0,0,1-.38-3.26c0-.77-0.15-0.61-0.8-0.56h0Z" transform="translate(-9.34 -11.05)"/><path class="cls-1" d="M169.12,75.69l0.6-.24a6.56,6.56,0,0,1,1.11,3.68l-0.75,0a10.48,10.48,0,0,0-1-3.46h0Z" transform="translate(-9.34 -11.05)"/><path class="cls-1" d="M170.28,83.72l0.63,0.08a21.43,21.43,0,0,1-.63,4.4L169.62,88a39.43,39.43,0,0,0,.65-4.27h0Z" transform="translate(-9.34 -11.05)"/><path class="cls-1" d="M167.56,92.74c0.83,0.38.83,0.71,0.12,1.3L165.19,97c-0.28.27-.24,0.32-0.49,0.05s-0.33-.24,0-0.62l2.84-3.66h0Z" transform="translate(-9.34 -11.05)"/><path class="cls-2" d="M186.3,189.11v-3.42h2.54v0.58H187V187h1.71v0.58H187v0.93h1.91v0.58h-2.6Z" transform="translate(-9.34 -11.05)"/><path class="cls-2" d="M189.49,189.11v-3.42h0.67l1.4,2.28v-2.28h0.64v3.42h-0.69l-1.38-2.23v2.23h-0.64Z" transform="translate(-9.34 -11.05)"/><path class="cls-2" d="M192.94,189.11v-3.42h2.34v0.58h-1.65v0.81h1.43v0.58h-1.43v1.45h-0.69Z" transform="translate(-9.34 -11.05)"/><path class="cls-2" d="M117.66,189.11H117v-2.47a2.26,2.26,0,0,1-.85.5v-0.59a1.89,1.89,0,0,0,.56-0.32,1.21,1.21,0,0,0,.41-0.55h0.53v3.43Z" transform="translate(-9.34 -11.05)"/><path class="cls-2" d="M118.65,188.32l0.63-.07a0.46,0.46,0,0,0,.12.29,0.36,0.36,0,0,0,.26.09,0.42,0.42,0,0,0,.35-0.19,1.59,1.59,0,0,0,.18-0.77,0.78,0.78,0,0,1-.62.29,0.92,0.92,0,0,1-.7-0.31,1.13,1.13,0,0,1-.29-0.81,1.15,1.15,0,0,1,.31-0.84,1.12,1.12,0,0,1,1.64.08,2.08,2.08,0,0,1,.33,1.32,2.1,2.1,0,0,1-.35,1.35,1.13,1.13,0,0,1-.9.42A1,1,0,0,1,119,189,1,1,0,0,1,118.65,188.32Zm1.48-1.43a0.75,0.75,0,0,0-.15-0.49,0.43,0.43,0,0,0-.34-0.17,0.38,0.38,0,0,0-.3.14,0.73,0.73,0,0,0-.12.47,0.74,0.74,0,0,0,.13.49,0.42,0.42,0,0,0,.64,0A0.65,0.65,0,0,0,120.13,186.89Z" transform="translate(-9.34 -11.05)"/><path class="cls-2" d="M123.51,186.53l-0.63.07a0.46,0.46,0,0,0-.12-0.29,0.35,0.35,0,0,0-.25-0.09,0.43,0.43,0,0,0-.35.19,1.57,1.57,0,0,0-.18.78,0.77,0.77,0,0,1,.61-0.29,0.93,0.93,0,0,1,.7.31,1.13,1.13,0,0,1,.29.81,1.16,1.16,0,0,1-.31.84,1.12,1.12,0,0,1-1.64-.08,2.07,2.07,0,0,1-.33-1.32,2.11,2.11,0,0,1,.35-1.35,1.12,1.12,0,0,1,.9-0.41,1,1,0,0,1,.64.22A1,1,0,0,1,123.51,186.53ZM122,188a0.75,0.75,0,0,0,.15.49,0.43,0.43,0,0,0,.34.17,0.38,0.38,0,0,0,.3-0.14,0.72,0.72,0,0,0,.12-0.47,0.75,0.75,0,0,0-.13-0.49,0.42,0.42,0,0,0-.65,0A0.64,0.64,0,0,0,122,188Z" transform="translate(-9.34 -11.05)"/><path class="cls-2" d="M125.23,189.11v-0.69h-1.4v-0.57l1.48-2.17h0.55v2.17h0.42v0.58h-0.42v0.69h-0.63Zm0-1.26v-1.17l-0.79,1.17h0.79Z" transform="translate(-9.34 -11.05)"/><path class="cls-2" d="M114.66,216.65h-0.85a4.21,4.21,0,0,1-3.95-2.2,1,1,0,0,1,0-1.52,1.79,1.79,0,0,1,.42-0.88c0.61-.3.19-1.31,0.19-2.31a1.13,1.13,0,0,0,.57-1.27,2.32,2.32,0,0,1,.61-1.17,0.76,0.76,0,0,0,.06-0.61c-0.09-.25.37-1.12-0.09-1.34a3.83,3.83,0,0,1-.3-2.15c0.11-.85-0.88-0.87-0.88-1.34-0.28-.82-0.39-1.75-0.79-2,0-.14-0.17-0.55-0.17-0.78a1.51,1.51,0,0,0-.82-1.23c-1.46-.68-1-1.78-1.52-1.95-1.09-.28-0.28-1.21-0.66-1.25a1.3,1.3,0,0,1-.78-0.87l-0.13-1.15c0.1-.82-1-0.87-1-1.21a4,4,0,0,0-.56-1.83,1.82,1.82,0,0,0-1.49-.79l-0.37-.25a2.44,2.44,0,0,1-.21-0.94,0.92,0.92,0,0,0-.8-0.68,1,1,0,0,1-.18-0.72,0.91,0.91,0,0,0-1-.85,3.23,3.23,0,0,0-1.43-2.23,6.42,6.42,0,0,1-1.27-.79c0-.39-2-0.82-2.29-1.61-0.25-.12-0.29-0.44-0.42-0.44a1.31,1.31,0,0,1-.83-1,1.25,1.25,0,0,0-.91-0.51c-0.52-.13-1.33-0.48-0.75-0.92a1.69,1.69,0,0,0,.92-1c0.1-.22.22-0.62,0.33-0.85,0.43,0,.84-0.72.74-1.66a1.66,1.66,0,0,1,.13-0.77c0.31-.14.13-1.65,0.56-1.8s0.45-1.25.17-1.64c-0.49,0-.48-0.64-0.48-0.86,0-.76-0.06-1.81-0.09-2.55a1.48,1.48,0,0,0-.41-1.23,1,1,0,0,1-.7-0.9,8.84,8.84,0,0,0,0-2.51c0-.07-0.39-0.72-0.53-1,0.08-.27-0.3-0.14-0.25-0.65a2.25,2.25,0,0,0-.87-1.52,1.61,1.61,0,0,1-.52-0.23,0.93,0.93,0,0,0-.53-0.39c0-.33-0.33-0.65-0.33-1a2.56,2.56,0,0,0-.38-1.21,1.86,1.86,0,0,0-.54-0.56c-0.95.07-.71-0.68-1.15-1.18a1.54,1.54,0,0,0-1.4-.5,1.59,1.59,0,0,1-1-.27c-0.68-.34-0.27-0.76,0-0.78a5.2,5.2,0,0,0,1-.17,2,2,0,0,1,1.24-.3c0.56,0.08,1-.7,1.42-0.7s0.8-1.21,1.09-1.15a5.42,5.42,0,0,1,.75-0.85c0.4-.2.31-0.75,0.95-0.75a7,7,0,0,0,.7-0.45c0-.13.08-0.38,0.08-0.51a0.49,0.49,0,0,0,.09-0.52c0.52-.1.34-0.82,0.71-1.15a3.53,3.53,0,0,0,.36-0.87c-0.06-.82.37-0.33,0.57-0.58,0.12-.08.36-0.6,0.13-0.62-0.23-.39.23-1,0.23-1.25l0.18-.2c0.34-.5-0.22-1.62.28-1.69a0.66,0.66,0,0,0,.22-0.43c-0.11-.52.81-0.56,0.7-1.41a1,1,0,0,0-.54-1.12,2.51,2.51,0,0,1-.08-1.54c0.15-.65-0.27-1.32.28-1.86,0.62-.18.43-1.21,0.38-1.35a0.63,0.63,0,0,0,0-.52c-0.72-.62-0.39.07-0.39-0.92,0.46-.46.17-1.13,0.76-1.36,0-1.47.73-.93-0.58-2a2.16,2.16,0,0,1-.31-2c-0.1-.74-1.21-0.48-1.25-2.19-0.47-.25-0.56,0-0.56-0.82a7.07,7.07,0,0,1,.72-2,4.34,4.34,0,0,0,.23-1.11,0.72,0.72,0,0,0-.42-0.66,0.81,0.81,0,0,1,.16-1.27,6.42,6.42,0,0,0,.73-0.58,0.78,0.78,0,0,1,.64-1,0.33,0.33,0,0,1,.49,0c0,0.29.5,0.23,0.54,0,0-2,.29-1.7-1.44-2.29-0.33,0-.7-0.19-1-0.19a1.1,1.1,0,0,0-.66-0.47c-0.52-.19-1.32.33-1.88,0.14v0a1.88,1.88,0,0,0-.89-0.14c-0.37.37-.46,1-1.08,0.89a0.4,0.4,0,0,0-.61.19,1.91,1.91,0,0,1,0,.52,0.65,0.65,0,0,1-.28.42c-0.76.15-.8,0.06-1.08,0.7a1.92,1.92,0,0,0-.56,1.17c-0.56.42-.84,0.23-0.85,0.61-1.07,0-.81,1.39-1,1.74a8.31,8.31,0,0,0-1.44.86c-0.22.59-1.38,0.86-1.38,1.3a1.92,1.92,0,0,0-1.22,1.36c-1.74,0-2.44,1.43-2.44,3a1.49,1.49,0,0,0-1.69,1.55c-0.06.15-.32,1.54-0.32,1.65,0,0.37-1.4,1.21-1.51,1.54s0.09,1.36-.09,1.69h0l0,0.19a0.84,0.84,0,0,0-.42.75l0,0,0,0.28a9.65,9.65,0,0,1-.37,1.17,4,4,0,0,0,0,1.83,3.21,3.21,0,0,1,0,2.2c-0.26.07-.29,2.29,0.28,2.29a7.27,7.27,0,0,0,.75,1.29c0.45,0,1.28,1.5,1.55,1.5a0.55,0.55,0,0,1,.24.66,1.06,1.06,0,0,1-.95.39,9.59,9.59,0,0,0-2.38-.18,1.86,1.86,0,0,0-1.21,2.53c0.21,0.64.87,0.25,1.31,0.54,0,0,.07.08,0.07,0.12a1.37,1.37,0,0,1,.1,1,3.07,3.07,0,0,0-.26,1.76,5.53,5.53,0,0,0,.49.74,0.38,0.38,0,0,1,0,.38,1.19,1.19,0,0,1-.16.23l0,0.07a3.12,3.12,0,0,0,0,1.35,1.17,1.17,0,0,1-.18,1.07,0.86,0.86,0,0,0-.28.26A3.31,3.31,0,0,0,74,156c-0.08.18-.23,0.41-0.29,0.61s-0.15.72-.28,1.07a2.79,2.79,0,0,0,.15,1.89,6.89,6.89,0,0,1,.18,2.33,2.86,2.86,0,0,0-.15,1.18c0.38,0.39.29,0,.26,1l0,0.56a3,3,0,0,0,.12,1.82,1.41,1.41,0,0,1,.28,1.48s-0.06.11-.08,0.16,0,0.08,0,.1a11.06,11.06,0,0,0,0,1.3,2.09,2.09,0,0,0,0,.62,0.85,0.85,0,0,0,.38.43c0.15,0.06.16,0.61,0.31,0.67a1.3,1.3,0,0,1,.58.55,1.34,1.34,0,0,1,.1.29,11.24,11.24,0,0,1,0,1.28l0.23,2a0.86,0.86,0,0,0,.33.77,1,1,0,0,1,.8,1.18,1,1,0,0,0,.4.51c0.55,0,.86-0.55,1.37.47a1.18,1.18,0,0,0,.81.8c0.61,0.15.49,1.06,0.89,1.3a1.54,1.54,0,0,1,1.23.33c0.51,1.33,2.55,2.29,3,2.63s-0.35,1.14,0,1.59a1,1,0,0,1,.13.28,3.46,3.46,0,0,1-.25,1.35,3.65,3.65,0,0,0-.16.39,1.68,1.68,0,0,0,.43.75,1.5,1.5,0,0,1,0,.66,1,1,0,0,1-.06.2c0,0.07-.08.16-0.1,0.23a7.25,7.25,0,0,0-.08,1,3.89,3.89,0,0,0,0,.87,4.27,4.27,0,0,0,.44.63c0.37,0.69,0,.4-0.08.72l0,1.67a2.92,2.92,0,0,1,.37,1.09c0.57,0.49-.74,1,0.23,2,0.44,0.46.27,1.87,0.4,2.48a1.49,1.49,0,0,0,.31.87c0.2,0.1.39,0.24,0.59,0.33a0.43,0.43,0,0,1,.12.16c0.21,0.87.1,1.8,0.7,2.49a4.78,4.78,0,0,1,.38.49c0.11,0.17,0,.61.06,0.79a1.09,1.09,0,0,0,.31.34,1.62,1.62,0,0,1,.24.44,0.9,0.9,0,0,0,.43.31,0.23,0.23,0,0,1,.12.18,2.08,2.08,0,0,0,.59,1.18c0.47,0.24.17,0.89,0.62,1.17a1.53,1.53,0,0,0,.36.2,2.27,2.27,0,0,1,1.16.64,6.45,6.45,0,0,0,.44,1.33,3.67,3.67,0,0,0,1.67.43l0.72,0.1C95,211,95.2,211.06,95,211.2a1.15,1.15,0,0,0,.74,1l1.15,0.11c0.51,0.56,2.51.56,3.34,0.56a1.32,1.32,0,0,1,.36,0c0.08,0.08.23,0.16,0.31,0.25a0.36,0.36,0,0,1,.1.07c1,0.39,2.13-.13,3.1.16,0.7,0.21.56,1,1.15,1.33,0.85,0.43,2.55.15,2.95,1.08s1.07,0.63,1.83.87c0.41,0.13.83,0.29,1.24,0.46C114.22,218.26,117.25,216.65,114.66,216.65ZM77.51,143.48l-0.66-.61a1.27,1.27,0,0,1-.71-0.66c0-1-.86-0.87-0.71-1.36,0-.24.28-0.38,0.28-0.61,0.19-.12,0-0.27.07-0.36a0.64,0.64,0,0,0,.21-0.53,1.26,1.26,0,0,1,0-1.17,4,4,0,0,0-.09-1.27,1,1,0,0,1,.75-1c0.24-.17,1.38-0.51.23-1.27,0-.09,0-0.19,0-0.28l0.09-.14h0c0.28-.33,0-1,0.14-1.41s-0.14-1,.28-1.22a1.18,1.18,0,0,0,1.22-1.46,1.57,1.57,0,0,1,0-1.55,1.67,1.67,0,0,1,1.36-.52c0.93,0.23.75-1,.75-2,0.26-1.06.07-1,2.16-1.09,0-1.11.67-.78,0.67-1.15a1.13,1.13,0,0,0,1.07-1.34,3.75,3.75,0,0,0,1.71-.47,3.2,3.2,0,0,0,1.11-2.35c1.74-.35.7-1.36,1.55-2.21a16.53,16.53,0,0,1,1.5-1.13c0.06,0,.13-0.29.37-0.55a0.65,0.65,0,0,0,.23.36,2,2,0,0,0,.71-0.05c0.12,0,.52-0.12,0-0.63h0a2.19,2.19,0,0,1,.4.08c0.42,0.06.12,0.43,0.33,0.52a1.2,1.2,0,0,0,.7,0c0-.52,1.69-0.41,1.69-0.28l0.31,0h0l0.34,0h0a2.11,2.11,0,0,1,.33.09c0.31,0.11.49,0.3,0.23,0.6a0.29,0.29,0,0,1-.41.1c-1.47,0-.64.3-1,1.13a1.52,1.52,0,0,0-1,2,0.67,0.67,0,0,1,.51.45h0a0.25,0.25,0,0,0,0,0,0.3,0.3,0,0,1,.07.11,1.39,1.39,0,0,1,0,.83l-0.11.3h0l-0.08.17c-0.1,0-.16.55-0.32,0.64a0.63,0.63,0,0,0,0,.22l-0.08.16v0l-0.06.11,0,0,0,0.08,0,0,0,0.07c0,0.23-.13.59-0.16,0.9a0.71,0.71,0,0,0,.11.57l0,0a0.22,0.22,0,0,0,.13,0c0.76,0,.65.33,0.65,1.43,0,0.83,1.15-.14.94,2.64-0.05.24,0.71,0.51,0.88,0.71,0.69,1.17-.55,1.27-0.55,2a0,0,0,0,0,0,0h0v0.05h0c0,0.11,0,.28,0,0.45h0a1.12,1.12,0,0,1,0,.12l-0.05.17,0,0.08s0,0,0,.06a1.08,1.08,0,0,0,0,.47h0c0,0.08,0,.14,0,0.18s0,0.08,0,.1a0.16,0.16,0,0,0,0,.06h0a0.14,0.14,0,0,0,.12,0h0.07l0.1,0h0l0.15,0.08c0.53,1.45-1.22,1.38-.62,2.85a3.25,3.25,0,0,1-.23,1.4,1.66,1.66,0,0,0,.53,1.38c0.48,0.09,0,1.23-.53,1.58a2.81,2.81,0,0,0-.32.62,1.47,1.47,0,0,0,0,1.19,0.87,0.87,0,0,1-.25.65c-0.47.47,0.26,0.94-.23,1.54a0.86,0.86,0,0,0-1,1,1.5,1.5,0,0,1-.05.68,3.62,3.62,0,0,0-.93,1.51c-0.37.83-.49,0.73-1,0.68-0.32,0,0,1.09-.48,1.08a1.71,1.71,0,0,0-.57.48,3,3,0,0,0-.85.93c-0.12.66-1.43,0.79-1.76,0.88l-0.52.14c-0.57.16-1.23,0.36-1.77,0.47h0c-0.6.12-1.06,0.13-1.08-.13-0.22-.48-0.89-0.47-0.91-1.29s-0.64-1.21-1-2a4.23,4.23,0,0,0-.79-0.87c-1-.14-1.16-1.42-1.83-2-0.94-.73-1.6-0.92-1.58-1.67-0.09,0-.28-0.46-0.37-0.46S77.51,143.62,77.51,143.48Zm6.41,38.81c-1.15-.8-1.7-1.33-1.76-1.73a0.82,0.82,0,0,0-1-.82c-0.89-.47-1.25-1.63-1.75-1.82-0.61-.88-2.15-1.44-2.18-2.22-0.06-1.38-1-.55-1-1.24a13.48,13.48,0,0,1,0-2.76c0-.22.06-1.13-0.35-1.13,0-.31-0.82-0.79-0.69-1.16A4.13,4.13,0,0,0,75,167.9a7.9,7.9,0,0,1,.41-0.75c0-.6-0.42-1.19-0.35-1.57a1,1,0,0,1-.31-1.26c0.39-.46,0-0.63.09-1.19-1.21-.56-0.42-0.86-0.12-1.16,0-.31.51-2-0.22-2-0.05-.06-0.08-0.28,0-0.31,1.17-1.17,0-.85.57-2-0.09-.52.49-0.73,0.32-1s-0.3-1.25.21-1.25a0.46,0.46,0,0,0,.38-0.37c0-.65-0.41-0.7-0.41-1.11a0.3,0.3,0,0,1-.06-0.47c0.1-.1.66-0.2,0.51-0.45s0-.4.06-0.62a1.45,1.45,0,0,0-.13-0.69,0.37,0.37,0,0,1-.5-0.16,3.2,3.2,0,0,1-.09-1.73,2.7,2.7,0,0,0,0-.72,0.77,0.77,0,0,0-.35-0.54,0.68,0.68,0,0,1-.31-0.53c-1.32-.16-1-0.82-0.38-1.22a3.13,3.13,0,0,1,1.51.21,2.89,2.89,0,0,0,1.54.35,0.9,0.9,0,0,0,.42-0.56l0,0a0.32,0.32,0,0,1,0-.12v0l0-.05a0.39,0.39,0,0,1,.08-0.1l0.06,0,0.16-.05h0.23l0.14,0,0.06,0a0.69,0.69,0,0,1,.18.11c0.6,0,1.59,1.07,1.83,1.71a3.27,3.27,0,0,0,1.49,1.3,2.59,2.59,0,0,1,.71,1.68,4.58,4.58,0,0,0,1.19,2c0.7,0.29.55,0.86,1.45,1.23,0.5-.15,1.56.38,2.09,0.38-0.13,1.78,1.93.16,2.12,3.57,0,0.72,1.38,1.07,1.82,1.57s0.08,1.4.54,1.76a2,2,0,0,1,.5,2.42,1,1,0,0,0,.59,1.41c1,0.38.88,3,.72,3.49-0.52,1.79.44,1.15,0.44,1.7,0.41,0.66-.57,1.29-0.57,1.88a1.44,1.44,0,0,0-.19.24l0,0a1.37,1.37,0,0,0-.12.24c-0.33.9,0.39,1.87-.48,2.31,0,0.27-.66,1.85-1.07,1.85-0.07.26-.18,0.67-0.6,0.53s-0.16-1.19-.16-1.6a0.53,0.53,0,0,0-.47-0.09c-0.47-.47.67-0.38,0.85-0.5l0-.85c0.43,0.1,1.61-1.45.25-1.45,0-.52-0.23-0.49-0.69-0.41a1.55,1.55,0,0,0-.88.57c-0.94,0-.82.65-2.2,0.5-1,.46-0.77,1.83-1.32,2a1.3,1.3,0,0,0-1.14.74c-0.44,0-.25,2.37-0.44,3a10.44,10.44,0,0,0,.07,3A1.63,1.63,0,0,0,83.92,182.28Zm25,31.8c0.59,2.06-.49,1.18-0.49,1.11a2.56,2.56,0,0,0-1.83-.72,1.59,1.59,0,0,1-.85-1,0.53,0.53,0,0,0-.56-0.33c-0.89-.05-1.24-0.65-2.29-0.26a4.7,4.7,0,0,1-1.51.13,1.84,1.84,0,0,0-1.1-.59c-0.19-.63-1.22-0.66-1.54-0.61a8,8,0,0,1-2-.3c-1.25-.2-0.91-1-1.43-1.16-1.6,0-1.57-1-2.4-1.2-0.79,0-.26-0.75-0.26-1s-0.44.14-.39-0.33a2.29,2.29,0,0,0-1.24-.52c0-.66-0.35-0.55-0.49-1a2.58,2.58,0,0,0-1.07-1.12c0.07-.34-0.31-0.21-0.2-0.51,0.11-.86-0.22-1.45-1.24-2.39l-0.3-1.66c-0.2-.46-0.78-0.35-0.84-0.86-0.08-.69-0.59-1.84-0.38-2.5a1.49,1.49,0,0,0-.57-1c-0.61-.92.86-1.3,0.5-2.18a3.66,3.66,0,0,1-.52-1c-0.33-.75.9-1.29,0.27-2a1.2,1.2,0,0,1-.57-1.05,2.72,2.72,0,0,1,.52-0.38,1.05,1.05,0,0,0-.34-0.75c-0.17-.44.27-1.17-0.13-1.57s-0.69-.18-0.69-0.86c0-.42.64-1,0.57-1.24A3,3,0,0,1,85,183.8a3.63,3.63,0,0,1,.83-1.37,1.09,1.09,0,0,0,0-1l-0.11-.22,0,0,0-.07,0-.08,0-.08,0-.1s0-.06,0-0.09l0-.12s0-.06,0-0.1,0-.09,0-0.14,0-.07,0-0.11,0-.12,0-0.19,0-.07,0-0.1,0-.22.05-0.34a2.43,2.43,0,0,1,.48-0.77c0.31-.62-0.18-1.31.47-1.75a3.91,3.91,0,0,0,1-.84,1.85,1.85,0,0,0,.42-0.73c0-.91.62-0.84,1.18-1,0.26,0.05.68,0.09,0.73-.16a0.66,0.66,0,0,1,.6-0.44,2.27,2.27,0,0,1,.6,0c0.5,0.56-.15.42-0.15,0.8,0.16,0.19-1,1.07-1,1.5,0.08,0.79,1-.49.62,1.52,0.24,0.58.84,0.63,0.91,1a0.9,0.9,0,0,0,.51.49c0.95,0.32.79,0,1.05,0.76a1.06,1.06,0,0,0,1.18.78c0.39,0.08.2,0.38,0.75,0.92,0.52,0.73,1,.52,1.3.8a5.17,5.17,0,0,0,1.51,1,2.57,2.57,0,0,1,1.41,1.77c0.2,0.65,0,1.21.88,1.21,0,0.2.1,0.56,0.1,0.82a2.22,2.22,0,0,1,.23.36c1,0,1.11.19,1.11,1.51,0.06,0.43.92,0.26,1.34,0.39,0.92,0.29.46,1.08,0.69,1.67s0.82,0.59,1.11,1a1.18,1.18,0,0,1,.36.66c0.36,0.6,0,1.23.16,1.47h0c0.13,0.34.59,0.32,0.88,0.82,0,0.36-.1,1,0.46,1,0.26,0,0,.73.46,0.69,0.28,0.34.07,0.91,0.32,1,0.27,0.3,1.43.35,1.67,1.08a12,12,0,0,0,1,3c0.28,0.41.47,1.28,0.9,1.28,0.29,0.18,0,.67-0.18.88l-0.09.13a0.38,0.38,0,0,0,0,.1h0a4.64,4.64,0,0,0,.19.71,1.27,1.27,0,0,1,.49,1c0.22,0.68-.43.93-0.66,1.38h0c-0.21.85,0.8,1.61-.46,1.61l0,0c-1.13,0-.12,1.61-0.16,1.93,0,0.15-.42.48-0.5,0.67,0.22,1.53-.26.63-0.52,1.27A2,2,0,0,0,108.89,214.08Z" transform="translate(-9.34 -11.05)"/><path class="cls-3" d="M109.19,214.69c-0.1,0-.2-0.1-0.3-0.1l-0.1-.1c-0.1-.1-0.3-0.4-0.4-0.5h-0.1a13.8,13.8,0,0,0-2.08-2.08v-0.1l-0.6-.3-0.1-.1a5.52,5.52,0,0,0-.89-1.68A5.3,5.3,0,0,1,104,209v-0.3a6.79,6.79,0,0,1-.89-1.69H103a0.45,0.45,0,0,0-.3-0.3v-0.1l-0.39-.3c0-1-.4-2.18-0.4-3-0.77-.28-0.35-0.88-0.79-1-0.9-.7-0.32-2-0.89-2.58a1.75,1.75,0,0,1-.62-1.1c0-1.09.62-1.82,0.62-2.57,0.58,0,.52-2.22-0.4-2.68" transform="translate(-9.34 -11.05)"/><path class="cls-4" d="M89.07,179.2c0,1-.5,1.91-0.5,3.27,0.1,0.4.1,1.19,0.2,1.59S90,185.35,90,185.74c0.29,0,.37.87,0.4,1.09,0,0.61,1.59,1.1,1.88,2.28a3.1,3.1,0,0,0,1.49,1.68c0.69,0,1.19,1.59,1.19,2.08a3.09,3.09,0,0,1,.69.89c0.3,0,.6.5,0.89,0.5a2.09,2.09,0,0,0,.6.4,12.49,12.49,0,0,0,1.09,1,2.25,2.25,0,0,0,.79,1,8.17,8.17,0,0,1,.5,2.18M89.62,184.6a3,3,0,0,1,.24-2.13c0.37,0,.3-0.79.3-1" transform="translate(-9.34 -11.05)"/><path class="cls-3" d="M89.54,185.54c0.16,0.25.16,0.38,0.34,0.15l-0.11-.29c-0.06-.27-0.12-0.54-0.16-0.79" transform="translate(-9.34 -11.05)"/><path class="cls-4" d="M87.18,181.48a11.12,11.12,0,0,0-.3,1.78c-0.21.77,0.89,0.24,1.29,1.59,0.56,0,1,.69,1.37.69m5.37,6-0.14-.28c-0.36-.65-0.26-4.45-0.93-5l-1.11-.79c0-.4.2-0.79,0.2-1.19" transform="translate(-9.34 -11.05)"/><path class="cls-3" d="M93.53,191.49c0.54,0.17.47,0.63,1.29,0.91l0.1-.31v-0.59" transform="translate(-9.34 -11.05)"/><path class="cls-4" d="M88.67,187.63a4.17,4.17,0,0,1,.79,1.19l0.59,1.29c0.42,0.42,1.88,1,1.88,1.19a4.09,4.09,0,0,0,1.59.2m-3.57.4c-0.1,1,.6,1.15.5,2a8.33,8.33,0,0,0,1.79.69c0-.21.89-0.89,0.89,0.4,0.46,0.46,1-.05,1.49.2v0.1c1.18,0.79,1.24.13,2.18,1.39" transform="translate(-9.34 -11.05)"/><path class="cls-3" d="M96.8,196.65c0.6,0,.79,1,1.29,1s0.48,1.19,1.83,1.85" transform="translate(-9.34 -11.05)"/><path class="cls-4" d="M98.58,188.32c0,0.5.32,2.28,0.79,2.28a0.92,0.92,0,0,0,.69,1.19c0,0.59-.2,1.09-0.2,1.69" transform="translate(-9.34 -11.05)"/><path class="cls-3" d="M103.85,205.69c0.25,0.31.5,0.93,0.28,3.24" transform="translate(-9.34 -11.05)"/><path class="cls-4" d="M103.34,197.84a1.41,1.41,0,0,0,.4,1.29c0,0.81-.69,1.18-0.69,2-0.76.3-.14,1.74,0.79,2.08a1.57,1.57,0,0,1,.2.89c-0.1,0-.4.2-0.5,0.2-0.2,1.1.06,1.1,0.31,1.41" transform="translate(-9.34 -11.05)"/><path class="cls-3" d="M106.72,206.64a1.08,1.08,0,0,1-.21,1.31c0,0.1.24,1.81,0,1.19,0.1,0-.28,2.12,0,2.91" transform="translate(-9.34 -11.05)"/><path class="cls-4" d="M106.32,199.22c0.29,0.34-.19.67,0.1,1.09,1.46,0.86,1.65,1.54.14,1.88,0,0.5.16,1,.16,1.59l-0.4.4c0,0.27.69,1.52-.1,1.49,0,0.2-.3.4-0.3,0.59a0.9,0.9,0,0,1,.8.38" transform="translate(-9.34 -11.05)"/><path class="cls-3" d="M99.78,202c-0.09.69,1.13,0.12,1.73,1.08" transform="translate(-9.34 -11.05)"/><path class="cls-4" d="M91.25,198.93a2.41,2.41,0,0,1,1.6,0A5.19,5.19,0,0,1,94,200.31c0.36-.07,1.49-0.43,1.49.4,0.25,0.61,1.07-.26,1.29,0s0.56,0.75.89,0.5a2.78,2.78,0,0,1,2.07.7" transform="translate(-9.34 -11.05)"/><path class="cls-3" d="M101.34,206.85c0.58,0,1.64,1.1,2.15,1.34" transform="translate(-9.34 -11.05)"/><path class="cls-4" d="M94.52,202.5c0,1-.87,1.78.95,2.31,0.2,0,2.72-1.21,2.72.07a6.91,6.91,0,0,1,1.88.59,2.5,2.5,0,0,0,1.27,1.38" transform="translate(-9.34 -11.05)"/><path class="cls-3" d="M101.53,208.64c1.19,0.3,1.95,1.51,3.33,1.51" transform="translate(-9.34 -11.05)"/><path class="cls-4" d="M95,206.26c1,0,.7.69,0.3,1.09a2.66,2.66,0,0,0,.69,1.29,0.81,0.81,0,0,1,.5.5c0.2,0,1.29.2,1.29-.3,1,0,.66-1,1.69,0,1.06-.4,1.22.16,2.05-0.2" transform="translate(-9.34 -11.05)"/><path class="cls-3" d="M82.92,176.72c1-.45,1.12,1.17,2.24,1.59" transform="translate(-9.34 -11.05)"/><path class="cls-4" d="M78.56,174.15c1.07-.43,2.28-0.66,2.28.79,0.62,0,.7.67,1.09,0.91l1,0.88" transform="translate(-9.34 -11.05)"/><path class="cls-4" d="M79.79,153.09V153c0-.83-0.07-1.69-0.44-1.86a5.86,5.86,0,0,1-.89-0.5c-0.05-.73-0.69-1.32-0.69-1.79a5.68,5.68,0,0,0-.59-0.79" transform="translate(-9.34 -11.05)"/><path class="cls-3" d="M80.29,155.44a1,1,0,0,0-.34-0.83,2.73,2.73,0,0,1-.16-1.53" transform="translate(-9.34 -11.05)"/><path class="cls-4" d="M80.66,157.54a15.42,15.42,0,0,1-.23-1.67" transform="translate(-9.34 -11.05)"/><path class="cls-3" d="M86.63,176c0-.3.1-2.09-0.63-2.44a1.41,1.41,0,0,1-1.59-1.39,4.12,4.12,0,0,0-.4-1.49,2.25,2.25,0,0,1-.59-0.59c0-.29.18-1.09-0.3-1.09-0.2-.3.16-1.1,0-1.4-0.29,0-.21-1.15-0.21-1.41-1-.65-0.87-1.23-1.74-1.66-1-1.68.2-4.47-.39-6.39" transform="translate(-9.34 -11.05)"/><path class="cls-4" d="M79.22,154.52a1.15,1.15,0,0,1-1.16-.89c-0.43,0-.5-1.83-0.5-2.18" transform="translate(-9.34 -11.05)"/><path class="cls-3" d="M78.8,158.3c0.3,0.5-.18,3.34,1.85,4.19" transform="translate(-9.34 -11.05)"/><path class="cls-4" d="M78.66,156.4c0.53,0.55.37,0.61,0.2,0.89l-0.1.92" transform="translate(-9.34 -11.05)"/><path class="cls-5" d="M82.72,160.37l-0.29.14a11.81,11.81,0,0,0-.7,1.15,1.22,1.22,0,0,1-1,1.19" transform="translate(-9.34 -11.05)"/><path class="cls-4" d="M83.82,155.51c0.4,0.4,1.19,2.38.4,2.78a13.13,13.13,0,0,1-1.49,2.08" transform="translate(-9.34 -11.05)"/><path class="cls-5" d="M85.5,165.23c-0.62.23-.42,2.24-0.69,3.39-0.5.61,0.32,2,.4,2a3.29,3.29,0,0,1-.1,1.39l-0.1.1-0.1.1c-0.1,0-.2.1-0.3,0.1a0.53,0.53,0,0,1-.2.3" transform="translate(-9.34 -11.05)"/><path class="cls-4" d="M87,159c0,1.19-.4,2.48,0,3.57,0.11,0.55-.66,2.68-1.49,2.68" transform="translate(-9.34 -11.05)"/><path class="cls-3" d="M87.68,170.78c-0.76-.11-1.43.77-1.17,1.88a3.39,3.39,0,0,1-.12,1l-0.2.2" transform="translate(-9.34 -11.05)"/><path class="cls-4" d="M89.17,166.91c0,0.5.22,1,.22,1.39a2.81,2.81,0,0,0-.71.69,5.74,5.74,0,0,0-.79.4c0,0.2-.2,1-0.2,1.39" transform="translate(-9.34 -11.05)"/><path class="cls-3" d="M90.75,172c-0.2,0-.49.2-0.69,0.2a5.89,5.89,0,0,0-.25,1.4" transform="translate(-9.34 -11.05)"/><path class="cls-4" d="M92.37,168.26c0,0.4-.12,1.13-0.12,1.52-0.26,0-1.36.89-1.59,0.89,0,0.59.4,0.69,0.1,1.29" transform="translate(-9.34 -11.05)"/><path class="cls-5" d="M80.76,167.6a0.84,0.84,0,0,1,.78,1c0.62,0,1.11.81,1.78,0.81" transform="translate(-9.34 -11.05)"/><path class="cls-4" d="M78,163.34a4,4,0,0,1,.3,1.88c0.24,0.77,2.5,1.44,2.5,2.38" transform="translate(-9.34 -11.05)"/><path class="cls-3" d="M83.87,174.33c0.28,0,.54.5,0.84,0.5a5.69,5.69,0,0,0,1.6,1.3" transform="translate(-9.34 -11.05)"/><path class="cls-4" d="M83.87,174.33c0-.68-1.44-1.65-1.44-2a5.55,5.55,0,0,0-1.29-.79,0.9,0.9,0,0,0-.3-0.69c0-.39-1.27-0.13-1.6-0.3L79.16,170c-0.71-.71-0.89-0.25-0.89-1.59l-0.5-.4" transform="translate(-9.34 -11.05)"/><path class="cls-4" d="M79.88,142.36c-0.34-.27-0.17-1.23-0.18-1.79-0.08-.08,0-0.25-0.2-0.24-0.35-.46-0.91-0.52-0.91-1.28,0.05-.05.84-1,0.4-1a2.46,2.46,0,0,1,.05-0.61" transform="translate(-9.34 -11.05)"/><path class="cls-6" d="M82,148.6a1.3,1.3,0,0,1,.4-0.93,3,3,0,0,0,.79-1.45c0.35-.35.75-1,1.32-1.59,0.89-.4.52-1.53,1.19-1.85,0.38-.65.89-2.66,2.38-3.7,0.84-.67.06-4,0.66-4.63,0.77-.42,0-1.11.13-1.45,0.65,0,.32-4.59.13-5.29s-1-3.9-.25-4.89a12.26,12.26,0,0,1,1.44-3.17c0.89-.34,1.09-1.45,1.72-1.45" transform="translate(-9.34 -11.05)"/><path class="cls-4" d="M82.46,140.11c0.65-.81-1.43-2.23-1.35-2.52C80.43,137.22,81,136,81,135.73c0-.59,1.06-1,1-1.82" transform="translate(-9.34 -11.05)"/><path class="cls-6" d="M89.91,136.58c0.46-.17.32-1.38,0.66-1.36a1.13,1.13,0,0,0,.54-0.76,7.76,7.76,0,0,1,.76-0.56c0.23,0,.38-0.57.76-0.46" transform="translate(-9.34 -11.05)"/><path class="cls-5" d="M88.52,138a3.58,3.58,0,0,1,1.4-1.41" transform="translate(-9.34 -11.05)"/><path class="cls-4" d="M84.65,136.87a2.48,2.48,0,0,0-.41-1.19,0.88,0.88,0,0,1-.25-0.76c-0.86-.86-0.56-0.79-0.56-2.22,0.42,0,.52-1.69.76-1.82s0.11-.94.1-1.77m3.87,1.74a1,1,0,0,0-.43-0.78,1.15,1.15,0,0,1-.51-0.46,4.14,4.14,0,0,1,.35-1.11,1.81,1.81,0,0,0-.55-1.11,2.73,2.73,0,0,1-.25-2.17,1.54,1.54,0,0,0,.56-1.11" transform="translate(-9.34 -11.05)"/><path class="cls-6" d="M88.89,126.73a5.51,5.51,0,0,1,.2-1" transform="translate(-9.34 -11.05)"/><path class="cls-4" d="M89,122l-0.05-1c0.5-.5-0.05-1.57.71-1.92a3.08,3.08,0,0,0,.86-1.3m-1.31,3.73a4,4,0,0,1,.51-0.46A6.46,6.46,0,0,1,91,119.86c0.17-.34,1.41-1.08,1.41-1.26h0" transform="translate(-9.34 -11.05)"/><path class="cls-6" d="M90,131.51c-0.23.68-.06,1.49-1,1.49a1,1,0,0,1-.59-0.58,9,9,0,0,0-.17-1.16" transform="translate(-9.34 -11.05)"/><path class="cls-4" d="M86.37,147.8c0.45,0,.16-0.33.4-0.46,0.4,0.1.62-1,1-.42a1.38,1.38,0,0,1,.16.26c0.88,0.56,2-1.11,2.46-2.48a1,1,0,0,1,.46-0.4c0.51-.56,1.23.47,1.52,0.76m-2.76-2.72c0,0.13.27-.06,0.39-0.06,0-.35.66-0.81,0.66-1.16,0.15,0,.4-0.2.61-0.2,0-.61,1.16-0.91,1.41-1.26,0.06-.55.59-0.65,0.76-1.06m-0.66-12.38a0.17,0.17,0,0,0-.1.15c-0.1,0,0,.05-0.1.05l-0.05.1a3.48,3.48,0,0,0-1.21,2.12c-0.15.66-.86,1.47-0.86,2.17a0.48,0.48,0,0,0-.3.36" transform="translate(-9.34 -11.05)"/><path class="cls-6" d="M82.21,147.9c0.12-1.3-.88-0.8-0.49-3,0-.37-1.23-0.78-1.21-1.06a1.63,1.63,0,0,0-.38-1.2m3.41,3.17a1,1,0,0,0-.25-0.56c0-.76-0.2-1.57-0.2-2.22,0.06-.49-0.46-0.53-0.45-1a0.68,0.68,0,0,0-.25-0.5,1,1,0,0,1-.08-1.22m-0.18,7.73a0.81,0.81,0,0,1,.87.46,0.82,0.82,0,0,0,1-.46c0.35-.24.5-0.2,0.71,0,0,0.56,1.29.15,1.45-.1m-1.82-3.06c0.53-.06,2,0.1,2-0.83,2,0.45,1.19-2.77,3.05-1.84m-3.83.73a1.39,1.39,0,0,1-.25-0.56c0-.43-0.52-4,0.15-4a0.86,0.86,0,0,0-.63-1.16" transform="translate(-9.34 -11.05)"/><path class="cls-1" d="M222.7,129.21a6.54,6.54,0,0,1-.49-3.17c0.09-2.05-1.06-.62-0.62.06,0,1.58,0,1.66,0,3.32,0.33,2.74-.72,2.63-1.62,1.41a9.4,9.4,0,0,1-1.17-2.92,5.27,5.27,0,0,0-.16,2.21,9.5,9.5,0,0,0,2.29,3.72c0.71,0.71,1.18,2.85,1.5,3.8a2.3,2.3,0,0,1,0,1.27c-0.87-.87-2.42-2.56-3.76-2.56a31,31,0,0,1,3.48,3.85c0,0.08,1.32,1.24,1.43,1.47l1.06,1c0.95,1.19,1.58,2.69,2.84,3.72a1.88,1.88,0,0,1,.69.86c1.18,1.11.72-.15,0.1-1.49a6.53,6.53,0,0,0-1.34-1.74c-1.26-.87-1.35-2.11-2.21-3.14a11.13,11.13,0,0,1-.78-1.37,9.27,9.27,0,0,0-.79-1.9,20.62,20.62,0,0,1-.33-3.79,12.44,12.44,0,0,0-.13-4.65h0Z" transform="translate(-9.34 -11.05)"/><path class="cls-4" d="M221.56,126a3.23,3.23,0,0,1-.21-2.21c0-2-.87-2.58-2.13-3.84" transform="translate(-9.34 -11.05)"/><path class="cls-6" d="M221.79,130.53a12.51,12.51,0,0,0-.09-3.87m8,22.67a4.4,4.4,0,0,0-1-1.11,8.25,8.25,0,0,1-.21-2.06,19.62,19.62,0,0,0-1.58-2.24c-0.51,0-1.39-1.75-1.4-1.75-0.19-.19-0.83-1.66-1.4-1.66l-0.59-1.12a21.92,21.92,0,0,1-.77-2.87c-0.07-.14-0.4-2.26-0.44-2.39a11.85,11.85,0,0,1-.49-3.6" transform="translate(-9.34 -11.05)"/><path class="cls-4" d="M224.83,148.24c-1.5-.32-2.61.46-4.25-1.79,0-.4-0.68-1-0.78-1.5" transform="translate(-9.34 -11.05)"/><path class="cls-6" d="M225.62,148.51a3.41,3.41,0,0,0-.79-0.27m4,2.17a4.21,4.21,0,0,0-1.49-1.13,3.86,3.86,0,0,1-1.72-.76" transform="translate(-9.34 -11.05)"/><path class="cls-4" d="M224.56,144.72c-0.41-.67-0.58-1.42-0.68-1.21-0.14,0-1-.34-1.25-0.41s-2.05-.89-2.05-1.38c-0.77-.69-1.84-0.68-2.14-1-0.58-.87.09,1.27-1.49-2.63,0-.07.07-0.36-0.07-0.36" transform="translate(-9.34 -11.05)"/><path class="cls-6" d="M228.62,148.22c-1.24-1-.81-1.06-1.29-1.07-0.28-.33-2.17-0.45-2.36-0.91a6.7,6.7,0,0,0-.43-1.51" transform="translate(-9.34 -11.05)"/><path class="cls-4" d="M229.49,145a3.2,3.2,0,0,1,.79-0.86c0.28,0,.7-2.52,1.73-3.45a3.75,3.75,0,0,0,1.14-2.92" transform="translate(-9.34 -11.05)"/><path class="cls-6" d="M228.79,148.24a6.32,6.32,0,0,1,.7-3.25" transform="translate(-9.34 -11.05)"/><path class="cls-4" d="M227.91,142.19c0-.5-0.06-1.46.42-1.71,0.29-.15,1.91-1,1.62-1.73,0-.65-0.5-3.93,1-3.2" transform="translate(-9.34 -11.05)"/><path class="cls-6" d="M227.54,144.88c0.07-.43-0.41-1.86.35-2.71" transform="translate(-9.34 -11.05)"/><path class="cls-4" d="M225.72,138.42c0.44-1.35.11-2.3,0.89-3.51h0.07A8.34,8.34,0,0,0,227,133a14.43,14.43,0,0,0,.29-3.56" transform="translate(-9.34 -11.05)"/><path class="cls-6" d="M225.66,142.52c0.21-1.14-.29-3,0.06-4" transform="translate(-9.34 -11.05)"/><path class="cls-4" d="M221.73,138.9a9.1,9.1,0,0,0-1.44-1.35c0-.39-1.14-0.72-1.14-0.93-1.72-1.06-1.28-.57-1.28-2.42" transform="translate(-9.34 -11.05)"/><path class="cls-6" d="M224,140.57c-1.68-1.84-1.64-.88-2.29-1.67" transform="translate(-9.34 -11.05)"/><path class="cls-4" d="M223.52,131.24c0.63-1.39-.48-0.57.65-2.54,0-.06.37-2.95,0.16-2.95m-1.17,6.7,0.36-1.21" transform="translate(-9.34 -11.05)"/><path class="cls-6" d="M222.78,136.69c0.21-1.07-.36-2.35.14-3.42l0.15-.61" transform="translate(-9.34 -11.05)"/><path class="cls-4" d="M220.31,132.19c-2.08-1.48-1.54-2.79-1.54-4.05a1.09,1.09,0,0,0-.5-1.08" transform="translate(-9.34 -11.05)"/><path class="cls-6" d="M222.42,134.85a3.48,3.48,0,0,0-1-2,6.36,6.36,0,0,1-.92-0.53" transform="translate(-9.34 -11.05)"/><path class="cls-4" d="M221.71,127.65c-0.43-1.42-1-1-1.56-2.41a14.43,14.43,0,0,1-.91-2,12.28,12.28,0,0,1-1-.81" transform="translate(-9.34 -11.05)"/><path class="cls-2" d="M236.39,160.5c0.06-.06-0.28-1.61,0-1.84,0.41,0-.08-1.21-0.48-1.45,0-1.11-.16-1.3-0.16-2.41l-0.15-1c0.74-1.24.55-1.33,0.55-2.69V150a9.72,9.72,0,0,1,1.33-1,1.23,1.23,0,0,0-.94-1.17c-1.05.13-.72-0.22-1.7,0.26a1.82,1.82,0,0,1-.83-0.27c0-.42-1.32-0.21-1.59.07-0.5.15-.54,0.13-0.48-0.55,0.28,0,.59-1.14,1-1.21,0.41-.41,1.3-1,1.2-1.7l-0.06-.43c0-.49,1.46-1.14,1.36-1.5l0.31-1.27a2.4,2.4,0,0,1-.7-0.78,6.91,6.91,0,0,1,.68-0.85c0-.15.16-0.79-0.06-0.79a2.57,2.57,0,0,1,.07-1.65,1.86,1.86,0,0,0-.11-1,1.84,1.84,0,0,0-.86-1.21c-0.22-.43.17-0.46-0.26-1.31a2,2,0,0,0-1-1.63c-0.72-.91,0-1.48-0.77-2.27l-0.43-.49c0-1.27-.26-1.33-0.5-1.5a1.2,1.2,0,0,1-.84-1.4c-0.87-2.88-1.56-.91-2.23-2.12,0-.33,0-0.51,0-0.81-0.31-.31-1.17.19-1.22-0.43s-0.28-.45-0.77-0.39-1.57-.43-1.36-1.82a2.68,2.68,0,0,0-1.64-1.75c-0.68-.07-0.81-1.65-2.28-2a2.08,2.08,0,0,0-1.2-1.48c0-.5-1-0.88-2.23-0.9a2.46,2.46,0,0,1-1.57.18c-0.87-.42-2.74.73-3.22,0.89-1.74.68-.8,2-0.09,1.95l0.65,0c1.31,0.08.25,1.08,0.67,1.84s0.85,1.2.25,1.92a2.26,2.26,0,0,0,0,2.1,4.65,4.65,0,0,1-.7,1.94l-0.15,1.08c-0.52.52,0,1.93-.29,2.43a5,5,0,0,0-.09,3.69c0.23,0.71-.25,1.73-0.16,2a1.53,1.53,0,0,0,0,2.24c0.25,0.25-.2,1.1.06,2.65,0.19,1.91.39,1.81,1.07,2,0,0.58-.13,1.73.53,1.66,0.35,1.05-.43,2,0.93,2.27,0.07,0.87-.07,1.36,1.28,1.8,0,1.69.77,1.54,1.07,1.87,0.15,0.56,2.09,2.64,2.53,2.6a8.08,8.08,0,0,0,1,.84c0.8,0.32,2.19,0,3.11.29a1.74,1.74,0,0,1,.69.49c-0.11,1.13-1,1.8-1.08,1.58l-1.46.57c-0.78.3-2,.34-1.87,1.19,0.31,1.66-1.72,1.2-1.8,1.94-0.13,1.21.16,1.75-.69,2.38-0.85.26-.22,0.55-0.71,0.94l-0.76.78c-0.47-.1-1.28,2.32-0.52,2.66,0.06,1.85-1.07.76-.81,2.25a0.59,0.59,0,0,1,.2.8c-0.67.28-.59,0-0.56,1.17a0.68,0.68,0,0,1,.08,1.14c0.23,1.86-.73,2.54.06,3.17a1.31,1.31,0,0,0,.77,1.12c0,1.8.07,1.39,1.08,2.17,0,1.59,1.11,3.07-.44,2.84-0.64,0-2.44,2.36-2.46,2.36s-1.43,1.43-1.43,1.5c-1.69,0-1.29.34-1.71,0.76a4.05,4.05,0,0,1-2.49,3.43,2,2,0,0,0-.37,1.36,2.48,2.48,0,0,0-2.34,2.35c-1.77,0-1.14,1.89-1.62,2.87l-0.5.41c-0.09.57,0,1.76-.45,2.07-0.69.8-2.35,1.47-2.47,2.32-0.32,0,0,.77-0.14,1.36-0.78.34-.83,1.62-0.92,2.22-1,.74-0.9.68-0.87,2.16,0.15,0,0,2.57.5,3,0,1.69.39,1.21,1,2.05a1.09,1.09,0,0,1,.35.76c0.91,0.28,0,.91.47,1.68l0.17,0.52c0.48,2.28-.73,2.65-0.86,2.8-0.89.89-3,.58-3.4,0.52,0,0.12-.08.46-0.08,0.64a6.9,6.9,0,0,0,3.58-.31,3.74,3.74,0,0,1,.74-0.31v-0.06c0.39-.26,4.58-2,4.58-2.48,0.19,0,2.25-.39,2.25-0.33a3.28,3.28,0,0,0,2.35-.13c0.31-1,1.66-.85,2.12-0.62,0.74,0.29,3.4-1.1,3.95-2a2.8,2.8,0,0,1,1.27-.42,3.68,3.68,0,0,1,.73-1c0.07-1.22,2.05-.3,2.85-2.55a2.72,2.72,0,0,0,1.26-1.23,3.74,3.74,0,0,1,.19-1.2c0.06,0,.42-1.62.8-1.62a1.14,1.14,0,0,0,.29-0.55c0-.43-0.12-0.87-0.12-1.3a6.81,6.81,0,0,1,.87-0.5c0-.49,0-1.56.71-1.81,0.93-2.36-.92-4.32.06-4.29A6.25,6.25,0,0,0,226,193a0.84,0.84,0,0,0-.06-1.23,0.93,0.93,0,0,1-.17-0.82,7.18,7.18,0,0,1,.68-0.87c0-.31.11-1.3-0.37-1.3-0.25-.25-0.31-1.42.31-1.42a0.53,0.53,0,0,0,.12-0.74,6.09,6.09,0,0,1,.21-1.74,3,3,0,0,1,.82-1.25c0.92-.56.7-1.1,2.15-1.1l0.53-.11,0.49-.82c1.32,0,1.32-.39,1.49-1.1a1.48,1.48,0,0,0,.28-0.53,1.28,1.28,0,0,0,.85-1.52c0-.68.61-0.56,0.91-1.17l0.51-.56c0.55-.68.12-1.33,0.12-2.07-0.46-.46-0.28-0.39-0.28-1.06,0.72-.72.49-0.6,1.15-0.6,0-.86-0.47-1.66.27-1.63,0.11-.33.39-1.83,0-2.21a0.72,0.72,0,0,1-.29-0.65,4.38,4.38,0,0,0,.35-2,4,4,0,0,1-.22-1.51,3,3,0,0,1,.78-1.26,1.51,1.51,0,0,0,0-1.31A1.46,1.46,0,0,1,236.39,160.5Zm-13.62-8.55c-0.45-.83-0.28-1.49-2-1.76l-0.43-.42c0-1.46-1-.56-1-1.29s-1.51-1.8-1.76-2.55c-0.42-.83,1-0.62-1.14-1.34-0.29,0,.12-1.62-0.63-1.62,0-.13-0.16-2.23-0.79-2.23a4.27,4.27,0,0,0,0-1.81,1.08,1.08,0,0,1,.06-1.11c0-.52-0.47-2-0.21-2.48,0.39,0.2.19-1.26,0.19-2,0.67-1.55.26-.8,0.26-1.68-0.61-.39-0.09-1.38-0.16-1.66a6.2,6.2,0,0,1,0-1.8c0.13-.87,1.5.37,0.88-3.51,1-1-.42-2.9.9-3.75,0-.21.37-2-0.58-2-0.19-.47.2-0.85-0.1-1.28a1.63,1.63,0,0,1-1.22-1.22,0.71,0.71,0,0,1,.06-0.23l0-.1,0,0,0.05-.08,0,0,0.05-.06,0.12-.09,0,0,0.1,0h0.22a0.6,0.6,0,0,1,.17.06c0,0.35,1.33.13,1.54,0,0-.25,1,0,1.22,0a1.34,1.34,0,0,0,1.27.66c1-.07-0.38,1.95,1.56,1.6,0.34,0.35-.14.86,0.76,1.06a2.15,2.15,0,0,1,.63,0c1.2,0.46,1.29,1.48,1.19,1.36,0.11,0.32.95,0.79,0.58,1.16a1,1,0,0,0,.66,1.22c0.64,0.06,1,1.22,1.95,1.42,0.27-.3.6-0.49,0.67,0.52,0.21,0.73,1.25.3,1.48,0.71a8.82,8.82,0,0,0,.45,1.87c0.61,0.07.41,0.75,1.29,1a1.88,1.88,0,0,0,.73,1.48,2.81,2.81,0,0,1,.76,2c0.13,0.31,0,.39.26,0.48l0.12,0,0.13,0.06c0.35,0.24,0,.81.26,1.14h0a0.59,0.59,0,0,0,.19.13c0,0.75-.11,2.12,1.17,2.55l0.24,2.1a0.91,0.91,0,0,1-.56,1.37,1.23,1.23,0,0,0,0,1.21c0.4,0.18.6,0.94-.06,1,0.12,0.81-1.37.86-1.08,2.32a2.1,2.1,0,0,1-.14.29l-0.09.15-0.09.14-0.16.22,0,0.06-0.21.26h0a8.81,8.81,0,0,1-1.16,1.16c-0.55.42-.42,1.15-0.69,1.49s-0.8.58-1,.9a0.71,0.71,0,0,0-.07.17,0.74,0.74,0,0,0,0,.2l-0.28.21-0.08.06-0.14.13-0.07.07-0.1.11-0.17.21c-0.11.15-.19,0.27-0.28,0.38v0l-0.13.11,0,0h0a2,2,0,0,1-1.07.21c-0.13,0,.25,0,0.13,0a0.34,0.34,0,0,1-.13.19l0.06,1.1c-0.16.43-1.29,1.38-1.54,0.13C224.78,151.58,223.94,151.95,222.78,151.95ZM226,186.69c-0.25.15-1.57,1.15-.37,2l0.07,1.22-0.07.32c-0.64,0-.63,1.34-0.47,1.47,0.45,0.33.28,0.48,0.18,0.84-0.18.94,0.24,2-.32,2-0.58.26-.25,0.88-0.25,1.53,0.93,0,.43,2.16.43,2.52-1.05.17,0.45,1.86-1.51,1.84-0.32.26,0.53,2.65-.58,2.37-0.22.33-.55,2.41-0.89,2.84a1.08,1.08,0,0,1-.45.71,1.43,1.43,0,0,0-1.15.55,2.41,2.41,0,0,1-1.09,1.49c-1.69.62-.52,1.33-1.56,1.5-1.55,0-1.89.79-2.6,1.72l-1,.16c-0.54.18-.48,0.71-1.24,0.5-0.36-.71-2.67.46-3.12,0.81a5.06,5.06,0,0,1-1.91,0,2.73,2.73,0,0,0-2.15.49,8.39,8.39,0,0,0-2.18,1.46,14.25,14.25,0,0,1-1.62.72,1.65,1.65,0,0,1-.07-0.29c0.14,0,.28-0.36.42-0.36,0.33-1.66.06-1.92-.26-3.86-1-.55-0.3-1.65-0.46-1.54a0.76,0.76,0,0,1-.52-0.23,2,2,0,0,1-.28-1.23s0-.07,0-0.1a0.34,0.34,0,0,0,0,0,0.32,0.32,0,0,0,0-.1v0a0.08,0.08,0,0,0-.07,0c-0.5,0-.22-2.11-0.22-2.25-0.47-.05,0-1.83.09-2,0.09-1.53.52-.17,0.71-1.23l0.34-1.4a5.08,5.08,0,0,0,.3-1.46c0.59-.19,2.22-1.13,2.44-2.09l0-.6c0.77-.77.69-0.46,0.6-1.73,0.92,0,.8-1.95.8-2.21a2.09,2.09,0,0,0,1.55-1.62c0.17-.16.33-1.46,1.63-0.68a0.62,0.62,0,0,0,.39-0.94,1.29,1.29,0,0,1,.43-1.29c0.57,0,2.5-1.6,2.5-2.13,0,0-.33-1.88.73-1a1.11,1.11,0,0,0,.68,0,1.5,1.5,0,0,1,.39-1.26,5.93,5.93,0,0,0,1.76-1.29,0.86,0.86,0,0,1,1.11-.92,1.76,1.76,0,0,1,1.29-1c1.52,0,.85-1.14,1.73-1.41,1.84,0,1.06-.51,1.09-2,0.95-.25.28-1.53-0.39-1.38-0.34-.15-0.33-0.36,0-0.64,0.87-.37,1.85.88,2.33,1,0.88-.16,2.19-0.28,2.8.29,0,1,0,.67-0.5,1.15,0,0,0,0,0,0s0,0.19,0,.35h0c0,0.59-.1,1.62.1,1.62,0,1.69.51,0.69,0.57,1.74a7.19,7.19,0,0,1,.3,2.68C225.43,184.17,226,186.6,226,186.69Zm9.31-22.17a11.58,11.58,0,0,0,.23,2.52,15.21,15.21,0,0,0-.31,2,4.38,4.38,0,0,1,.05,2.33,8,8,0,0,1-.23,1.17c0,0.12-1.06-1-1.06,1.73a0.71,0.71,0,0,0,.42.79,0.77,0.77,0,0,1,0,.43,3.12,3.12,0,0,1-.22.74v0l-0.11.22h0l-0.12.19,0,0-0.12.14h0l-0.12.1,0,0a0.29,0.29,0,0,1-.12,0v0.06l-0.23.18a2,2,0,0,0-.7,1.55,1.49,1.49,0,0,0-.83,1h0c0,0.15,0,.29-0.08.43h0l0,0.08,0,0,0,0.07,0,0,0,0-0.1.09c-0.24.25-.79,0.25-1.1,0.57a2.1,2.1,0,0,1-1.19.57,1.53,1.53,0,0,0-1.29.74,2.37,2.37,0,0,1-.8.57,2.17,2.17,0,0,1,0-1.25,3.53,3.53,0,0,0-.1-1.08c-1.15-.52-0.37-1.94-0.71-1.94a1,1,0,0,1,0-.71,1.65,1.65,0,0,0,.89-0.93,1.06,1.06,0,0,0,.12-0.53h0a0.33,0.33,0,0,0,0-.1h0l-0.05-.08h0l-0.08-.06h0l-0.12,0h-0.12a3.43,3.43,0,0,1-1.15-.63h-0.1l-0.15.08,0-.09c-0.47-.09-1.43-0.37-1.69-0.11a0.86,0.86,0,0,1-.85,0c-0.3-1.4-2.47-.81-2.65-0.62,0.13-.16-1.87.69-0.53,1.35a15.49,15.49,0,0,1-.09,1.74c-0.1.35-.1,1.06-1,0.39,0-.5-0.23-1.13-0.23-1.57a1.94,1.94,0,0,1-1-.87s0-.06,0-0.09a10.88,10.88,0,0,0-.72-1.94v0a1.46,1.46,0,0,1,0-.28c0-.62-0.69-0.06-0.37-1.64l0.09-.84a11.17,11.17,0,0,1-.07-1.72c0.61-.41.11-0.72,0.37-1.24,0.31,0.06.36-.75,0.25-0.88s0-.6,0-0.66c0.39,0,.52-1,0.52-1.16s-0.19-.93-0.19-1.09c0-.66,1-2.1,1.7-2.1a0.87,0.87,0,0,0,.18-0.85,1.71,1.71,0,0,0,1.27-1,1.23,1.23,0,0,0,0-.94c-0.43-1.54,2.09-.54,1.59-2.13,0-1.63,2.36-1,2.36-1.52,0.48,0,.9-0.87,1.42-0.87s0.91-1.34,1-1.48c1.08-.57,2.48-0.54,1.66-2.08a4.35,4.35,0,0,1,.23-0.37l0,0h0L229.2,151h0.42a1.41,1.41,0,0,0,.29,0l0,0a0.82,0.82,0,0,0,.22-0.1l0,0a0.69,0.69,0,0,0,.14-0.16s0-.06,0-0.08a0.85,0.85,0,0,0,.07-0.2s0-.11,0-0.17a1.92,1.92,0,0,0,0-.22,2.89,2.89,0,0,0-.08-0.49,3.21,3.21,0,0,0,.47-0.42,3.3,3.3,0,0,0,2.46-.79h0.41l0.2,0h0a0.73,0.73,0,0,1,.36.18,1.07,1.07,0,0,0,1.11,0c0.31-.31.85,0,1.22,0a0.32,0.32,0,0,1-.23.49c-0.33.25-1.32,0.77-.87,1.42a7.11,7.11,0,0,1-.46,3.58c0,1.25.25,1.54,0.25,2.9-0.12.62,0.63,0.91,0.36,1.73a1.36,1.36,0,0,0-.21.76,1.74,1.74,0,0,1,.12,1.36c-0.25,0-.12,1.16,0,1.45A1.64,1.64,0,0,1,235.31,164.52Z" transform="translate(-9.34 -11.05)"/><path class="cls-4" d="M220.86,174.85c0-.07,0-0.44,0-0.51a5.86,5.86,0,0,0-.53-0.91c-0.25,0-.77-1.35-1.07-1.35-0.05-.16-0.9-1.57-0.21-1.57" transform="translate(-9.34 -11.05)"/><path class="cls-4" d="M223.34,173.31a10.89,10.89,0,0,0-.77-1.52c0-2.4.38-1.06-1-2.42-0.23-1,.6-1.21.48-2.35" transform="translate(-9.34 -11.05)"/><path class="cls-6" d="M223.7,175.71a5.92,5.92,0,0,0-.36-2.39" transform="translate(-9.34 -11.05)"/><path class="cls-4" d="M225.23,170.34a5.61,5.61,0,0,0-.87-3.18c0-1.29-1.63-1.27-1.09-2.85a7.3,7.3,0,0,0,.43-3.49" transform="translate(-9.34 -11.05)"/><path class="cls-6" d="M225.55,175.56a11.51,11.51,0,0,0,0-3.56,9.29,9.29,0,0,1-.31-1.67" transform="translate(-9.34 -11.05)"/><path class="cls-4" d="M228.22,176a3.49,3.49,0,0,1,1.44,0,0.44,0.44,0,0,1,.78,0,1.49,1.49,0,0,0,.71-0.29A1.14,1.14,0,0,1,232,175" transform="translate(-9.34 -11.05)"/><path class="cls-6" d="M226.72,176.78a3.34,3.34,0,0,0,.24-0.36,2.07,2.07,0,0,1,1.24-.4" transform="translate(-9.34 -11.05)"/><path class="cls-4" d="M230.37,158c-0.08-.85-0.43-1.88-0.13-2.37h0.07c0.28-.5,0-1.5.28-2h0.07a6.28,6.28,0,0,0,.78-1.28l0.07-.07c0.57,0,1.35-1,2.13-1,0-.14.28-0.14,0.28-0.28a574.85,574.85,0,0,1,.29-0.29" transform="translate(-9.34 -11.05)"/><path class="cls-6" d="M225.48,175.77a24.13,24.13,0,0,0,1.84-4.76c0.47-1.43,1.39-3,1.39-4.47a5.49,5.49,0,0,0,.66-1.73c0.46-1.44.07-3.49,0.57-5a3.8,3.8,0,0,1,.21-0.85h0.07a1.57,1.57,0,0,0,.13-1" transform="translate(-9.34 -11.05)"/><path class="cls-4" d="M230.3,158.05a0.6,0.6,0,0,1,.36-0.21,1.69,1.69,0,0,1,.35-0.36,3.39,3.39,0,0,0,.78-0.64h0.07a3.16,3.16,0,0,1,.71-0.92c0-.71.43-1.71,0.43-2.56m-4.9,8.33a5.16,5.16,0,0,1,0-5.55h0.07a3.81,3.81,0,0,0,.07-0.93" transform="translate(-9.34 -11.05)"/><path class="cls-6" d="M230.8,163.89a0.69,0.69,0,0,0-.43.36c-0.14,0-.31.5-0.45,0.5a6.13,6.13,0,0,1-1.18,1.92c0-1.64.57-3.77-.64-5" transform="translate(-9.34 -11.05)"/><path class="cls-4" d="M232.58,158.41a9.65,9.65,0,0,1-.36,3.2,1.37,1.37,0,0,0-.21.57,1.81,1.81,0,0,0-1.21.28v1.42m-0.36,3.35c1.14-1,.94-0.57,2.49-0.57l0.28-.85c0.27,0,.29-1.21.57-1.5" transform="translate(-9.34 -11.05)"/><path class="cls-6" d="M227.51,170.77a4.7,4.7,0,0,1,.95-0.69,12.46,12.46,0,0,1,1.42-.85c0-1.39.18-1.6,0.57-2" transform="translate(-9.34 -11.05)"/><path class="cls-4" d="M227.89,173.43c0.88-.5,2.22,0,2.22-1.35,0.67,0.21.82-.16,1.47-0.43a1.14,1.14,0,0,1,1.07-1.14l0.07-.07a3.57,3.57,0,0,1,.36-1l0.07-.07" transform="translate(-9.34 -11.05)"/><path class="cls-6" d="M226.33,174c0.67,0,1.26.06,1.55-.54" transform="translate(-9.34 -11.05)"/><path class="cls-4" d="M205,210.92c-0.11-.45-0.24-0.86-0.31-1.19a16.27,16.27,0,0,1-.28-2.7c0.68-.68-0.43-1.52-0.43-2.35,0.35-.35,1.45-2,0.29-2-0.81-1,.87-2.19,1.71-2.56" transform="translate(-9.34 -11.05)"/><path class="cls-6" d="M204.81,214.5a11.17,11.17,0,0,1,.36-1.5,5,5,0,0,0-.19-2.09" transform="translate(-9.34 -11.05)"/><path class="cls-4" d="M216.46,189.93a12,12,0,0,1,2.27-4.33" transform="translate(-9.34 -11.05)"/><path class="cls-6" d="M215.89,192.93a10.61,10.61,0,0,1,.57-3" transform="translate(-9.34 -11.05)"/><path class="cls-4" d="M221.4,186.32c0.92-1.49.67-3.92,0.67-5.78m-14.2,21.14a11.18,11.18,0,0,0,.07-2.63" transform="translate(-9.34 -11.05)"/><path class="cls-6" d="M207.72,203.68c0.29-.36,0-2,0.14-2m0.2,8.41a1.48,1.48,0,0,0-.49-1.08c-0.44-.53.23-2-0.5-2.71,0-1.68-.64-1.53.64-2.63" transform="translate(-9.34 -11.05)"/><path class="cls-4" d="M216.88,192.31c0.5,0,2.41-1.3,2.41-1.87a7.44,7.44,0,0,1,2.49-.93" transform="translate(-9.34 -11.05)"/><path class="cls-6" d="M207.94,211.09a16.49,16.49,0,0,0,2.56-2.42h0.57" transform="translate(-9.34 -11.05)"/><path class="cls-4" d="M210.92,206.17a4.74,4.74,0,0,1,2.77-.5c0,0.83,1.39.46,1.69,0.15l0.86-.67c0-.68,1.46-0.34,2.13.16" transform="translate(-9.34 -11.05)"/><path class="cls-6" d="M208.53,208.68a19.29,19.29,0,0,0,2.38-2.5" transform="translate(-9.34 -11.05)"/><path class="cls-4" d="M211.06,208.67a1,1,0,0,1,.43.5c1.56,0,3.55.71,5.18-.28,0.07,0,.21-0.14.28-0.14m-0.14-16.44c0-.93,2.27-2.35,2.84-2.35a41.74,41.74,0,0,1,2-4.13,34,34,0,0,1,2.84-4.34" transform="translate(-9.34 -11.05)"/><path class="cls-6" d="M206.59,213.51c1.9-2.36,1.81-6.37,2.84-9.11,0.19-.61.67-4.48,1.56-4.48,0-1,1.78-2.06,1.78-3a3.78,3.78,0,0,0,.78-1.49l0.07-.07c0.85,0,2.24-3.06,3.2-3.06" transform="translate(-9.34 -11.05)"/><path class="cls-4" d="M212.12,202.4c0.35-.1,1.7,0,1.92-0.29,0.75-1,2.16-1.68,3.12-.71,0.43,0,.85-0.21,1.21-0.21,0-1.47,1.85-1.52,1.85-1.92H221" transform="translate(-9.34 -11.05)"/><path class="cls-6" d="M209.5,204.36c1-.36,1.69-1.7,2.62-2" transform="translate(-9.34 -11.05)"/><path class="cls-4" d="M211.44,196.42a28.07,28.07,0,0,1,0-3.78,7,7,0,0,0,1.13-1.28" transform="translate(-9.34 -11.05)"/><path class="cls-6" d="M214.47,196.71c-1.21.41-1.68,1.25-2.75,1.89a3.41,3.41,0,0,0-.09-1.32,5.48,5.48,0,0,1-.18-0.85" transform="translate(-9.34 -11.05)"/><path class="cls-4" d="M221.85,194.78a3.13,3.13,0,0,1-.64.71,20.57,20.57,0,0,0-6.75,1.21" transform="translate(-9.34 -11.05)"/></svg>