<?xml version="1.0" encoding="utf-8"?>
<!-- Generator: Adobe Illustrator 19.2.0, SVG Export Plug-In . SVG Version: 6.00 Build 0)  -->
<svg version="1.1" id="Layer_1" xmlns="http://www.w3.org/2000/svg" xmlns:xlink="http://www.w3.org/1999/xlink" x="0px" y="0px"
	 viewBox="0 0 260 50" preserveAspectRatio="xMinYMid" style="enable-background:new 0 0 260 50;" xml:space="preserve">
<style type="text/css">
	.st0{fill:#010101;}
	.st1{fill:#0959A7;}
</style>
<g>
	<path class="st0" d="M81.5,19.4h4.2v15.3h9.6v3.8H81.5V19.4z"/>
	<path class="st0" d="M113.2,23.2h-10.3v3.9h9v3.8h-9v4h10.4v3.8H98.7V19.4h14.5V23.2z"/>
	<path class="st0" d="M129.4,38.6l-4.3-6.6l-4.3,6.6H116l6.7-9.7l-6.4-9.4h4.9l4,6.2l4.1-6.2h4.8l-6.4,9.4l6.7,9.8L129.4,38.6
		L129.4,38.6z"/>
	<path class="st0" d="M142.2,19.4v19.2H138V19.4H142.2z"/>
	<path class="st0" d="M160.1,19.4h4.2v19.2h-3.6l-9.3-12.2v12.2h-4.2V19.4h3.9l9,11.8L160.1,19.4L160.1,19.4z"/>
	<path class="st0" d="M178.4,38.9c-6,0-10.1-4.2-10.1-9.9c0-5.5,4.2-9.9,10.1-9.9c3.5,0,5.5,0.9,7.5,2.6l-2.7,3.2
		c-1.5-1.2-2.8-1.9-5-1.9c-3.1,0-5.5,2.7-5.5,6c0,3.5,2.4,6.1,5.8,6.1c1.5,0,2.9-0.4,4-1.1v-2.7h-4.2v-3.6h8.3V36
		C184.6,37.6,181.9,38.9,178.4,38.9z"/>
	<path class="st0" d="M199.4,38.6h-4.2V23.3h-5.9v-3.9h15.9v3.9h-5.8L199.4,38.6L199.4,38.6z"/>
	<path class="st0" d="M217.2,38.9c-5.9,0-10.2-4.4-10.2-9.9s4.3-9.9,10.2-9.9s10.2,4.4,10.2,9.9C227.4,34.5,223.1,38.9,217.2,38.9z
		 M217.2,23c-3.4,0-5.8,2.7-5.8,6s2.4,6.1,5.8,6.1c3.4,0,5.8-2.7,5.8-6C223,25.7,220.6,23,217.2,23z"/>
	<path class="st0" d="M244.3,19.4h4.2v19.2h-3.6l-9.3-12.2v12.2h-4.2V19.4h3.9l9,11.8L244.3,19.4L244.3,19.4z"/>
</g>
<g>
	<g>
		<path class="st1" d="M8.2,3.7c0.2,0,0.9,0.2,1.2,0.3s1.1,0.4,1.4,0.4c4,1.3,4.1,1.3,7.8,3.3c1.8,0.9,3.3,2.4,3.3,2.4
			c0.2,0.1,0.7,0.5,1.4,0.6c0.7,0.1,2,0.2,2.3,0.3c0.2,0,1.1,0.3,1.4,0.4l3.8,1.8c0.8,0.3,1.3,0.6,2.2,0.7c1,0.1,2.2,0.2,4.5-0.4
			c2.3-0.6,3.4-0.9,3.8-1c0.2-0.1,2.8-0.8,2.8-0.8c1.8-0.5,3.7-0.2,3.7-0.2c0.7,0.1,3.8,0.9,3.8,0.9c1.1,0.4,3.2,0.7,3.2,0.7
			c2.1,0.1,3.3,1.2,3.3,1.2c2.5,1.9,3.5,5.3,3.5,5.3c1.7,5.6,0.6,13.8,0.6,13.8s-0.1,0.5-0.3,0.7c0,0-0.2,0.1-0.3,0
			c0,0-0.3-0.8-0.6-1.7c-0.4-1.2-0.5-2.4-0.5-2.4c0-0.1-0.1-1.1-0.1-1.1c0.1-2.5-0.9-4.1-0.9-4.1c-1.2-2-1.4-3.1-1.4-3.1
			c-0.5-2-0.5-2-0.8-4.1c0-0.2-0.1-0.5-0.2-0.7c0,0-0.1-0.9-0.9-1.6c0,0-0.6-0.5-1.8-0.5c0,0,0.5,0.6,0.6,0.9
			c0.7,1.1,1.1,2.3,1.1,2.3c0.1,0.5,0.2,0.9,0.2,2.1c0,1.3-0.1,3-0.2,3.5s-0.3,1.4-0.5,1.7c-0.2,0.4-0.7,1.5-0.8,1.8
			c-0.5,1.2-0.3,2.4-0.3,2.4c0,0.5,0.2,0.9,0.3,1.1c0.1,0.3,0.6,1.3,0.7,1.6c0.1,0.3,0.7,1.4,1,1.8c0.2,0.4,0.6,0.9,0.7,1.1
			s0.2,0.5,0.2,0.8c-0.1,0.4-0.1,0.6-0.1,0.7c-0.2,2.8,0.2,6.3,0.2,6.3c0,0.1,0,0.5,0,0.6s0.1,0.5,0.1,0.7c0.1,0.8-0.3,1.1-0.3,1.1
			c-0.2,0.1-0.3,0.2-0.4,0.4c0,0-0.3,0.4-0.3,1c0,0.1,0.1,0.4,0.1,0.5s0,0.5,0,0.6c0,0,0,0.4-0.5,0.8h-2.3c0,0-0.3,0-0.1-0.2
			c0.1-0.1,0.3-0.6,0.4-0.7c0.4-0.6,1.1-1.5,1.1-1.5c0.3-0.4,0.4-1.2,0.5-1.6c0.2-0.7,0.1-1.6,0.1-1.6c-0.1-0.4-0.3-2-0.3-2.2
			c0-0.3,0-0.6,0-0.7c0-0.1-0.2-0.6-0.3-0.8c-0.1-0.2-0.3-0.6-0.4-0.7c0,0-0.4-0.5-0.4-1.1c0-0.4-0.2-0.7-0.2-0.7s-0.2-0.6-0.6-1.1
			c-0.1-0.2-0.6-0.7-0.8-0.9c-0.2-0.3-0.6-0.8-0.6-1c-0.1-0.2-0.3-0.6-0.3-0.7c-0.1-0.2-0.2-0.7-0.3-0.8s-0.2-0.4-0.2-0.4
			c-0.1-0.1-0.1-0.1-0.1-0.1s0,0.5,0,0.8c0,0.2,0.1,1.6,0.2,2.2c0.1,0.6,0.1,0.9,0,1.3c-0.1,0.4-0.3,0.6-0.4,0.7
			c-0.1,0.1-0.3,0.5-0.3,0.6c0,0.2-0.2,0.8-0.4,1.1c-0.1,0.3-0.2,0.5-0.3,0.7c0,0-0.9,1.8-1.3,3.1c-0.2-0.3-0.6,0.8-0.6,1.1
			c-0.2,0.7-0.4,1.4-0.4,1.4c-0.2,1-0.8,1.1-0.8,1.1c-0.2,0-0.3,0.1-0.4,0.1c-0.1,0.1-0.4,0.3-0.5,0.4s-0.3,0.5-0.3,0.5
			c0.2,0.5,0.1,0.9,0.1,0.9c-0.1,0.4-0.3,0.5-0.3,0.5H43c-0.1,0-0.1-0.1-0.1-0.1c0.3-0.9,1-1.6,1-1.6c0.4-0.4,1.1-0.9,1.2-1.1
			c0.2-0.2,0.7-0.5,0.8-0.7c0.1-0.2,0.3-0.8,0.4-1c0.3-0.6,0.4-1.2,0.4-1.2c0-0.3,0.2-0.9,0.2-1c0.4-1.4,1.2-3.1,1.2-3.1
			c0-0.2-0.1-1.3-0.2-1.4c-0.1-0.6,0.1-1.5,0.1-1.5c0-0.1,0-0.6-0.1-0.8c0-0.2-0.1-0.7-0.2-1c-0.1-0.3-0.1-0.9-0.3-1.4
			c0,0-1.1-3.2-1-5.8c-2-0.8-3,0.4-3,0.4c-3.5,3.7-11.8,2.2-11.8,2.2c-1.1-0.3-2.1-0.2-2.7-0.1c-0.6,0-1.1,0.2-1.6,0.3
			c-0.5,0.1-0.7,0.1-0.7,0.2s0,0.9,0,1.2c0,0,0.6,5,1.1,7.5c0.1,0.4,0.5,2.1,0.5,2.4c0.1,0.3,0.6,2.3,0.8,2.8c0.1,0.5,0.3,1,0.2,1.3
			c-0.1,0.3-0.2,0.5-0.4,0.6c0,0-0.6,0.5-0.8,1.3c0,0,0.2,0.4,0.1,1c0,0,0,0.2-0.1,0.4c-0.1,0.1-0.3,0.2-0.3,0.2s-2.2,0-2.3,0
			c-0.1,0-0.1-0.1-0.1-0.1c0-0.2,0.3-0.7,0.3-0.7c0.2-0.3,0.6-0.7,0.8-0.9c0,0,0.9-1.3,1-2.1c0-0.3,0-0.8-0.1-1.1
			c0-0.3-0.2-1-0.3-1.4c-0.1-0.5-0.4-1.4-0.6-1.6c-0.1-0.2-0.8-2-0.9-2.2c-0.1-0.2-0.3-0.6-0.4-0.8c-0.1-0.2-0.2-0.6-0.3-1
			c0,0-0.3,1.1-0.4,2.4c0,0.7,0,2.4,0,2.4c0,0.1,0.2,1.2,0.2,1.5c0.1,0.7,0.2,1.9,0.2,1.9c0,0.1,0,0.6-0.1,0.7
			c-0.1,0.2-0.3,0.5-0.5,0.5c-0.2,0.1-0.4,0.1-0.5,0.2s-0.2,0.4-0.3,0.5c0,0.1-0.2,0.3-0.1,0.3c0,0.1,0,0.1,0.1,0.3
			c0,0,0.3,0.4-0.2,1.1l-0.1,0.2c0,0-2.3,0-2.4,0c0,0-0.1,0-0.1-0.1c-0.1-0.1,0.1-0.3,0.1-0.3c0.2-0.4,0.5-0.7,0.6-0.8
			s0.5-0.5,0.5-0.6c0.3-0.3,0.8-1,0.8-1c0.5-0.8,0.5-1.9,0.5-1.9c0-0.6-0.2-2.6-0.2-2.9s-0.2-0.7-0.3-0.9c-0.5-1.1-0.7-2.6-0.7-2.6
			c0-0.3-0.1-1.2-0.1-1.5c-0.1-2.3-1-4.2-1-4.2c-0.1-0.3-0.5-1-0.5-1.2c-0.1-0.2-0.2-0.8-0.3-1c0-0.2,0-0.4-0.3-0.5
			s-0.8-0.4-1.1-0.7c0,0-2.6-2-2.9-5.3c-0.1-1-0.3-2.5-0.4-2.7c0-0.1,0-0.6-0.9-1.6s-1.3-1.4-1.8-2.4c-0.6-0.9-1.2-2.3-1.5-2.8
			c-0.2-0.5-0.3-1-0.5-1.2c-0.2-0.3-0.5-0.5-0.9-0.6s-0.6-0.1-0.6,0c-1,1-1.6,0.9-2.5,0.7c-0.3-0.1-1.1,0.8-2,1.4
			c-0.3,0.2-0.5,0.2-0.8,0.5c0,0-0.2,0.2-0.3,0.6c-0.2,0.5-0.3,0.5-0.8,0.9c-0.2,0.1-0.5,0.2-1,0.2c-0.5-0.1-0.9-0.2-1-0.4
			s-0.1-0.3-0.2-0.4c-0.1-0.1-0.2-0.3-0.3-0.4C0,14.4,0,14.1,0,14c0-0.3,0.1-0.3,0.2-0.6c0.2-0.5,0.1-0.8,0.5-1.4
			C1.4,11,2,10.3,2,10.3c1-1.2,0.9-2.7,0.9-2.7c0-0.2,0-0.6,0.1-0.8c0.2-0.3,0.3-0.4,0.6-0.6C3.8,6,4,5.7,4.1,5.6
			c0,0,0.1-0.2,0.1-0.6c0,0,0-0.3-0.1-0.5c0,0-1-1.1-0.8-2.3c0-0.2,0.4-0.4,0.6,0C4.5,3,5.1,3.6,5.1,3.6S5.5,3.4,6,3.4
			c0,0,0-0.1,0-0.4c0-0.2-0.2-0.4-0.2-0.7c0-0.1,0-0.4,0.1-0.5c0.1-0.3,0-0.6,0-0.8c0-0.1,0.2-0.3,0.4-0.1c0.9,0.7,0.9,1.5,0.9,1.5
			c0,0.1,0,0.4,0,0.4c0,0.3,0,0.4,0,0.4C7.6,3.5,8.2,3.7,8.2,3.7z"/>
	</g>
	<g>
		<path class="st1" d="M18.1,47.9C18,48,18,48.2,17.9,48.3s-0.2,0.2-0.4,0.2c-0.1,0.1-0.3,0.1-0.5,0.1s-0.3,0-0.4-0.1
			s-0.3-0.1-0.4-0.2c-0.1-0.1-0.2-0.2-0.2-0.4c-0.1-0.1-0.1-0.3-0.1-0.4c0-0.2,0-0.3,0.1-0.4c0.1-0.1,0.1-0.3,0.2-0.4
			c0.1-0.1,0.2-0.2,0.4-0.2c0.1-0.1,0.3-0.1,0.5-0.1s0.3,0,0.4,0.1s0.3,0.1,0.4,0.2s0.2,0.2,0.2,0.4c0.1,0.1,0.1,0.3,0.1,0.4
			S18.2,47.8,18.1,47.9z M18,47.1c-0.1-0.1-0.1-0.2-0.2-0.3s-0.2-0.2-0.3-0.2c-0.1-0.1-0.3-0.1-0.4-0.1s-0.3,0-0.4,0.1
			s-0.2,0.1-0.3,0.2c-0.1,0.1-0.2,0.2-0.2,0.3c-0.1,0.1-0.1,0.3-0.1,0.4s0,0.3,0.1,0.4s0.1,0.2,0.2,0.3s0.2,0.2,0.3,0.2
			c0.1,0.1,0.3,0.1,0.4,0.1s0.3,0,0.4-0.1s0.2-0.1,0.3-0.2c0.1-0.1,0.2-0.2,0.2-0.3c0.1-0.1,0.1-0.3,0.1-0.4
			C18.1,47.3,18.1,47.2,18,47.1z M17.5,47.5c0,0.1-0.1,0.1-0.2,0.1l0.3,0.4h-0.3L17,47.6h-0.2V48h-0.3v-1.2H17c0.1,0,0.3,0,0.3,0.1
			c0.1,0.1,0.1,0.2,0.1,0.3C17.6,47.3,17.6,47.4,17.5,47.5z M17.3,47.1c0,0-0.1,0-0.2,0h-0.3v0.4h0.3c0.1,0,0.1,0,0.2,0l0.1-0.1
			C17.3,47.2,17.3,47.1,17.3,47.1z"/>
	</g>
</g>
</svg>
