<svg id="Layer_1" xmlns="http://www.w3.org/2000/svg" viewBox="0 0 216 146"><style>.st0{fill:#585858;}</style><path class="st0" d="M162.2 41.6c-5.6-9.6-13.2-17.2-22.8-22.8-9.6-5.6-20.1-8.4-31.4-8.4-11.3 0-21.8 2.8-31.4 8.4C67 24.4 59.4 32 53.8 41.6c-5.6 9.6-8.4 20.1-8.4 31.4s2.8 21.8 8.4 31.4c5.6 9.6 13.2 17.2 22.8 22.8 9.6 5.6 20.1 8.4 31.4 8.4s21.8-2.8 31.4-8.4c9.6-5.6 17.2-13.2 22.8-22.8 5.6-9.6 8.4-20.1 8.4-31.4s-2.8-21.8-8.4-31.4zM118.4 112c0 .8-.2 1.4-.7 1.9s-1.1.8-1.8.8h-15.6c-.7 0-1.3-.3-1.9-.8-.5-.5-.8-1.2-.8-1.9V96.5c0-.7.3-1.3.8-1.9.5-.5 1.2-.8 1.9-.8h15.6c.7 0 1.3.3 1.8.8s.7 1.2.7 1.9V112zm-.1-28c-.1.5-.3 1-.9 1.4-.5.4-1.2.6-1.9.6h-15.1c-.8 0-1.4-.2-2-.6-.5-.4-.8-.9-.8-1.4l-1.4-50.6c0-.7.3-1.1.8-1.5.5-.4 1.2-.7 2-.7h18c.8 0 1.4.2 2 .7.5.3.8.8.8 1.5L118.3 84z"/></svg>