<svg xmlns="http://www.w3.org/2000/svg" width="216" height="146" viewBox="0 0 216 146"><path d="M162.18 41.592c-5.595-9.586-13.185-17.176-22.77-22.77-9.59-5.596-20.056-8.393-31.41-8.393-11.35 0-21.82 2.796-31.407 8.39-9.587 5.595-17.177 13.185-22.772 22.772C48.226 51.18 45.43 61.65 45.43 73c0 11.352 2.798 21.82 8.392 31.408 5.595 9.585 13.185 17.176 22.772 22.77 9.587 5.596 20.056 8.393 31.408 8.393s21.822-2.796 31.408-8.39c9.586-5.595 17.176-13.186 22.77-22.772C167.774 94.82 170.57 84.35 170.57 73c0-11.352-2.797-21.822-8.39-31.408zm-64.608-15.52c0-.762.244-1.386.733-1.875.49-.488 1.114-.733 1.874-.733h15.643c.76 0 1.385.245 1.872.733.488.49.734 1.113.734 1.874v13.037c0 .76-.247 1.385-.735 1.873-.487.49-1.112.733-1.872.733H100.18c-.76 0-1.386-.244-1.875-.733-.49-.488-.733-1.113-.733-1.873V26.07zm31.285 86.035c0 .76-.246 1.385-.733 1.872-.487.488-1.112.732-1.874.732h-36.5c-.76 0-1.385-.244-1.874-.733-.49-.49-.733-1.114-.733-1.874V99.07c0-.762.244-1.385.733-1.874.49-.488 1.114-.733 1.874-.733h7.822v-26.07H89.75c-.76 0-1.385-.245-1.874-.734-.49-.49-.733-1.114-.733-1.875V54.75c0-.76.244-1.385.733-1.874.49-.49 1.114-.733 1.874-.733h26.073c.76 0 1.385.244 1.872.733.488.49.734 1.113.734 1.874v41.714h7.82c.76 0 1.385.245 1.873.733.487.488.733 1.113.733 1.874v13.037z"/></svg>