<svg id="Layer_1" xmlns="http://www.w3.org/2000/svg" viewBox="0 0 216 146"><style>.st0{fill:#585858;}</style><path class="st0" d="M162.2 41.6c-5.6-9.6-13.2-17.2-22.8-22.8-9.6-5.6-20.1-8.4-31.4-8.4-11.3 0-21.8 2.8-31.4 8.4C67 24.4 59.4 32 53.8 41.6c-5.6 9.6-8.4 20.1-8.4 31.4 0 11.4 2.8 21.8 8.4 31.4 5.6 9.6 13.2 17.2 22.8 22.8 9.6 5.6 20.1 8.4 31.4 8.4s21.8-2.8 31.4-8.4c9.6-5.6 17.2-13.2 22.8-22.8 5.6-9.6 8.4-20.1 8.4-31.4 0-11.4-2.8-21.8-8.4-31.4zM97.6 26.1c0-.8.2-1.4.7-1.9.5-.5 1.1-.7 1.9-.7h15.6c.8 0 1.4.2 1.9.7.5.5.7 1.1.7 1.9v13c0 .8-.2 1.4-.7 1.9-.5.5-1.1.7-1.9.7h-15.6c-.8 0-1.4-.2-1.9-.7-.5-.5-.7-1.1-.7-1.9v-13zm31.3 86c0 .8-.2 1.4-.7 1.9-.5.5-1.1.7-1.9.7H89.7c-.8 0-1.4-.2-1.9-.7-.5-.5-.7-1.1-.7-1.9v-13c0-.8.2-1.4.7-1.9.5-.5 1.1-.7 1.9-.7h7.8V70.4h-7.8c-.8 0-1.4-.2-1.9-.7-.5-.5-.7-1.1-.7-1.9v-13c0-.8.2-1.4.7-1.9.5-.5 1.1-.7 1.9-.7h26.1c.8 0 1.4.2 1.9.7.5.5.7 1.1.7 1.9v41.7h7.8c.8 0 1.4.2 1.9.7.5.5.7 1.1.7 1.9l.1 13z"/></svg>