<svg id="Capa_1" xmlns="http://www.w3.org/2000/svg" width="216" height="216" viewBox="0 0 216 216"><style>.st0{fill:#585858;}</style><path class="st0" d="M162.18 41.592c-5.595-9.586-13.185-17.176-22.77-22.77-9.59-5.596-20.056-8.393-31.41-8.393-11.35 0-21.82 2.796-31.407 8.39-9.587 5.595-17.177 13.185-22.772 22.772C48.226 51.18 45.43 61.65 45.43 73c0 11.352 2.798 21.82 8.392 31.408 5.595 9.585 13.185 17.176 22.772 22.77 9.587 5.596 20.056 8.393 31.408 8.393s21.822-2.796 31.408-8.39c9.586-5.595 17.176-13.186 22.77-22.772C167.774 94.82 170.57 84.35 170.57 73c0-11.352-2.797-21.822-8.39-31.408zm-13.608 21.876l-44.24 44.24c-1.03 1.03-2.28 1.548-3.747 1.548-1.412 0-2.634-.517-3.666-1.55l-29.495-29.49c-.977-.98-1.466-2.2-1.466-3.667 0-1.522.487-2.772 1.465-3.75l7.414-7.332c1.032-1.032 2.253-1.548 3.666-1.548s2.635.516 3.667 1.548l18.413 18.413 33.24-33.16c1.033-1.03 2.255-1.547 3.667-1.547 1.41 0 2.635.516 3.666 1.548l7.413 7.334c.98.977 1.467 2.226 1.467 3.747 0 1.468-.488 2.69-1.468 3.668z"/></svg>