<svg id="Layer_1" xmlns="http://www.w3.org/2000/svg" viewBox="0 0 216 216"><style>.st0{fill:#585858;}</style><path class="st0" d="M162.2 41.6c-5.6-9.6-13.2-17.2-22.8-22.8-9.6-5.6-20.1-8.4-31.4-8.4-11.3 0-21.8 2.8-31.4 8.4C67 24.4 59.4 32 53.8 41.6c-5.6 9.6-8.4 20.1-8.4 31.4 0 11.4 2.8 21.8 8.4 31.4 5.6 9.6 13.2 17.2 22.8 22.8 9.6 5.6 20.1 8.4 31.4 8.4s21.8-2.8 31.4-8.4c9.6-5.6 17.2-13.2 22.8-22.8 5.6-9.6 8.4-20.1 8.4-31.4 0-11.4-2.8-21.8-8.4-31.4zm-13.6 21.9l-44.2 44.2c-1 1-2.3 1.5-3.7 1.5-1.4 0-2.6-.5-3.7-1.6L67.4 78.2c-1-1-1.5-2.2-1.5-3.7s.5-2.8 1.5-3.8l7.4-7.3c1-1 2.3-1.5 3.7-1.5s2.6.5 3.7 1.5l18.4 18.4 33.2-33.2c1-1 2.3-1.5 3.7-1.5 1.4 0 2.6.5 3.7 1.5l7.4 7.3c1 1 1.5 2.2 1.5 3.7-.1 1.7-.6 2.9-1.5 3.9z"/></svg>