<svg xmlns="http://www.w3.org/2000/svg" width="216" height="146" viewBox="0 0 216 146"><path d="M179.695 125.388l-62.57-114.715c-.923-1.684-2.2-3.015-3.83-3.992-1.63-.977-3.395-1.466-5.296-1.466-1.902 0-3.668.49-5.297 1.467s-2.906 2.31-3.83 3.993l-62.57 114.715c-1.9 3.423-1.847 6.845.163 10.267.924 1.574 2.187 2.824 3.79 3.746 1.602.925 3.326 1.388 5.173 1.388h125.14c1.85 0 3.572-.463 5.175-1.387 1.603-.92 2.864-2.17 3.79-3.745 2.01-3.423 2.063-6.844.16-10.267zm-61.265-8.148c0 .76-.26 1.398-.773 1.914-.516.516-1.127.773-1.834.773H100.18c-.706 0-1.317-.257-1.833-.773-.516-.517-.774-1.154-.774-1.914v-15.48c0-.76.258-1.397.774-1.914.516-.516 1.126-.773 1.833-.773h15.642c.707 0 1.318.257 1.834.773.515.517.773 1.154.773 1.914v15.48zm-.162-30.47c-.056.543-.34.99-.856 1.344-.517.354-1.154.53-1.915.53h-15.073c-.76 0-1.412-.177-1.955-.53-.545-.354-.816-.8-.816-1.346l-1.385-37.23c0-.762.27-1.332.814-1.712.706-.597 1.358-.896 1.956-.896h17.924c.598 0 1.25.298 1.956.896.543.38.813.896.813 1.548l-1.465 37.396z"/></svg>