<?xml version="1.0" encoding="utf-8"?>
<!-- Generator: Adobe Illustrator 19.2.0, SVG Export Plug-In . SVG Version: 6.00 Build 0)  -->
<svg version="1.1" height="75px" id="Layer_1" xmlns="http://www.w3.org/2000/svg" xmlns:xlink="http://www.w3.org/1999/xlink" x="0px" y="0px"
	 viewBox="0 0 75 75" style="enable-background:new 0 0 75 75;" xml:space="preserve">
<style type="text/css">
	.st0{fill:#FFFFFF;}
</style>
<g>
	<g>
		<path class="st0" d="M68.8,24c0,16.5,0,33,0,49.5c-13.6,0-27.2,0-40.9,0c1.4-0.5,3-0.7,4.3-1.5c3.7-2.3,6.4-5.6,7.6-9.8
			c1.3-4.2,1.8-8.5,1.1-12.9c-0.7-4-1.3-8-2.3-11.9c-1.3-5-3.1-9.8-4.6-14.7c-0.1-0.4-0.1-1.1,0.2-1.3c1.6-1.1,3.2-2.1,5.1-3.4
			c0.3,2.1,0.5,3.9,0.8,5.6c0.7,3,1.5,6.1,2.3,9.1c0.1,0.4,0.7,0.9,1.2,1c0.3,0.1,0.9-0.6,1-1c0.9-2.7,1.7-5.4,2.5-8.1
			c0.5-1.8,1.1-3.6,1.6-5.4c0.2,0,0.3,0,0.5,0c0.3,1.9,0.5,3.8,0.8,5.7c0.3,1.7,0.5,3.5,0.9,5.2c0.1,0.4,0.6,0.8,1,0.8
			c0.3,0,0.9-0.3,1.1-0.6c0.7-1.3,1.3-2.7,1.8-4c0.9-2.3,1.7-4.7,2.7-7.4c0.2,0.7,0.3,0.9,0.3,1.2c0.4,2.4,0.7,4.7,1.1,7.1
			c0.1,0.6,0.6,1.4,1,1.4c0.5,0,1.2-0.5,1.7-0.9c1-0.9,1.8-2,3.3-2.3C66.3,25,67.5,24.4,68.8,24z"/>
		<path class="st0" d="M25.8,1.3c14.3,0,28.7,0,43,0c0,7.3,0,14.6,0,21.9c-3.2-0.7-5.8,0.5-8.3,3c-0.2-1.4-0.4-2.5-0.6-3.6
			c-0.3-1.8-0.5-3.6-0.8-5.4c-0.1-1-0.6-1.5-1.7-1.5c-1.6,4.1-3.2,8.2-4.9,12.6c-0.3-0.6-0.5-0.8-0.5-1c-0.3-2-0.5-4.1-0.8-6.1
			c-0.3-1.6-0.6-3.3-1-4.9c-0.1-0.4-0.8-0.7-1.2-1c-0.3,0.4-0.6,0.7-0.7,1.1c-1.3,4.2-2.5,8.3-3.8,12.5c-0.2,0.6-0.5,1.2-0.9,2
			c-0.2-0.5-0.4-0.7-0.4-0.9c-1.4-4.2-1.9-8.5-1.9-12.9c0-0.6-0.5-1.5-0.9-1.6c-0.5-0.1-1.2,0.4-1.8,0.8c-0.3,0.2-0.4,0.6-0.7,0.8
			C36.4,18.1,35,19,33.4,20C30.9,13.7,29.3,7.1,25.8,1.3z M53,8.7c1-0.7,1.7-1.1,2.3-1.6c0.2-0.1,0.2-0.7,0.1-0.9
			c-0.1-0.2-0.6-0.2-0.8-0.2c-0.5,0-0.9,0.2-1.3,0.1c-0.6-0.1-1.3-0.1-1.2,0.7C52.1,7.5,52.6,8,53,8.7z"/>
		<path class="st0" d="M6.6,48.9c0-15.8,0-31.7,0-47.6c6,0,11.9,0,17.9,0c-0.1,0.4-0.3,0.8-0.2,1.1c0.1,1.5,0.5,3,0.5,4.5
			c-0.3,4.4,0.6,8.7,0.9,13.1c0.1,0.8,0.5,1.1,1.3,0.7c-0.7-5.2-1.4-10.3-0.7-15.5c0.8,1.3,1.6,2.7,2.2,4.1
			c1.4,3.6,2.7,7.2,3.9,10.8c0.1,0.3-0.2,1.1-0.6,1.3c-6.6,4.5-12.7,9.6-18.1,15.5c-2.3,2.5-4.5,5.1-5.7,8.3
			C7.3,46.4,6.9,47.7,6.6,48.9z"/>
		<path d="M6.6,48.9c0.4-1.2,0.7-2.5,1.2-3.7c1.2-3.3,3.4-5.9,5.7-8.3c5.4-5.9,11.5-11,18.1-15.5c0.4-0.2,0.7-1,0.6-1.3
			c-1.3-3.6-2.6-7.2-3.9-10.8c-0.5-1.4-1.3-2.8-2.2-4.1c-0.6,5.2,0.1,10.4,0.7,15.5c-0.8,0.5-1.2,0.2-1.3-0.7
			c-0.3-4.4-1.1-8.7-0.9-13.1c0.1-1.5-0.3-3-0.5-4.5c0-0.4,0.1-0.8,0.2-1.1c0.5,0,0.9,0,1.4,0c3.5,5.8,5.2,12.4,7.6,18.7
			c1.6-1,3-1.9,4.4-2.8c0.3-0.2,0.4-0.6,0.7-0.8c0.6-0.3,1.2-0.8,1.8-0.8c0.4,0.1,0.9,1,0.9,1.6c0,4.4,0.6,8.7,1.9,12.9
			c0.1,0.2,0.2,0.4,0.4,0.9c0.4-0.8,0.7-1.4,0.9-2c1.3-4.2,2.5-8.3,3.8-12.5c0.1-0.4,0.5-0.7,0.7-1.1c0.4,0.3,1.1,0.6,1.2,1
			c0.4,1.6,0.7,3.3,1,4.9c0.3,2,0.5,4.1,0.8,6.1c0,0.2,0.2,0.4,0.5,1c1.7-4.4,3.3-8.5,4.9-12.6c1.1,0,1.6,0.5,1.7,1.5
			c0.3,1.8,0.5,3.6,0.8,5.4c0.2,1.1,0.4,2.2,0.6,3.6c2.5-2.5,5.1-3.8,8.3-3c0,0.3,0,0.5,0,0.8c-1.2,0.4-2.5,1-3.7,1.3
			c-1.4,0.3-2.3,1.4-3.3,2.3c-0.5,0.4-1.2,0.9-1.7,0.9c-0.4,0-0.9-0.9-1-1.4c-0.4-2.3-0.8-4.7-1.1-7.1c0-0.2-0.1-0.5-0.3-1.2
			c-1,2.7-1.8,5.1-2.7,7.4c-0.5,1.4-1.2,2.7-1.8,4C53,30.7,52.4,31,52,31c-0.4,0-0.9-0.5-1-0.8c-0.4-1.7-0.7-3.5-0.9-5.2
			c-0.3-1.9-0.6-3.8-0.8-5.7c-0.2,0-0.3,0-0.5,0c-0.5,1.8-1.1,3.6-1.6,5.4c-0.8,2.7-1.6,5.4-2.5,8.1c-0.1,0.4-0.8,1-1,1
			c-0.5-0.1-1.1-0.6-1.2-1c-0.8-3-1.6-6-2.3-9.1c-0.4-1.7-0.5-3.5-0.8-5.6c-1.9,1.2-3.5,2.3-5.1,3.4c-0.2,0.2-0.3,0.9-0.2,1.3
			c1.5,4.9,3.3,9.8,4.6,14.7c1,3.9,1.6,7.9,2.3,11.9c0.8,4.4,0.2,8.7-1.1,12.9c-1.3,4.2-3.9,7.5-7.6,9.8c-1.2,0.8-2.8,1-4.3,1.5
			c-1.4,0-2.9,0-4.3,0c0-0.1-0.1-0.2-0.1-0.2c-4.1-0.8-7.3-3-9.9-6.2c-2.8-3.5-5.1-7.3-6.3-11.7c-0.2-0.9-0.5-1.8-0.7-2.7
			C6.6,51.4,6.6,50.2,6.6,48.9z M32.7,22.1c-2.7,1.9-5.2,3.4-7.4,5.2c-2.6,2.1-5,4.4-7.5,6.7c-2.6,2.4-5,4.9-7,7.9
			c-2.7,4-4,8-2.7,12.8c1.1,3.9,2.8,7.4,5.3,10.6c2.8,3.6,6.2,6.3,11,7c4.1,0.6,7.3-1,10-3.6c2.1-2.1,3.8-4.7,4.3-7.7
			c0.5-2.7,1-5.4,1.2-8.1c0.1-1.7-0.2-3.4-0.5-5c-0.7-3.6-1.4-7.2-2.3-10.7c-0.6-2.4-1.3-4.7-2-7C34.4,27.5,33.6,24.9,32.7,22.1z"/>
		<path class="st0" d="M6.6,52.7c0.2,0.9,0.5,1.8,0.7,2.7c1.2,4.4,3.5,8.2,6.3,11.7c2.6,3.2,5.8,5.4,9.9,6.2c0.1,0,0.1,0.1,0.1,0.2
			c-5.7,0-11.3,0-17,0C6.6,66.6,6.6,59.6,6.6,52.7z"/>
		<path d="M53,8.7c-0.4-0.8-0.9-1.3-1-1.8c-0.1-0.8,0.6-0.8,1.2-0.7c0.4,0.1,0.9-0.1,1.3-0.1c0.3,0,0.7,0,0.8,0.2
			c0.1,0.2,0.1,0.7-0.1,0.9C54.8,7.7,54.1,8.1,53,8.7z"/>
		<path class="st0" d="M32.7,22.1c0.9,2.8,1.7,5.4,2.5,8c0.7,2.3,1.5,4.6,2,7c0.8,3.6,1.6,7.1,2.3,10.7c0.3,1.7,0.6,3.4,0.5,5
			c-0.2,2.7-0.7,5.4-1.2,8.1c-0.5,3.1-2.2,5.6-4.3,7.7c-2.7,2.7-5.9,4.2-10,3.6c-4.8-0.7-8.2-3.4-11-7c-2.4-3.1-4.2-6.7-5.3-10.6
			c-1.3-4.8,0-8.9,2.7-12.8c2-3,4.4-5.5,7-7.9c2.5-2.2,4.9-4.6,7.5-6.7C27.6,25.5,30.1,24,32.7,22.1z"/>
	</g>
</g>
</svg>
