<?xml version="1.0" encoding="utf-8"?>
<!-- Generator: Adobe Illustrator 19.2.0, SVG Export Plug-In . SVG Version: 6.00 Build 0)  -->
<svg version="1.1" id="Layer_1" xmlns="http://www.w3.org/2000/svg" xmlns:xlink="http://www.w3.org/1999/xlink" x="0px" y="0px"
	 viewBox="0 0 260 50" preserveAspectRatio="xMinYMid" style="enable-background:new 0 0 260 50;" xml:space="preserve">
<style type="text/css">
	.st0{fill:#010101;}
	.st1{fill-rule:evenodd;clip-rule:evenodd;fill:#0959A7;}
	.st2{fill:#0959A7;}
</style>
<g>
	<path class="st0" d="M86.2,19.4h4.2v15.3h9.6v3.8H86.2V19.4z"/>
	<path class="st0" d="M117.9,23.2h-10.3v3.9h9v3.8h-9v4h10.4v3.8h-14.6V19.4h14.5V23.2z"/>
	<path class="st0" d="M134.1,38.6l-4.3-6.6l-4.3,6.6h-4.8l6.7-9.7l-6.4-9.4h4.9l4,6.2l4.1-6.2h4.8l-6.4,9.4l6.7,9.8H134.1z"/>
	<path class="st0" d="M146.9,19.4v19.2h-4.2V19.4H146.9z"/>
	<path class="st0" d="M164.8,19.4h4.2v19.2h-3.6l-9.3-12.2v12.2h-4.2V19.4h3.9l9,11.8V19.4z"/>
	<path class="st0" d="M183.1,38.9c-6,0-10.1-4.2-10.1-9.9c0-5.5,4.2-9.9,10.1-9.9c3.5,0,5.5,0.9,7.5,2.6l-2.7,3.2
		c-1.5-1.2-2.8-1.9-5-1.9c-3.1,0-5.5,2.7-5.5,6c0,3.5,2.4,6.1,5.8,6.1c1.5,0,2.9-0.4,4-1.1v-2.7H183v-3.6h8.3v8.3
		C189.3,37.6,186.6,38.9,183.1,38.9z"/>
	<path class="st0" d="M204.1,38.6h-4.2V23.3H194v-3.9h15.9v3.9h-5.8V38.6z"/>
	<path class="st0" d="M221.9,38.9c-5.9,0-10.2-4.4-10.2-9.9c0-5.5,4.3-9.9,10.2-9.9c5.9,0,10.2,4.4,10.2,9.9
		C232.1,34.5,227.8,38.9,221.9,38.9z M221.9,23c-3.4,0-5.8,2.7-5.8,6c0,3.3,2.4,6.1,5.8,6.1c3.4,0,5.8-2.7,5.8-6
		C227.7,25.7,225.3,23,221.9,23z"/>
	<path class="st0" d="M249,19.4h4.2v19.2h-3.6l-9.3-12.2v12.2h-4.2V19.4h3.9l9,11.8V19.4z"/>
</g>
<g>
	<g>
		<path class="st1" d="M67.6,31.4 M12.9,3.7c0.2,0,0.9,0.2,1.2,0.3c0.3,0.1,1.1,0.4,1.4,0.4c4,1.3,4.1,1.3,7.8,3.3
			c1.8,0.9,3.3,2.4,3.3,2.4c0.2,0.1,0.7,0.5,1.4,0.6c0.7,0.1,2,0.2,2.3,0.3c0.2,0,1.1,0.3,1.4,0.4l3.8,1.8c0.8,0.3,1.3,0.6,2.2,0.7
			c1,0.1,2.2,0.2,4.5-0.4c2.3-0.6,3.4-0.9,3.8-1c0.2-0.1,2.8-0.8,2.8-0.8c1.8-0.5,3.7-0.2,3.7-0.2c0.7,0.1,3.8,0.9,3.8,0.9
			c1.1,0.4,3.2,0.7,3.2,0.7c2.1,0.1,3.3,1.2,3.3,1.2c2.5,1.9,3.5,5.3,3.5,5.3c1.7,5.6,0.6,13.8,0.6,13.8s-0.1,0.5-0.3,0.7
			c0,0-0.2,0.1-0.3,0c0,0-0.3-0.8-0.6-1.7c-0.4-1.2-0.5-2.4-0.5-2.4c0-0.1-0.1-1.1-0.1-1.1c0.1-2.5-0.9-4.1-0.9-4.1
			c-1.2-2-1.4-3.1-1.4-3.1c-0.5-2-0.5-2-0.8-4.1c0-0.2-0.1-0.5-0.2-0.7c0,0-0.1-0.9-0.9-1.6c0,0-0.6-0.5-1.8-0.5
			c0,0,0.5,0.6,0.6,0.9c0.7,1.1,1.1,2.3,1.1,2.3c0.1,0.5,0.2,0.9,0.2,2.1c0,1.3-0.1,3-0.2,3.5c-0.1,0.5-0.3,1.4-0.5,1.7
			c-0.2,0.4-0.7,1.5-0.8,1.8c-0.5,1.2-0.3,2.4-0.3,2.4c0,0.5,0.2,0.9,0.3,1.1c0.1,0.3,0.6,1.3,0.7,1.6c0.1,0.3,0.7,1.4,1,1.8
			c0.2,0.4,0.6,0.9,0.7,1.1c0.1,0.2,0.2,0.5,0.2,0.8c-0.1,0.4-0.1,0.6-0.1,0.7c-0.2,2.8,0.2,6.3,0.2,6.3c0,0.1,0,0.5,0,0.6
			c0,0.1,0.1,0.5,0.1,0.7c0.1,0.8-0.3,1.1-0.3,1.1c-0.2,0.1-0.3,0.2-0.4,0.4c0,0-0.3,0.4-0.3,1c0,0.1,0.1,0.4,0.1,0.5
			c0,0.1,0,0.5,0,0.6c0,0,0,0.4-0.5,0.8h-2.3c0,0-0.3,0-0.1-0.2c0.1-0.1,0.3-0.6,0.4-0.7c0.4-0.6,1.1-1.5,1.1-1.5
			c0.3-0.4,0.4-1.2,0.5-1.6c0.2-0.7,0.1-1.6,0.1-1.6c-0.1-0.4-0.3-2-0.3-2.2c0-0.3,0-0.6,0-0.7c0-0.1-0.2-0.6-0.3-0.8
			c-0.1-0.2-0.3-0.6-0.4-0.7c0,0-0.4-0.5-0.4-1.1c0-0.4-0.2-0.7-0.2-0.7s-0.2-0.6-0.6-1.1c-0.1-0.2-0.6-0.7-0.8-0.9
			c-0.2-0.3-0.6-0.8-0.6-1c-0.1-0.2-0.3-0.6-0.3-0.7c-0.1-0.2-0.2-0.7-0.3-0.8c-0.1-0.1-0.2-0.4-0.2-0.4c-0.1-0.1-0.1-0.1-0.1-0.1
			s0,0.5,0,0.8c0,0.2,0.1,1.6,0.2,2.2c0.1,0.6,0.1,0.9,0,1.3c-0.1,0.4-0.3,0.6-0.4,0.7c-0.1,0.1-0.3,0.5-0.3,0.6
			c0,0.2-0.2,0.8-0.4,1.1c-0.1,0.3-0.2,0.5-0.3,0.7c0,0-0.9,1.8-1.3,3.1C53.4,42,53,43.1,53,43.4c-0.2,0.7-0.4,1.4-0.4,1.4
			c-0.2,1-0.8,1.1-0.8,1.1c-0.2,0-0.3,0.1-0.4,0.1c-0.1,0.1-0.4,0.3-0.5,0.4c-0.1,0.1-0.3,0.5-0.3,0.5c0.2,0.5,0.1,0.9,0.1,0.9
			c-0.1,0.4-0.3,0.5-0.3,0.5s-2.7,0-2.7,0c-0.1,0-0.1-0.1-0.1-0.1c0.3-0.9,1-1.6,1-1.6c0.4-0.4,1.1-0.9,1.2-1.1
			c0.2-0.2,0.7-0.5,0.8-0.7c0.1-0.2,0.3-0.8,0.4-1c0.3-0.6,0.4-1.2,0.4-1.2c0-0.3,0.2-0.9,0.2-1c0.4-1.4,1.2-3.1,1.2-3.1
			c0-0.2-0.1-1.3-0.2-1.4c-0.1-0.6,0.1-1.5,0.1-1.5c0-0.1,0-0.6-0.1-0.8c0-0.2-0.1-0.7-0.2-1c-0.1-0.3-0.1-0.9-0.3-1.4
			c0,0-1.1-3.2-1-5.8c-2-0.8-3,0.4-3,0.4c-3.5,3.7-11.8,2.2-11.8,2.2c-1.1-0.3-2.1-0.2-2.7-0.1c-0.6,0-1.1,0.2-1.6,0.3
			c-0.5,0.1-0.7,0.1-0.7,0.2c0,0.1,0,0.9,0,1.2c0,0,0.6,5,1.1,7.5c0.1,0.4,0.5,2.1,0.5,2.4c0.1,0.3,0.6,2.3,0.8,2.8
			c0.1,0.5,0.3,1,0.2,1.3c-0.1,0.3-0.2,0.5-0.4,0.6c0,0-0.6,0.5-0.8,1.3c0,0,0.2,0.4,0.1,1c0,0,0,0.2-0.1,0.4
			c-0.1,0.1-0.3,0.2-0.3,0.2s-2.2,0-2.3,0c-0.1,0-0.1-0.1-0.1-0.1c0-0.2,0.3-0.7,0.3-0.7c0.2-0.3,0.6-0.7,0.8-0.9c0,0,0.9-1.3,1-2.1
			c0-0.3,0-0.8-0.1-1.1c0-0.3-0.2-1-0.3-1.4c-0.1-0.5-0.4-1.4-0.6-1.6c-0.1-0.2-0.8-2-0.9-2.2c-0.1-0.2-0.3-0.6-0.4-0.8
			c-0.1-0.2-0.2-0.6-0.3-1c0,0-0.3,1.1-0.4,2.4c0,0.7,0,2.4,0,2.4c0,0.1,0.2,1.2,0.2,1.5c0.1,0.7,0.2,1.9,0.2,1.9
			c0,0.1,0,0.6-0.1,0.7c-0.1,0.2-0.3,0.5-0.5,0.5c-0.2,0.1-0.4,0.1-0.5,0.2c-0.1,0.1-0.2,0.4-0.3,0.5c0,0.1-0.2,0.3-0.1,0.3
			c0,0.1,0,0.1,0.1,0.3c0,0,0.3,0.4-0.2,1.1l-0.1,0.2c0,0-2.3,0-2.4,0c0,0-0.1,0-0.1-0.1c-0.1-0.1,0.1-0.3,0.1-0.3
			c0.2-0.4,0.5-0.7,0.6-0.8c0.1-0.1,0.5-0.5,0.5-0.6c0.3-0.3,0.8-1,0.8-1c0.5-0.8,0.5-1.9,0.5-1.9c0-0.6-0.2-2.6-0.2-2.9
			c0-0.3-0.2-0.7-0.3-0.9c-0.5-1.1-0.7-2.6-0.7-2.6c0-0.3-0.1-1.2-0.1-1.5c-0.1-2.3-1-4.2-1-4.2c-0.1-0.3-0.5-1-0.5-1.2
			c-0.1-0.2-0.2-0.8-0.3-1c0-0.2,0-0.4-0.3-0.5c-0.3-0.1-0.8-0.4-1.1-0.7c0,0-2.6-2-2.9-5.3c-0.1-1-0.3-2.5-0.4-2.7
			c0-0.1,0-0.6-0.9-1.6c-0.9-1-1.3-1.4-1.8-2.4c-0.6-0.9-1.2-2.3-1.5-2.8c-0.2-0.5-0.3-1-0.5-1.2c-0.2-0.3-0.5-0.5-0.9-0.6
			c-0.4-0.1-0.6-0.1-0.6,0c-1,1-1.6,0.9-2.5,0.7c-0.3-0.1-1.1,0.8-2,1.4c-0.3,0.2-0.5,0.2-0.8,0.5c0,0-0.2,0.2-0.3,0.6
			c-0.2,0.5-0.3,0.5-0.8,0.9c-0.2,0.1-0.5,0.2-1,0.2c-0.5-0.1-0.9-0.2-1-0.4c-0.1-0.2-0.1-0.3-0.2-0.4c-0.1-0.1-0.2-0.3-0.3-0.4
			c-0.2-0.3-0.2-0.6-0.2-0.7c0-0.3,0.1-0.3,0.2-0.6C5.1,12.9,5,12.6,5.4,12c0.7-1,1.3-1.7,1.3-1.7c1-1.2,0.9-2.7,0.9-2.7
			c0-0.2,0-0.6,0.1-0.8C7.9,6.5,8,6.4,8.3,6.2C8.5,6,8.7,5.7,8.8,5.6c0,0,0.1-0.2,0.1-0.6c0,0,0-0.3-0.1-0.5c0,0-1-1.1-0.8-2.3
			c0-0.2,0.4-0.4,0.6,0C9.2,3,9.8,3.6,9.8,3.6s0.4-0.2,0.9-0.2c0,0,0-0.1,0-0.4c0-0.2-0.2-0.4-0.2-0.7c0-0.1,0-0.4,0.1-0.5
			c0.1-0.3,0-0.6,0-0.8c0-0.1,0.2-0.3,0.4-0.1c0.9,0.7,0.9,1.5,0.9,1.5c0,0.1,0,0.4,0,0.4c0,0.3,0,0.4,0,0.4
			C12.3,3.5,12.9,3.7,12.9,3.7z"/>
	</g>
	<g>
		<path class="st2" d="M22.8,47.9c-0.1,0.1-0.1,0.3-0.2,0.4c-0.1,0.1-0.2,0.2-0.4,0.2c-0.1,0.1-0.3,0.1-0.5,0.1
			c-0.2,0-0.3,0-0.4-0.1c-0.1-0.1-0.3-0.1-0.4-0.2c-0.1-0.1-0.2-0.2-0.2-0.4c-0.1-0.1-0.1-0.3-0.1-0.4c0-0.2,0-0.3,0.1-0.4
			c0.1-0.1,0.1-0.3,0.2-0.4c0.1-0.1,0.2-0.2,0.4-0.2c0.1-0.1,0.3-0.1,0.5-0.1c0.2,0,0.3,0,0.4,0.1c0.1,0.1,0.3,0.1,0.4,0.2
			c0.1,0.1,0.2,0.2,0.2,0.4c0.1,0.1,0.1,0.3,0.1,0.4C22.9,47.6,22.9,47.8,22.8,47.9z M22.7,47.1c-0.1-0.1-0.1-0.2-0.2-0.3
			c-0.1-0.1-0.2-0.2-0.3-0.2c-0.1-0.1-0.3-0.1-0.4-0.1c-0.1,0-0.3,0-0.4,0.1c-0.1,0.1-0.2,0.1-0.3,0.2c-0.1,0.1-0.2,0.2-0.2,0.3
			c-0.1,0.1-0.1,0.3-0.1,0.4c0,0.1,0,0.3,0.1,0.4c0.1,0.1,0.1,0.2,0.2,0.3c0.1,0.1,0.2,0.2,0.3,0.2c0.1,0.1,0.3,0.1,0.4,0.1
			c0.1,0,0.3,0,0.4-0.1c0.1-0.1,0.2-0.1,0.3-0.2c0.1-0.1,0.2-0.2,0.2-0.3c0.1-0.1,0.1-0.3,0.1-0.4C22.8,47.3,22.8,47.2,22.7,47.1z
			 M22.2,47.5c0,0.1-0.1,0.1-0.2,0.1l0.3,0.4H22l-0.3-0.4h-0.2v0.4h-0.3v-1.2h0.5c0.1,0,0.3,0,0.3,0.1c0.1,0.1,0.1,0.2,0.1,0.3
			C22.3,47.3,22.3,47.4,22.2,47.5z M22,47.1c0,0-0.1,0-0.2,0h-0.3v0.4h0.3c0.1,0,0.1,0,0.2,0c0,0,0.1-0.1,0.1-0.1
			C22,47.2,22,47.1,22,47.1z"/>
	</g>
</g>
</svg>
