<svg xmlns="http://www.w3.org/2000/svg" width="216" height="146" viewBox="0 0 216 146"><path d="M166.254 75.443c-.705-3.205-2.268-5.893-4.684-8.065-2.418-2.172-5.202-3.45-8.353-3.83-9.993-1.085-25.065-1.628-45.218-1.628-20.156 0-35.2.543-45.14 1.63-3.205.38-6 1.656-8.39 3.828-2.39 2.173-3.968 4.86-4.73 8.065-1.41 6.302-2.117 15.807-2.117 28.517 0 12.927.706 22.433 2.118 28.517.708 3.203 2.27 5.893 4.687 8.064 2.416 2.177 5.2 3.426 8.35 3.75 10 1.14 25.073 1.71 45.223 1.71s35.225-.57 45.217-1.71c3.15-.327 5.92-1.576 8.31-3.75 2.392-2.17 3.967-4.86 4.727-8.063 1.412-6.302 2.12-15.807 2.12-28.517-.002-12.927-.71-22.433-2.12-28.517zm-84.162 8.23h-8.718v46.358h-8.147V83.678h-8.555v-7.66h25.42v7.66zm21.997 46.358h-7.255v-4.4c-2.933 3.318-5.704 4.97-8.31 4.97-2.5 0-4.075-1-4.726-3.01-.434-1.304-.65-3.287-.65-5.95V89.784h7.25v29.656c0 1.736.026 2.687.08 2.85.164 1.14.734 1.71 1.71 1.71 1.468 0 3.017-1.14 4.646-3.42V89.782h7.25v40.248zm27.7-12.054c0 3.965-.247 6.682-.73 8.15-.93 2.984-2.856 4.478-5.79 4.478-2.606 0-5.132-1.493-7.577-4.478v3.91h-7.25v-54.02h7.25v17.68c2.337-2.93 4.86-4.4 7.578-4.4 2.934 0 4.86 1.523 5.786 4.564.486 1.41.73 4.1.73 8.063v16.048zm27.535-6.68h-14.583v7.088c0 3.75 1.248 5.622 3.747 5.622 1.792 0 2.88-.977 3.26-2.934.107-.542.162-2.2.162-4.97h7.414v1.06c0 2.663-.055 4.237-.163 4.728-.162 1.465-.73 2.932-1.71 4.398-1.956 2.88-4.89 4.318-8.8 4.318-3.748 0-6.68-1.384-8.8-4.153-1.574-2.01-2.362-5.16-2.362-9.45v-14.1c0-4.29.76-7.44 2.28-9.45 2.12-2.77 5.026-4.154 8.72-4.154 3.64 0 6.52 1.383 8.636 4.153 1.468 2.01 2.2 5.16 2.2 9.45v8.392z"/><path d="M121.36 95.895c-1.25 0-2.47.6-3.665 1.793v24.522c1.195 1.194 2.416 1.792 3.666 1.792 2.12 0 3.18-1.818 3.18-5.46v-17.188c0-3.64-1.06-5.46-3.18-5.46zm27.05 0c-2.443 0-3.665 1.847-3.665 5.54v3.747h7.332v-3.748c0-3.694-1.223-5.54-3.666-5.54zM77.368 32.508v22.08h8.147v-22.08L95.372 0h-8.31l-5.54 21.428L75.74 0h-8.636c1.52 4.563 3.286 9.64 5.296 15.236 2.553 7.495 4.21 13.253 4.97 17.272zm28.922 22.65c3.747 0 6.625-1.385 8.635-4.155 1.52-2.01 2.28-5.215 2.28-9.614V27.13c0-4.344-.76-7.522-2.28-9.532-2.01-2.77-4.888-4.155-8.636-4.155-3.64 0-6.496 1.385-8.56 4.155-1.52 2.01-2.28 5.188-2.28 9.533v14.26c0 4.347.76 7.55 2.28 9.616 2.065 2.77 4.916 4.155 8.556 4.155zm-3.505-29.494c0-3.748 1.168-5.622 3.504-5.622s3.5 1.874 3.5 5.622v17.11c0 3.802-1.168 5.702-3.504 5.702s-3.505-1.9-3.505-5.703v-17.11zm25.908 29.494c2.717 0 5.515-1.684 8.393-5.052v4.48h7.414V13.933h-7.414v31.04c-1.63 2.337-3.177 3.504-4.645 3.504-.975 0-1.545-.597-1.71-1.792-.052-.11-.08-1.06-.08-2.852v-29.9h-7.413v32.1c0 2.77.218 4.807.652 6.11.706 2.01 2.31 3.016 4.806 3.016z"/></svg>